<svg width="1024" height="1024" viewBox="0 0 270.933 270.933" xml:space="preserve" xmlns:xlink="http://www.w3.org/1999/xlink" xmlns="http://www.w3.org/2000/svg">
  <defs>
    <linearGradient id="j">
      <stop style="stop-color:#455936;stop-opacity:1" offset="0"/>
      <stop style="stop-color:#78a54b;stop-opacity:1" offset="1"/>
    </linearGradient>
    <linearGradient id="c">
      <stop style="stop-color:#000;stop-opacity:1" offset="0"/>
      <stop style="stop-color:#141414;stop-opacity:1" offset="1"/>
    </linearGradient>
    <linearGradient id="l">
      <stop style="stop-color:#636363;stop-opacity:1" offset="0"/>
      <stop style="stop-color:#000;stop-opacity:1" offset=".664"/>
    </linearGradient>
    <linearGradient id="k">
      <stop style="stop-color:#1f1f1f;stop-opacity:1" offset="0"/>
      <stop style="stop-color:#000;stop-opacity:1" offset="1"/>
    </linearGradient>
    <linearGradient id="b">
      <stop style="stop-color:#424242;stop-opacity:1" offset="0"/>
      <stop style="stop-color:#2b2b2b;stop-opacity:1" offset=".3"/>
      <stop style="stop-color:#333;stop-opacity:1" offset=".698"/>
      <stop style="stop-color:#3f3f3f;stop-opacity:1" offset="1"/>
    </linearGradient>
    <linearGradient id="a">
      <stop style="stop-color:#919191;stop-opacity:1" offset="0"/>
      <stop style="stop-color:#000;stop-opacity:1" offset=".3"/>
    </linearGradient>
    <linearGradient xlink:href="#a" id="x" x1="67.561" y1="-65.377" x2="67.561" y2="94.748" gradientUnits="userSpaceOnUse" gradientTransform="translate(55.033 118.297) scale(1.19056)"/>
    <linearGradient xlink:href="#b" id="y" gradientUnits="userSpaceOnUse" x1="67.561" y1="-65.377" x2="67.561" y2="94.748" gradientTransform="translate(55.437 118.384) scale(1.18459)"/>
    <linearGradient xlink:href="#c" id="p" x1="173.805" y1="97.128" x2="97.128" y2="173.805" gradientUnits="userSpaceOnUse"/>
    <linearGradient id="d">
      <stop offset="0" style="stop-color:#d5d3cf;stop-opacity:1"/>
      <stop offset="1" style="stop-color:#f6f5f4;stop-opacity:1"/>
    </linearGradient>
    <linearGradient id="m">
      <stop offset="0" style="stop-color:#d5d3cf;stop-opacity:1"/>
      <stop offset="1" style="stop-color:#949390;stop-opacity:1"/>
    </linearGradient>
    <linearGradient id="e">
      <stop offset="0" style="stop-color:#9a9996;stop-opacity:1"/>
      <stop offset="1" style="stop-color:#77767b;stop-opacity:1"/>
    </linearGradient>
    <linearGradient id="f">
      <stop style="stop-color:#134684;stop-opacity:1" offset="0"/>
      <stop style="stop-color:#62a0ea;stop-opacity:1" offset="1"/>
    </linearGradient>
    <linearGradient id="i">
      <stop style="stop-color:#957b1e;stop-opacity:1" offset="0"/>
      <stop style="stop-color:#f8e45c;stop-opacity:1" offset="1"/>
    </linearGradient>
    <linearGradient id="g">
      <stop style="stop-color:#617086;stop-opacity:1" offset="0"/>
      <stop style="stop-color:#9ca8b8;stop-opacity:1" offset="1"/>
    </linearGradient>
    <linearGradient id="h">
      <stop style="stop-color:#f8e259;stop-opacity:1" offset=".5"/>
      <stop style="stop-color:#f8e45c;stop-opacity:1" offset="1"/>
    </linearGradient>
    <linearGradient xlink:href="#f" id="t" x1="205.903" y1="350.203" x2="199.321" y2="316.437" gradientUnits="userSpaceOnUse" gradientTransform="translate(3.767 -88.801) scale(.6853)"/>
    <linearGradient xlink:href="#g" id="v" x1="170" y1="341" x2="170" y2="330" gradientUnits="userSpaceOnUse" gradientTransform="translate(3.672 -88.882) scale(.6853)"/>
    <linearGradient xlink:href="#h" id="w" x1="203.679" y1="342.459" x2="195.186" y2="304.419" gradientUnits="userSpaceOnUse" gradientTransform="translate(3.767 -88.801) scale(.6853)"/>
    <linearGradient xlink:href="#f" id="u" x1="255.547" y1="45.632" x2="292.007" y2="-1.349" gradientUnits="userSpaceOnUse" gradientTransform="translate(-125.865 140.104)"/>
    <linearGradient xlink:href="#i" id="s" x1="279.438" y1="32.862" x2="279.026" y2="4.095" gradientUnits="userSpaceOnUse" gradientTransform="translate(-125.865 140.104)"/>
    <linearGradient xlink:href="#j" id="q" x1="230.025" y1="7.857" x2="292.639" y2="-29.717" gradientUnits="userSpaceOnUse" gradientTransform="translate(-125.865 140.104)"/>
    <linearGradient xlink:href="#j" id="r" gradientUnits="userSpaceOnUse" gradientTransform="translate(-213.756 -187.785) scale(.81794)" x1="230.025" y1="7.857" x2="292.639" y2="-29.717"/>
    <radialGradient xlink:href="#k" id="n" cx="135.467" cy="277.115" fx="135.467" fy="277.115" r="135.467" gradientUnits="userSpaceOnUse" gradientTransform="matrix(0 -1.22922 1.04624 0 -154.463 358.922)"/>
    <radialGradient xlink:href="#l" id="o" cx="125.999" cy="52.719" fx="125.999" fy="52.719" r="102.322" gradientUnits="userSpaceOnUse" gradientTransform="matrix(0 1.93465 -1.2296 0 200.29 -203.931)"/>
  </defs>
  <path style="fill:url(#n);fill-opacity:1;stroke:none;stroke-width:.543976;stroke-linecap:square" d="M42.628 6.726h185.677v185.677H42.628z" transform="translate(-62.201 -9.814) scale(1.45916)"/>
  <g transform="matrix(1.05073 0 0 1.05073 -6.87 -6.87)">
    <circle style="fill:url(#o);fill-opacity:1;stroke:#000;stroke-width:1.57502;stroke-linecap:square;stroke-dasharray:none" cx="135.467" cy="135.467" r="101.535"/>
    <circle style="fill:url(#p);fill-opacity:1;stroke:none;stroke-width:.945009;stroke-linecap:square" cx="135.467" cy="135.467" r="41.642"/>
    <circle style="fill:url(#q);fill-opacity:1;stroke:none;stroke-width:.945009;stroke-linecap:square" cx="135.467" cy="135.467" r="31.307"/>
    <circle style="fill:url(#r);fill-opacity:1;stroke:none;stroke-width:.772965;stroke-linecap:square" cy="-191.578" r="25.607" transform="rotate(135)"/>
    <path style="fill:url(#s);fill-opacity:1;stroke:none;stroke-width:.945009;stroke-linecap:square" d="m159.575 139.068-32.722 5.17s-5.849 6.603-4.205 19.776a31.307 31.307 0 0 0 12.819 2.76 31.307 31.307 0 0 0 29.413-20.81z"/>
    <path style="fill:url(#t);fill-opacity:1;stroke:none;stroke-width:2.05588;stroke-linecap:round;stroke-dasharray:none;paint-order:markers stroke fill" d="M162.755 141.458s-3.519-21.93-21.244-21.93c-15.076 0-17.818 10.965-17.818 19.189 0 8.327 6.853 13.706 15.762 13.706 6.853 0 9.594-4.797 13.706-8.224 4.112-3.426 9.594-2.741 9.594-2.741z"/>
    <path style="fill:url(#u);fill-opacity:1;stroke:none;stroke-width:.945009;stroke-linecap:square" d="M161.803 138.755c-8.4 2.96-14.55 14.019-13.376 25.206a31.307 31.307 0 0 0 17.715-22.6c-2.624-1.779-4.339-2.606-4.339-2.606z"/>
    <path style="fill:url(#v);fill-opacity:1;stroke:none;stroke-width:1.54646;stroke-linecap:round;stroke-dasharray:none;paint-order:markers stroke fill" d="M123.768 136.574s-3.608 1.546-5.155 3.608c-1.546 2.062-1.823 3.845-1.823 3.845s.792 1.064 3.885.795c3.093-.27 4.244-.418 4.244-.418s-.12-1.129.396-2.16c.515-1.03 1.03-1.546 1.03-1.546s-1.546-1.132-2.061-2.062c-.516-.93-.516-2.062-.516-2.062z"/>
    <path style="display:inline;fill:url(#w);fill-opacity:1;stroke:none;stroke-width:2.05588;stroke-linecap:round;stroke-dasharray:none;paint-order:markers stroke fill;enable-background:new" d="M141.511 119.528c-13.8 0-17.255 9.183-17.743 17.046.401-.476 6.926-8.137 11.575-8.137 4.797 0 6.168 3.427 10.28 4.112 3.21.535 8.508-1.854 11.33-4.884-3.227-4.393-8.12-8.137-15.442-8.137z"/>
    <circle style="fill:#000;fill-opacity:1;stroke:#000;stroke-width:.945009;stroke-linecap:square" cx="135.467" cy="135.467" r="2.641"/>
    <path style="color:#000;fill:url(#x);fill-opacity:1;stroke-width:2.01448757;stroke-linecap:square;stroke-dasharray:none" d="M135.468 39.832c-52.814 0-95.636 42.822-95.636 95.635 0 52.814 42.822 95.634 95.636 95.634 52.813 0 95.633-42.82 95.633-95.634 0-52.813-42.82-95.635-95.633-95.635zm0 .63c52.473 0 95.003 42.532 95.003 95.005s-42.53 95.004-95.003 95.004-95.006-42.53-95.006-95.004c0-52.473 42.533-95.005 95.006-95.005zm0 12.257c-45.697 0-82.749 37.052-82.749 82.748 0 45.697 37.052 82.747 82.749 82.747 45.696 0 82.746-37.05 82.746-82.747 0-45.696-37.05-82.748-82.746-82.748zm0 .63c45.356 0 82.116 36.762 82.116 82.118 0 45.356-36.76 82.117-82.116 82.117s-82.119-36.76-82.119-82.117c0-45.356 36.763-82.118 82.119-82.118zm0 7.999c-40.932 0-74.12 33.188-74.12 74.12 0 40.93 33.188 74.119 74.12 74.119 40.931 0 74.12-33.188 74.12-74.12 0-40.93-33.189-74.12-74.12-74.12zm0 .63c40.59 0 73.49 32.899 73.49 73.49 0 40.59-32.9 73.489-73.49 73.489-40.591 0-73.492-32.899-73.492-73.49 0-40.59 32.9-73.489 73.492-73.489zm0 6.737c-36.863 0-66.755 29.89-66.755 66.752 0 36.863 29.892 66.753 66.755 66.753s66.753-29.89 66.753-66.753-29.89-66.752-66.753-66.752zm0 .627c36.522 0 66.122 29.603 66.122 66.125 0 36.523-29.6 66.123-66.122 66.123-36.523 0-66.125-29.6-66.125-66.123 0-36.522 29.602-66.125 66.125-66.125zm0 8.697c-31.713 0-57.429 25.716-57.429 57.428 0 31.713 25.716 57.426 57.429 57.426 31.712 0 57.426-25.713 57.426-57.426 0-31.712-25.714-57.428-57.426-57.428zm0 .63c31.372 0 56.796 25.426 56.796 56.798 0 31.373-25.424 56.796-56.796 56.796S78.67 166.84 78.67 135.467c0-31.372 25.426-56.798 56.798-56.798zm0 8.167c-26.855 0-48.632 21.777-48.632 48.631 0 26.855 21.777 48.632 48.632 48.632 26.854 0 48.631-21.777 48.631-48.632 0-26.854-21.777-48.631-48.631-48.631zm0 .63c26.514 0 48.001 21.487 48.001 48.001 0 26.515-21.487 48.002-48.001 48.002-26.515 0-48.004-21.487-48.004-48.002 0-26.514 21.49-48.001 48.004-48.001z"/>
    <path style="color:#000;fill:url(#y);fill-opacity:1;stroke-width:7.61381127;stroke-linecap:square;stroke-dasharray:none" d="M135.468 40.312c-52.548 0-95.156 42.608-95.156 95.156 0 52.548 42.608 95.153 95.156 95.153 52.548 0 95.153-42.605 95.153-95.153 0-52.548-42.605-95.156-95.153-95.156zm0 .627c52.21 0 94.526 42.32 94.526 94.529 0 52.21-42.317 94.526-94.526 94.526-52.21 0-94.529-42.317-94.529-94.526 0-52.21 42.32-94.529 94.529-94.529zm0 12.196C90 53.135 53.135 90 53.135 135.468s36.866 82.33 82.333 82.33 82.33-36.863 82.33-82.33-36.863-82.333-82.33-82.333zm0 .627c45.128 0 81.704 36.578 81.704 81.706s-36.576 81.704-81.704 81.704c-45.128 0-81.706-36.576-81.706-81.704 0-45.128 36.578-81.706 81.706-81.706zm0 7.958c-40.726 0-73.748 33.022-73.748 73.748 0 40.726 33.022 73.747 73.748 73.747 40.726 0 73.747-33.021 73.747-73.747S176.194 61.72 135.468 61.72zm0 .627c40.387 0 73.12 32.734 73.12 73.12 0 40.388-32.733 73.121-73.12 73.121-40.387 0-73.123-32.733-73.123-73.12 0-40.387 32.736-73.12 73.123-73.12zm0 6.703c-36.678 0-66.42 29.74-66.42 66.418 0 36.678 29.742 66.418 66.42 66.418s66.418-29.74 66.418-66.418c0-36.678-29.74-66.418-66.418-66.418zm0 .625c36.339 0 65.79 29.454 65.79 65.793 0 36.339-29.451 65.79-65.79 65.79-36.34 0-65.793-29.451-65.793-65.79 0-36.34 29.454-65.793 65.793-65.793zm0 8.653c-31.553 0-57.14 25.587-57.14 57.14s25.587 57.138 57.14 57.138 57.138-25.585 57.138-57.138c0-31.553-25.585-57.14-57.138-57.14zm0 .627c31.214 0 56.51 25.298 56.51 56.513 0 31.214-25.296 56.51-56.51 56.51-31.215 0-56.513-25.296-56.513-56.51 0-31.215 25.298-56.513 56.513-56.513zm0 8.125c-26.72 0-48.388 21.668-48.388 48.388s21.668 48.387 48.388 48.387 48.387-21.667 48.387-48.387-21.667-48.388-48.387-48.388zm0 .627c26.381 0 47.76 21.38 47.76 47.76 0 26.382-21.379 47.761-47.76 47.761-26.381 0-47.763-21.379-47.763-47.76 0-26.381 21.382-47.76 47.763-47.76z"/>
    <path style="font-weight:600;font-size:6.04346px;font-family:Inter;-inkscape-font-specification:'Inter Semi-Bold';text-align:center;letter-spacing:2.51811px;text-anchor:middle;fill:#fff;stroke-width:1.25905;stroke-linecap:round;paint-order:markers stroke fill" d="M130.825 110.349q-.487.091-.88-.045-.39-.139-.65-.476-.26-.34-.356-.849-.093-.5.026-.913.12-.415.425-.69.304-.278.768-.365.3-.057.583-.01.286.045.528.207.244.162.42.45.176.286.256.712l.044.234-2.655.498-.097-.515 1.924-.36q-.044-.22-.168-.373-.126-.155-.31-.223-.184-.069-.403-.027-.234.043-.39.19-.156.146-.221.348-.063.2-.025.417l.085.45q.053.282.194.465.14.181.347.254.205.07.454.024.167-.031.293-.103.126-.074.208-.185.081-.112.106-.258l.728-.054q-.014.295-.165.542-.148.244-.42.415-.271.169-.649.24zm6.779-1.8.104-1.907.776.043-.18 3.291-.753-.041.032-.585-.034-.002q-.126.27-.391.432-.263.162-.633.142-.324-.018-.565-.175-.238-.16-.362-.444-.124-.286-.103-.68l.115-2.096.776.043-.108 1.975q-.017.313.144.507.161.194.44.209.171.009.337-.066.165-.074.277-.234.114-.161.128-.412zm3.609 3.187 1.333-4.332.73.224-.16.521.043.014q.093-.098.237-.195.145-.099.352-.136.208-.04.485.046.365.112.6.39.239.275.3.69.063.415-.099.94-.16.52-.442.83-.282.31-.634.411-.352.1-.723-.014-.27-.083-.421-.228-.15-.145-.22-.306-.067-.162-.091-.295l-.031-.01-.517 1.679zm1.576-2.533q-.094.306-.078.562.017.257.142.437.127.178.363.25.246.076.452-.003.207-.083.362-.287.158-.205.249-.5.09-.293.076-.547-.014-.254-.14-.434-.127-.18-.375-.257-.238-.073-.443.001-.204.074-.36.273-.153.2-.248.506zm6.327 2.336-.998 1.654-.665-.401 2.271-3.764.65.393-.856 1.42.033.02q.243-.179.534-.191.294-.013.617.182.294.177.438.432.145.255.121.564-.022.31-.228.652l-1.084 1.797-.666-.401 1.023-1.694q.172-.285.12-.532-.049-.247-.311-.406-.177-.106-.363-.113-.183-.008-.349.088-.163.096-.287.3zm4.412 5.866q-.341-.341-.442-.742-.1-.4.032-.809.134-.406.495-.768.361-.36.77-.496.41-.133.81-.033.4.1.742.441.341.342.441.743.1.4-.034.808-.134.41-.495.771-.361.361-.77.493-.406.134-.807.034-.4-.1-.742-.442zm.443-.437q.185.185.411.208.228.021.462-.09.235-.112.447-.324.214-.214.325-.45.114-.234.093-.462-.021-.228-.207-.413-.19-.19-.418-.212-.228-.022-.465.09-.234.113-.448.327-.212.212-.324.446-.111.235-.09.463.024.228.214.417zm4.723 3.69-1.653.999-.402-.665 2.822-1.704.384.635-.48.29.02.033q.296-.046.564.083.27.13.46.447.177.292.183.584.007.294-.158.557-.163.264-.502.466l-1.797 1.085-.402-.665 1.694-1.023q.283-.17.354-.414.072-.242-.083-.499-.106-.174-.265-.264-.156-.088-.346-.079-.189.011-.393.134zm.763 5.847 3.105-1.106.261.732-3.105 1.106zm3.677-.895q-.062-.174.01-.34.072-.168.236-.226.165-.059.325.025.162.084.224.258.063.176-.01.34-.071.167-.237.226-.164.059-.325-.025-.16-.082-.222-.258zm-2.38 6.255q-.071-.488.092-.87.163-.38.514-.624.353-.242.847-.314.497-.073.905.063.41.135.674.452.265.32.335.797.058.397-.044.724-.1.33-.338.55-.237.222-.585.299l-.108-.735q.23-.079.362-.27.135-.189.095-.467-.035-.235-.188-.395-.152-.16-.402-.226-.25-.063-.58-.015-.333.049-.558.182-.224.132-.328.327-.101.197-.066.437.025.17.108.295.086.126.222.2.137.072.318.08l.107.735q-.35.023-.643-.114-.291-.137-.486-.419-.193-.282-.253-.692zm.186 5.49q.027-.312.161-.552.136-.238.369-.364.233-.123.555-.094.278.025.45.143.173.12.267.306.093.188.128.415.038.23.042.471.004.291.012.473.01.182.053.268.046.088.158.098h.012q.242.023.387-.109.146-.131.17-.4.025-.285-.084-.463-.11-.175-.273-.248l.167-.713q.292.112.475.326.186.215.26.509.078.293.047.637-.021.237-.098.468-.076.23-.222.413-.143.183-.372.281-.229.1-.556.071l-2.197-.197.066-.743.451.04.002-.026q-.13-.083-.238-.222-.107-.136-.162-.335-.054-.197-.03-.453zm.55.252q-.02.233.056.412.079.18.224.285.146.108.328.124l.387.035q-.027-.04-.045-.13-.018-.087-.028-.195-.01-.11-.015-.215l-.009-.184q-.008-.175-.05-.317-.04-.142-.13-.23-.086-.087-.236-.1-.214-.02-.337.127-.123.146-.144.388z" aria-label="euphonica"/>
  </g>
</svg>
