<?xml version="1.0" encoding="UTF-8"?>
<svg height="16px" viewBox="0 0 16 16" width="16px" xmlns="http://www.w3.org/2000/svg" xmlns:xlink="http://www.w3.org/1999/xlink">
    <defs>
        <filter id="a" height="100%" width="100%" x="0%" y="0%">
            <feColorMatrix color-interpolation-filters="sRGB" values="0 0 0 0 1 0 0 0 0 1 0 0 0 0 1 0 0 0 -1 1"/>
        </filter>
        <filter id="b" height="100%" width="100%" x="0%" y="0%">
            <feImage height="19.2" result="source" width="19.2" xlink:href="#j"/>
            <feImage height="19.2" result="destination" width="19.2" xlink:href="#k"/>
            <feBlend color-interpolation-filters="sRGB" in="source" in2="destination" mode="lighten"/>
        </filter>
        <filter id="c" height="100%" width="100%" x="0%" y="0%">
            <feImage height="19.2" result="source" width="19.2" xlink:href="#l"/>
            <feImage height="19.2" result="destination" width="19.2" xlink:href="#m"/>
            <feComposite color-interpolation-filters="sRGB" in="source" in2="destination" k1="0" k2="1" k3="1" k4="0" operator="arithmetic"/>
        </filter>
        <radialGradient id="d" cx="85.892593" cy="241.373001" gradientTransform="matrix(0.852795 0.34615 -0.551499 1.358702 146.032207 -266.746171)" gradientUnits="userSpaceOnUse" r="14.204772">
            <stop offset="0" stop-color="#ffffff"/>
            <stop offset="1" stop-color="#ffffff" stop-opacity="0"/>
        </radialGradient>
        <clipPath id="e">
            <rect height="152" width="192"/>
        </clipPath>
        <g id="f">
            <rect fill="none" height="19.2" width="19.2"/>
            <rect fill="#ffffff" height="19.2" width="19.2"/>
        </g>
        <mask id="g">
            <use xlink:href="#f"/>
        </mask>
        <mask id="h">
            <use filter="url(#a)" xlink:href="#f"/>
        </mask>
        <mask id="i">
            <rect fill="#ffffff" height="19.2" width="19.2"/>
        </mask>
        <g id="j" mask="url(#i)">
            <g clip-path="url(#e)" transform="matrix(1 0 0 1 -166.4 -14.4)">
                <path d="m 100.550781 59.535156 c -0.085937 0.035156 -0.152343 0.101563 -0.191406 0.1875 l -13.734375 31.34375 s -0.160156 0.375 -0.386719 0.832032 c -0.226562 0.453124 -0.519531 0.996093 -0.738281 1.273437 c -0.429688 0.546875 -0.960938 1.03125 -1.550781 1.390625 c -3.765625 2.296875 -11.136719 5.945312 -11.136719 5.945312 c -0.171875 0.082032 -0.242188 0.292969 -0.15625 0.46875 c 0.085938 0.171876 0.296875 0.242188 0.46875 0.15625 c 0 0 7.359375 -3.636718 11.191406 -5.972656 c 0.667969 -0.40625 1.253906 -0.949218 1.730469 -1.558594 c 0.292969 -0.371093 0.585937 -0.921874 0.816406 -1.394531 c 0.234375 -0.472656 0.402344 -0.859375 0.402344 -0.859375 l 0.003906 -0.003906 l 13.730469 -31.34375 c 0.078125 -0.175781 -0.003906 -0.382812 -0.179688 -0.460938 c -0.085937 -0.035156 -0.179687 -0.039062 -0.269531 -0.003906 z m 0 0" fill="url(#d)"/>
            </g>
        </g>
        <g id="k">
            <path d="m 5.588281 1.6 c -0.074219 0 -0.148437 0.00390625 -0.222656 0.00390625 c -0.058594 0.00390625 -0.117187 0.00781255 -0.175781 0.01171875 c -0.035156 0.0039062 -0.074219 0.0078125 -0.113282 0.0117188 c -0.035156 0.0078124 -0.074218 0.0117187 -0.113281 0.015625 c -0.011719 0.0039062 -0.027343 0.0039062 -0.042969 0.0078124 c -0.039062 0.0078126 -0.074218 0.0117188 -0.113281 0.0195313 c -0.03125 0.0078125 -0.0625 0.015625 -0.09375 0.0195313 c -0.03125 0.0078124 -0.0625 0.0156252 -0.09375 0.0234372 c -0.019531 0.003907 -0.039062 0.011719 -0.058593 0.015625 c -0.035157 0.011719 -0.070313 0.023438 -0.105469 0.03125 c -0.027344 0.011719 -0.054688 0.019532 -0.085938 0.027344 c -0.007812 0.003906 -0.019531 0.011719 -0.03125 0.011719 c -0.039062 0.015625 -0.078125 0.035156 -0.117187 0.050781 c -0.007813 0.003906 -0.015625 0.007812 -0.023438 0.007812 c -0.039062 0.019532 -0.078125 0.035157 -0.113281 0.054688 c -0.007813 0.003906 -0.011719 0.007812 -0.019531 0.011719 c -0.035156 0.019531 -0.070313 0.035156 -0.105469 0.054687 c -0.007813 0.007813 -0.015625 0.011719 -0.027344 0.015625 c -0.027343 0.019531 -0.058593 0.039063 -0.089843 0.054688 c 0 0.003906 -0.003907 0.007812 -0.007813 0.007812 c -0.011719 0.007813 -0.023437 0.019531 -0.039063 0.027344 c -0.023437 0.015625 -0.046874 0.03125 -0.070312 0.050781 l -0.003906 0.003906 c -0.03125 0.023438 -0.066406 0.054688 -0.101563 0.082032 c -0.015625 0.015625 -0.03125 0.03125 -0.050781 0.046875 c -0.015625 0.019531 -0.035156 0.035156 -0.054688 0.054687 c -0.019531 0.015625 -0.035156 0.035156 -0.054687 0.058594 c -0.007813 0.007812 -0.019531 0.015625 -0.027344 0.027344 c -0.019531 0.019531 -0.039062 0.046875 -0.0625 0.070312 c -0.007812 0.011719 -0.019531 0.023438 -0.03125 0.039063 c -0.015625 0.023437 -0.035156 0.046875 -0.054687 0.070312 c -0.003906 0.003907 -0.007813 0.011719 -0.011719 0.019531 c -0.023437 0.03125 -0.046875 0.0625 -0.070313 0.097657 c -0.019531 0.035156 -0.042968 0.070312 -0.0625 0.109375 c -0.019531 0.035156 -0.039062 0.070312 -0.058593 0.109375 c -0.019531 0.035156 -0.039063 0.074219 -0.054688 0.113281 c -0.015625 0.035156 -0.035156 0.074219 -0.050781 0.113281 c -0.011719 0.035157 -0.027344 0.074219 -0.042969 0.113281 c -0.011719 0.039063 -0.027343 0.078126 -0.039062 0.121094 c 0 0.003906 0 0.003906 -0.003907 0.007813 c -0.023437 0.074219 -0.042968 0.152343 -0.0625 0.234375 c -0.015624 0.074218 -0.03125 0.152344 -0.046874 0.230468 c 0 0.007813 -0.003907 0.019532 -0.003907 0.03125 c -0.003906 0.019532 -0.003906 0.042969 -0.007812 0.0625 c -0.007813 0.066407 -0.019531 0.132813 -0.027344 0.199219 c 0 0.023438 0 0.046875 -0.003906 0.070313 c -0.003907 0.042968 -0.007813 0.085937 -0.011719 0.132812 c 0 0 -0.582031 0.246094 -0.832031 0.582032 c -0.246094 0.332031 -0.292969 0.617187 -0.292969 0.617187 s 0.128906 0.171875 0.625 0.128906 c 0.5 -0.042969 0.6875 -0.066406 0.6875 -0.066406 c 0.039062 0.082031 0.082031 0.160156 0.128906 0.234375 c -0.285156 0.476562 -0.777344 1.617188 -0.417968 3.417969 c 0.484374 2.433593 3.035156 5.632812 7.140624 5.46875 c 1.511719 -0.0625 2.527344 -0.285157 3.222657 -0.570313 c 0.46875 1.34375 1.144531 2.683594 1.738281 2.359375 c 0.210938 -0.113281 0.292969 -0.320312 0.292969 -0.585937 c 0.550781 0.738281 1.199219 1.339844 1.917969 1.582031 c 1.796874 0.597656 -0.445313 -2.28125 -2.089844 -4.214844 c -0.050782 0.019531 -0.105469 0.027344 -0.160156 0.03125 c 0 0 -0.59375 0.023438 -1.53125 -0.167969 c -0.933594 -0.195312 -2.25 -0.601562 -3.789063 -1.445312 c -1.714844 -0.941406 -2.351563 -2.539062 -2.230469 -3.949219 c 0.113282 -1.28125 0.785156 -2.449219 1.804688 -2.972656 c -0.109375 -0.433594 -0.355469 -1.207031 -0.859375 -1.890625 c 0 0 0 -0.003906 -0.003907 -0.003906 c -0.027343 -0.042969 -0.0625 -0.085938 -0.097656 -0.125 c -0.03125 -0.042969 -0.066406 -0.085938 -0.105468 -0.128906 v -0.003907 h -0.003907 c -0.035156 -0.042969 -0.070312 -0.082031 -0.109375 -0.121093 c -0.035156 -0.035157 -0.070312 -0.074219 -0.109375 -0.109376 c -0.003906 -0.003906 -0.007812 -0.007812 -0.011719 -0.011718 c -0.042968 -0.039063 -0.082031 -0.074219 -0.128906 -0.113282 c -0.039062 -0.035156 -0.085937 -0.070312 -0.128906 -0.101562 c -0.003906 -0.003906 -0.003906 -0.007812 -0.007812 -0.007812 v -0.003907 c -0.039063 -0.027343 -0.074219 -0.054687 -0.117188 -0.082031 c -0.007812 -0.003906 -0.015625 -0.011719 -0.023438 -0.015625 c -0.007812 -0.003906 -0.011718 -0.007813 -0.019531 -0.011719 c -0.035156 -0.023437 -0.074219 -0.050781 -0.113281 -0.074218 c -0.003906 0 -0.011719 -0.003907 -0.015625 -0.007813 c -0.007813 -0.003906 -0.015625 -0.007813 -0.023437 -0.011719 c -0.039063 -0.023437 -0.082032 -0.046875 -0.128907 -0.070312 c 0 0 -0.003906 -0.003906 -0.007812 -0.003906 c -0.015625 -0.007813 -0.035157 -0.019532 -0.054688 -0.027344 c -0.035156 -0.015625 -0.070312 -0.03125 -0.109375 -0.050782 c -0.03125 -0.011718 -0.0625 -0.023437 -0.09375 -0.039062 c -0.027344 -0.007812 -0.054687 -0.015625 -0.082031 -0.027344 c -0.007813 0 -0.015625 -0.003906 -0.027344 -0.007812 c -0.019531 -0.007813 -0.039062 -0.011719 -0.0625 -0.019532 c -0.015625 -0.003906 -0.03125 -0.011718 -0.046875 -0.015624 c -0.015625 -0.003907 -0.027344 -0.007813 -0.042968 -0.011719 c -0.023438 -0.0078128 -0.046876 -0.011719 -0.070313 -0.0195315 c -0.007813 0 -0.015625 0 -0.023437 -0.0039063 c -0.03125 -0.0078124 -0.066407 -0.015625 -0.097657 -0.0234374 c -0.03125 -0.0039063 -0.066406 -0.0117188 -0.097656 -0.015625 c -0.023437 -0.0039063 -0.046875 -0.0078126 -0.074219 -0.0117188 c -0.007812 0 -0.015625 -0.0039062 -0.027344 -0.0039062 c -0.011718 0 -0.023437 -0.0039063 -0.039062 -0.0039063 c -0.019531 -0.0039063 -0.039062 -0.0039063 -0.0625 -0.0078125 c -0.007812 0 -0.015625 0 -0.023438 -0.0039062 c -0.027343 0 -0.054687 -0.0039063 -0.082031 -0.0039063 c -0.035156 -0.00390625 -0.070312 -0.00390625 -0.109375 -0.0078125 c -0.035156 0 -0.070312 0 -0.109375 0 z m -0.28125 2 c 0.394531 0 0.710938 0.367188 0.707031 0.816406 c 0.003907 0.453125 -0.3125 0.820313 -0.707031 0.820313 c -0.390625 0 -0.707031 -0.367188 -0.707031 -0.820313 c 0 -0.449218 0.316406 -0.816406 0.707031 -0.816406 z m 3.972657 2.164062 c -0.574219 0.378907 -1.066407 1.191407 -1.144532 2.097657 c -0.09375 1.074219 0.308594 2.21875 1.710938 2.984375 c 1.449218 0.796875 2.664062 1.167968 3.511718 1.339844 c 0.433594 0.089843 1.011719 0.46875 0.972657 0.140624 c -0.128907 -1.222656 -0.730469 -3.726562 -2.339844 -4.953124 c -0.859375 -0.65625 -2.710937 -1.609376 -2.710937 -1.609376 z m 0 0"/>
        </g>
        <g id="l" filter="url(#b)" mask="url(#g)">
            <rect height="19.2" width="19.2"/>
        </g>
        <g id="m" mask="url(#h)">
            <use xlink:href="#k"/>
        </g>
    </defs>
    <g filter="url(#c)" transform="matrix(1 0 0 1 -1.6 -1.6)">
        <rect height="19.2" width="19.2"/>
    </g>
</svg>
