<?xml version="1.0" encoding="UTF-8"?>
<!-- Created with Inkscape (http://www.inkscape.org/) -->
<svg width="32" height="32" version="1.1" viewBox="0 0 8.4667 8.4667" xml:space="preserve" xmlns="http://www.w3.org/2000/svg"><g transform="matrix(.14228 0 0 .14228 -12.429 -9.5301)" fill="#222"><path transform="matrix(1 0 -.11739 .99309 0 0)" d="m101.37 75.446-1.2e-4 43.932h4.4855l-7e-5 -5.851h4.0938l1.3514 5.851h4.4855l-9.9303-42.996-2.2e-4 -0.93509h-1.9714zm4.4856 20.356 3.3002 14.29h-3.3006z" style="paint-order:markers stroke fill"/><path d="m137.6 74.924-5.1573 43.628h4.4855l0.68678-5.8105h4.0938l0.66456 5.8105h4.4855l-4.8829-42.699 0.10955-0.92863h-1.9714zm2.096 20.215 1.6226 14.191h-3.3006z" style="paint-order:markers stroke fill"/><path d="m104.8 74.924v43.628h9.1994l0.77773-3.5362h-5.394v-40.092z" style="paint-order:markers stroke fill"/><path d="m127.35 79.65 1.7925-3.6829s-2.2971-1.1354-4.4692-1.0368c-2.1721 0.09869-4.2277 0.90887-5.7392 3.0944-1.5115 2.1856-1.5143 5.0242-1.008 7.6068 0.5063 2.5826 2.3102 6.0596 3.4969 8.271 1.1867 2.2114 3.829 7.0915 4.1218 11.008 0.29275 3.917-0.18728 5.4324-0.57466 6.4079s-1.4144 3.5526-3.8021 3.2706c-2.3877-0.28198-2.8814-1.7792-2.8814-1.7792l-1.7839 3.8226s1.6978 1.9201 5.3442 1.9192c3.6464-7.7e-4 5.5909-2.056 6.7404-4.9353 1.1495-2.8793 1.2116-8.1578 0.52355-11.247-0.68807-3.0896-2.9966-8.6621-4.5052-11.561-1.5085-2.8984-3.5123-6.9228-2.6163-9.3877 0.89595-2.4649 2.3003-2.8977 3.502-2.7157 1.2017 0.18197 1.8587 0.94454 1.8587 0.94454z" style="paint-order:markers stroke fill"/></g></svg>
