<svg width="16" height="16" viewBox="0 0 4.233 4.233" xmlns="http://www.w3.org/2000/svg">
  <path style="fill:#fff;stroke-width:.992186;stroke-linecap:round;paint-order:markers stroke fill;fill-opacity:.5" d="M1.852.53C1.414.53 1.017.706.73.993l1.122 1.123L2.974.994A1.587 1.587 0 0 0 1.852.53zm-.265.528a.265.265 0 1 1 0 .53.265.265 0 0 1 0-.53zm-1.09.232a1.587 1.587 0 0 0 1.355 2.414c.293 0 .578-.083.824-.234L.496 1.29z"/>
  <circle style="fill:#fff;stroke-width:1.32292;stroke-linecap:round;paint-order:markers stroke fill" cx="2.646" cy="2.117" r=".265"/>
  <circle style="fill:#fff;stroke-width:1.32292;stroke-linecap:round;paint-order:markers stroke fill" cx="3.704" cy="2.117" r=".265"/>
  <path d="M.265 0 0 .265l3.969 3.968.264-.264" style="font-weight:800;font-size:3.36371px;font-family:Inter;-inkscape-font-specification:'Inter Ultra-Bold';text-align:center;text-anchor:middle;fill:#fff;fill-opacity:1;stroke-width:.420465;stroke-linecap:round;paint-order:markers stroke fill"/>
</svg>
