<?xml version="1.0" encoding="UTF-8" standalone="no"?>
<!-- Created with Inkscape (http://www.inkscape.org/) -->

<svg
   width="32"
   height="32"
   viewBox="0 0 8.4666666 8.4666666"
   version="1.1"
   id="svg1"
   xml:space="preserve"
   sodipodi:docname="format-cd-symbolic.svg"
   inkscape:version="1.3.2 (091e20ef0f, 2023-11-25, custom)"
   xmlns:inkscape="http://www.inkscape.org/namespaces/inkscape"
   xmlns:sodipodi="http://sodipodi.sourceforge.net/DTD/sodipodi-0.dtd"
   xmlns="http://www.w3.org/2000/svg"
   xmlns:svg="http://www.w3.org/2000/svg"><sodipodi:namedview
     id="namedview1"
     pagecolor="#ffffff"
     bordercolor="#585858"
     borderopacity="1"
     inkscape:showpageshadow="0"
     inkscape:pageopacity="0"
     inkscape:pagecheckerboard="0"
     inkscape:deskcolor="#d1d1d1"
     inkscape:document-units="mm"
     showgrid="true"
     inkscape:zoom="11.313709"
     inkscape:cx="29.87526"
     inkscape:cy="16.307649"
     inkscape:window-width="1920"
     inkscape:window-height="1011"
     inkscape:window-x="0"
     inkscape:window-y="0"
     inkscape:window-maximized="1"
     inkscape:current-layer="layer1"><inkscape:grid
       id="grid1"
       units="px"
       originx="0"
       originy="0"
       spacingx="0.26458333"
       spacingy="0.26458333"
       empcolor="#0099e5"
       empopacity="0.30196078"
       color="#0099e5"
       opacity="0.14901961"
       empspacing="5"
       dotted="false"
       gridanglex="30"
       gridanglez="30"
       visible="true" /></sodipodi:namedview><defs
     id="defs1" /><g
     inkscape:label="Layer 1"
     inkscape:groupmode="layer"
     id="layer1"><path
       id="rect1"
       style="fill:#222222;stroke-width:0.529177;stroke-linecap:square;fill-opacity:1"
       d="M 0.79943441 1.5875 C 0.35969735 1.5875 0.0056844076 1.9415129 0.0056844076 2.38125 L 0.0056844076 6.0854167 C 0.0056844076 6.5251537 0.35969735 6.8791667 0.79943441 6.8791667 L 7.6791178 6.8791667 C 8.1188549 6.8791667 8.4728678 6.5251537 8.4728678 6.0854167 L 8.4728678 2.38125 C 8.4728678 1.9415129 8.1188549 1.5875 7.6791178 1.5875 L 0.79943441 1.5875 z M 2.5755534 2.6458333 C 2.7545373 2.6458333 2.9209546 2.6693471 3.0757812 2.71663 C 3.2317059 2.762907 3.3718298 2.8312438 3.4959106 2.9217855 C 3.6199914 3.0113214 3.7226458 3.1211876 3.8039022 3.2509644 C 3.8851581 3.3797351 3.9402004 3.5273214 3.96875 3.6933146 L 3.4550863 3.6933146 C 3.4353212 3.5927125 3.3983036 3.5041554 3.3444987 3.4276978 C 3.2906938 3.35124 3.225057 3.2861967 3.1470947 3.2328776 C 3.0691324 3.1795585 2.9817245 3.1391173 2.8850952 3.1119548 C 2.789564 3.0847924 2.6878143 3.0711304 2.5802043 3.0711304 C 2.3858476 3.0711304 2.2120007 3.1159532 2.0582723 3.2054891 C 1.9056418 3.295025 1.7844467 3.4267445 1.6955037 3.5997803 C 1.6076588 3.772816 1.5642456 3.9838401 1.5642456 4.2333333 C 1.5642456 4.4848388 1.6076594 4.6969514 1.6955037 4.869987 C 1.7844477 5.0430227 1.9060941 5.1741981 2.0598226 5.2627279 C 2.213551 5.3512578 2.3864934 5.3955363 2.578654 5.3955363 C 2.6851658 5.3955363 2.7859466 5.3824192 2.8814779 5.3562622 C 2.9781078 5.3291002 3.0655151 5.2892032 3.1434774 5.2368896 C 3.2214393 5.1845767 3.2875932 5.1206217 3.3413981 5.0451701 C 3.3963011 4.9687122 3.4342229 4.8812439 3.4550863 4.7826538 L 3.96875 4.7842041 C 3.9412982 4.9361119 3.8881301 5.0760519 3.8090698 5.2038167 C 3.7311076 5.3305753 3.630779 5.4399247 3.5077962 5.5324788 C 3.3859114 5.6240266 3.2462399 5.6950847 3.0892171 5.7453857 C 2.9321945 5.7956864 2.7611256 5.8208333 2.5755534 5.8208333 C 2.2834693 5.8208333 2.0231191 5.7574229 1.7947225 5.6306641 C 1.5663258 5.5028995 1.3859543 5.3203148 1.254187 5.0828939 C 1.1235177 4.8454728 1.0583333 4.5623024 1.0583333 4.2333333 C 1.0583333 3.9033584 1.1239702 3.6201878 1.2557373 3.3837728 C 1.3875045 3.1463517 1.5678762 2.9643117 1.7962728 2.8375529 C 2.0246695 2.7097882 2.2845673 2.6458333 2.5755534 2.6458333 z M 4.7625 2.653068 L 5.8606242 2.653068 C 6.1827904 2.653068 6.4593585 2.716851 6.6905477 2.8437541 C 6.9217368 2.9696248 7.0992114 3.1506075 7.2222982 3.3868734 C 7.3464553 3.6221075 7.4083333 3.904212 7.4083333 4.2333333 C 7.4083333 4.5634865 7.3459761 4.8471466 7.2207479 5.0844442 C 7.0965908 5.3217417 6.9167163 5.50428 6.6812459 5.6322144 C 6.4457756 5.7591169 6.1609743 5.8229004 5.8270345 5.8229004 L 4.7625 5.8229004 L 4.7625 2.653068 z M 5.2585937 3.0711304 L 5.2585937 5.4048381 L 5.799646 5.4048381 C 6.0501008 5.4048381 6.2585145 5.3597211 6.4244141 5.268929 C 6.5903137 5.1771051 6.7140698 5.0443508 6.7964844 4.8710205 C 6.8788993 4.6966583 6.9205078 4.4840433 6.9205078 4.2333333 C 6.9205078 3.9846868 6.8788993 3.7736274 6.7964844 3.600297 C 6.7151401 3.4269666 6.5937838 3.2952496 6.4321655 3.2054891 C 6.2705472 3.1157288 6.0698868 3.0711304 5.8301351 3.0711304 L 5.2585937 3.0711304 z " /></g></svg>
