<?xml version="1.0" encoding="UTF-8" standalone="no"?>
<!-- Created with Inkscape (http://www.inkscape.org/) -->

<svg
   width="32"
   height="32"
   viewBox="0 0 8.4666666 8.4666666"
   version="1.1"
   id="svg1"
   xml:space="preserve"
   sodipodi:docname="format-hires-symbolic.svg"
   inkscape:version="1.3.2 (091e20ef0f, 2023-11-25, custom)"
   xmlns:inkscape="http://www.inkscape.org/namespaces/inkscape"
   xmlns:sodipodi="http://sodipodi.sourceforge.net/DTD/sodipodi-0.dtd"
   xmlns="http://www.w3.org/2000/svg"
   xmlns:svg="http://www.w3.org/2000/svg"><sodipodi:namedview
     id="namedview1"
     pagecolor="#ffffff"
     bordercolor="#585858"
     borderopacity="1"
     inkscape:showpageshadow="0"
     inkscape:pageopacity="0"
     inkscape:pagecheckerboard="0"
     inkscape:deskcolor="#d1d1d1"
     inkscape:document-units="mm"
     showgrid="true"
     inkscape:zoom="22.627417"
     inkscape:cx="14.097941"
     inkscape:cy="14.03165"
     inkscape:window-width="1920"
     inkscape:window-height="1011"
     inkscape:window-x="0"
     inkscape:window-y="0"
     inkscape:window-maximized="1"
     inkscape:current-layer="layer1"><inkscape:grid
       id="grid1"
       units="px"
       originx="0"
       originy="0"
       spacingx="0.26458333"
       spacingy="0.26458333"
       empcolor="#0099e5"
       empopacity="0.30196078"
       color="#0099e5"
       opacity="0.14901961"
       empspacing="5"
       dotted="false"
       gridanglex="30"
       gridanglez="30"
       visible="true" /></sodipodi:namedview><defs
     id="defs1" /><g
     inkscape:label="Layer 1"
     inkscape:groupmode="layer"
     id="layer1"><path
       id="rect1"
       style="fill:#222222;stroke-width:0.529177;stroke-linecap:square;fill-opacity:1"
       d="M 0.79943441 1.5875 C 0.35969779 1.5875 0.0056844076 1.9415133 0.0056844076 2.38125 L 0.0056844076 6.0854167 C 0.0056844076 6.5251532 0.35969779 6.8791667 0.79943441 6.8791667 L 7.6791178 6.8791667 C 8.1188545 6.8791667 8.4728678 6.5251532 8.4728678 6.0854167 L 8.4728678 2.38125 C 8.4728678 1.9415133 8.1188545 1.5875 7.6791178 1.5875 L 0.79943441 1.5875 z M 1.0583333 2.6458333 L 1.6066203 2.6458333 L 1.6066203 4.0255941 L 3.418396 4.0255941 L 3.418396 2.6458333 L 3.96875 2.6458333 L 3.96875 5.8208333 L 3.418396 5.8208333 L 3.418396 4.4364217 L 1.6066203 4.4364217 L 1.6066203 5.8208333 L 1.0583333 5.8208333 L 1.0583333 2.6458333 z M 4.7625 2.6458333 L 6.0409749 2.6458333 C 6.3188561 2.6458333 6.5496141 2.688208 6.7329224 2.7729574 C 6.917398 2.8577066 7.0552635 2.9750123 7.1463338 3.1248739 C 7.2374041 3.2737017 7.2827596 3.4457847 7.2827596 3.6411214 C 7.2827596 3.8354246 7.2365046 4.0064739 7.1442668 4.1542684 C 7.0531965 4.3010292 6.915331 4.4152345 6.7308553 4.4968831 C 6.6961552 4.5123392 6.6593698 4.5262108 6.6213013 4.538741 L 7.4202189 5.8208333 L 6.799585 5.8208333 L 6.0652629 4.6183228 C 6.0563636 4.6184084 6.0484238 4.6193563 6.0394246 4.6193563 L 5.3035522 4.6193563 L 5.3035522 5.8208333 L 4.7625 5.8208333 L 4.7625 2.6458333 z M 5.3035522 3.056661 L 5.3035522 4.2069784 L 5.990332 4.2069784 C 6.1654673 4.2069784 6.3079448 4.1847576 6.4176961 4.1403158 C 6.528615 4.0958745 6.6097192 4.0312787 6.6610921 3.9465291 C 6.7124647 3.8617799 6.73809 3.7599771 6.73809 3.6411214 C 6.73809 3.5212322 6.7115656 3.4173623 6.6590251 3.3295125 C 6.6076525 3.2416629 6.526548 3.1744832 6.4156291 3.1279744 C 6.3058777 3.0804322 6.1617353 3.056661 5.9830973 3.056661 L 5.3035522 3.056661 z " /></g></svg>
