<?xml version="1.0" encoding="UTF-8" standalone="no"?>
<!-- Created with Inkscape (http://www.inkscape.org/) -->

<svg
   width="32"
   height="32"
   viewBox="0 0 8.4666666 8.4666666"
   version="1.1"
   id="svg1"
   xml:space="preserve"
   sodipodi:docname="format-dsd-symbolic.svg"
   inkscape:version="1.3.2 (091e20ef0f, 2023-11-25, custom)"
   xmlns:inkscape="http://www.inkscape.org/namespaces/inkscape"
   xmlns:sodipodi="http://sodipodi.sourceforge.net/DTD/sodipodi-0.dtd"
   xmlns="http://www.w3.org/2000/svg"
   xmlns:svg="http://www.w3.org/2000/svg"><sodipodi:namedview
     id="namedview1"
     pagecolor="#ffffff"
     bordercolor="#585858"
     borderopacity="1"
     inkscape:showpageshadow="0"
     inkscape:pageopacity="0"
     inkscape:pagecheckerboard="0"
     inkscape:deskcolor="#d1d1d1"
     inkscape:document-units="mm"
     showgrid="true"
     inkscape:zoom="22.627417"
     inkscape:cx="12.44066"
     inkscape:cy="9.8332037"
     inkscape:window-width="1920"
     inkscape:window-height="1011"
     inkscape:window-x="0"
     inkscape:window-y="0"
     inkscape:window-maximized="1"
     inkscape:current-layer="layer1"><inkscape:grid
       id="grid1"
       units="px"
       originx="0"
       originy="0"
       spacingx="0.26458333"
       spacingy="0.26458333"
       empcolor="#0099e5"
       empopacity="0.30196078"
       color="#0099e5"
       opacity="0.14901961"
       empspacing="5"
       dotted="false"
       gridanglex="30"
       gridanglez="30"
       visible="true" /></sodipodi:namedview><defs
     id="defs1" /><g
     inkscape:label="Layer 1"
     inkscape:groupmode="layer"
     id="layer1"><path
       id="rect1"
       style="fill:#222222;stroke-width:0.529177;stroke-linecap:square;fill-opacity:1"
       d="M 0.79943441 1.5875 C 0.35969735 1.5875 0.0056844076 1.9415129 0.0056844076 2.38125 L 0.0056844076 6.0854167 C 0.0056844076 6.5251537 0.35969735 6.8791667 0.79943441 6.8791667 L 7.6791178 6.8791667 C 8.1188549 6.8791667 8.4728678 6.5251537 8.4728678 6.0854167 L 8.4728678 2.38125 C 8.4728678 1.9415129 8.1188549 1.5875 7.6791178 1.5875 L 0.79943441 1.5875 z M 4.3511556 2.5910563 C 4.6922281 2.5910563 5.0191623 2.6962034 5.1340535 2.7460856 L 5.1340535 3.2452799 C 5.1340535 3.3014649 5.1002752 3.3063513 5.0689412 3.2685343 C 4.9212752 3.0272265 4.6616062 2.8111979 4.3315186 2.8111979 C 4.0686011 2.8111979 3.8483439 2.8963601 3.8483439 3.1445109 C 3.8483439 3.7279717 5.2823649 3.7464603 5.2823649 4.6679321 C 5.2823649 4.8698025 5.2615917 5.0011919 5.2322388 5.0896118 C 5.2149508 5.1420198 5.1631532 5.1248132 5.1676432 5.0797933 C 5.1728632 5.0347731 5.1774618 4.9968582 5.1774618 4.9154622 C 5.1774618 4.0323474 3.3512166 4.0474985 3.3512166 3.194637 C 3.3512166 2.7617236 3.7821013 2.5910563 4.3511556 2.5910563 z M 0.52658285 2.6670207 L 1.2784749 2.6670207 C 2.146283 2.6670207 2.8313517 2.9371921 2.8313517 4.2276489 C 2.8313517 5.3052507 2.2523113 5.819283 1.2872599 5.819283 L 0.52658285 5.819283 C 0.58799028 5.0452971 0.60779916 3.497372 0.52658285 2.6670207 z M 5.6472005 2.6670207 L 6.3980591 2.6670207 C 7.2660473 2.6670207 7.9519694 2.9371921 7.9519694 4.2276489 C 7.9519694 5.3052507 7.3729289 5.819283 6.4078776 5.819283 L 5.6472005 5.819283 C 5.7087885 5.0452971 5.7280564 3.497372 5.6472005 2.6670207 z M 1.4283366 2.8923299 C 1.265904 2.8923299 1.1816753 2.9554108 1.1735718 3.1646647 C 1.1472798 3.8513116 1.1472798 4.7115654 1.1735718 5.3247396 C 1.1816818 5.5107628 1.2408726 5.600175 1.4283366 5.600175 C 1.9331022 5.600175 2.1915975 5.1170888 2.1915975 4.1677043 C 2.1915975 3.3339315 1.9298608 2.8923299 1.4283366 2.8923299 z M 6.5489543 2.8923299 C 6.3865216 2.8923299 6.3015964 2.9554108 6.2936727 3.1646647 C 6.2675607 3.8513116 6.2675607 4.7115654 6.2936727 5.3247396 C 6.3015927 5.5107628 6.361851 5.600175 6.5489543 5.600175 C 7.0537199 5.600175 7.3122152 5.1170888 7.3122152 4.1677043 C 7.3122152 3.3339315 7.0504785 2.8923299 6.5489543 2.8923299 z M 3.1817179 3.2695679 C 3.1965513 3.2705344 3.21014 3.28395 3.21014 3.3098755 C 3.21014 4.2680838 5.0208822 4.2350825 5.0208822 5.0787598 C 5.0211702 5.5856865 4.7475456 5.8756104 4.0690023 5.8756104 C 3.5883674 5.8756104 3.2975633 5.7767898 3.129008 5.7081787 L 3.129008 5.0663574 C 3.129008 5.0128735 3.1629974 5.0118691 3.1894694 5.060673 C 3.3670289 5.394002 3.6634043 5.6663208 3.9909709 5.6663208 C 4.3451891 5.6663208 4.510319 5.4649718 4.510319 5.159375 C 4.510319 4.4885752 3.1197062 4.4805758 3.1197062 3.5160645 C 3.1197062 3.4438525 3.1375111 3.3300523 3.1439941 3.3057414 C 3.1505706 3.2804399 3.1668846 3.2686014 3.1817179 3.2695679 z " /></g></svg>
