<?xml version="1.0" encoding="UTF-8"?>
<!-- Created with Inkscape (http://www.inkscape.org/) -->
<svg width="32" height="32" version="1.1" viewBox="0 0 8.4667 8.4667" xmlns="http://www.w3.org/2000/svg">
 <g transform="translate(.045859 -.21719)" fill="#222">
  <g transform="matrix(.9737 0 0 .9737 .11011 .11703)" fill="#222" stroke-linecap="round">
   <path d="m3.1777 0.65367c-0.038212 0.010353-0.060896 0.049615-0.050781 0.087891l0.085937 0.32227c0.010353 0.038212 0.049615 0.060897 0.087891 0.050781 0.038212-0.010353 0.060896-0.049615 0.050781-0.087891l-0.085937-0.32226c-0.010353-0.038212-0.049615-0.060897-0.087891-0.050781zm2.0195 0c-0.038276-0.010116-0.077538 0.012569-0.087891 0.050781l-0.085937 0.32227c-0.010116 0.038276 0.012569 0.077538 0.050781 0.087891 0.038276 0.010115 0.077538-0.012569 0.087891-0.050781l0.085937-0.32227c0.010115-0.038276-0.012569-0.077537-0.050781-0.087891zm-2.8965 0.4082c-0.018286-0.00536-0.037952-0.00325-0.054687 0.00586-0.03556 0.019562-0.047932 0.064634-0.027344 0.099609l0.16602 0.28711c0.020185 0.033673 0.063626 0.044967 0.097656 0.025391 0.034382-0.019523 0.046589-0.063118 0.027344-0.097656l-0.16602-0.28711c-0.00944-0.016252-0.024861-0.028168-0.042969-0.033203zm3.7734 0c-0.018108 0.00504-0.033529 0.016951-0.042969 0.033203l-0.16602 0.28711c-0.019245 0.034538-0.00704 0.078133 0.027344 0.097656 0.03403 0.019576 0.07747 0.00828 0.097656-0.025391l0.16602-0.28711c0.020588-0.034975 0.00822-0.080047-0.027344-0.099609-0.016735-0.00911-0.036401-0.01122-0.054687-0.00586zm-5.1699 1.4199c-0.034976-0.020589-0.080047-0.00822-0.099609 0.027344-0.019245 0.034538-0.007038 0.078133 0.027344 0.097656l0.28711 0.16602c0.034538 0.019245 0.078133 0.00704 0.097656-0.027344 0.019576-0.03403 0.00828-0.07747-0.025391-0.097656zm6.5664 0-0.28711 0.16602c-0.033673 0.020185-0.044967 0.063626-0.025391 0.097656 0.019523 0.034382 0.063118 0.046589 0.097656 0.027344l0.28711-0.16602c0.034382-0.019523 0.046589-0.063118 0.027344-0.097656-0.019562-0.03556-0.064634-0.047933-0.09961-0.027344zm-6.9922 0.9082c-0.038276-0.010115-0.077537 0.012569-0.087891 0.050781-0.010116 0.038276 0.012569 0.077538 0.050781 0.087891l0.32227 0.085937c0.038276 0.010115 0.077537-0.012569 0.087891-0.050781 0.010116-0.038276-0.012569-0.077538-0.050781-0.087891zm7.418 0-0.32227 0.085937c-0.038212 0.010353-0.060897 0.049615-0.050781 0.087891 0.010353 0.038212 0.049615 0.060897 0.087891 0.050781l0.32226-0.085937c0.038212-0.010353 0.060897-0.049615 0.050781-0.087891-0.010353-0.038212-0.049615-0.060896-0.08789-0.050781zm-7.1328 1.8965-0.32227 0.085938c-0.038212 0.010353-0.060897 0.049615-0.050781 0.087891 0.010353 0.038212 0.049615 0.060896 0.087891 0.050781l0.32227-0.085938c0.038212-0.010353 0.060897-0.049615 0.050781-0.087891-0.010354-0.038212-0.049615-0.060896-0.087891-0.050781zm6.8477 0c-0.038276-0.010116-0.077538 0.012569-0.087891 0.050781-0.010116 0.038276 0.012569 0.077538 0.050781 0.087891l0.32227 0.085937c0.038276 0.010115 0.077538-0.012569 0.087891-0.050781 0.010116-0.038276-0.012569-0.077538-0.050781-0.087891zm-6.4922 0.8418-0.28711 0.16602c-0.034382 0.019523-0.046588 0.063118-0.027344 0.097656 0.019562 0.03556 0.064634 0.047933 0.099609 0.027344l0.28711-0.16602c0.033673-0.020186 0.044967-0.063626 0.025391-0.097656-0.019523-0.034382-0.063118-0.046589-0.097657-0.027344zm6.1367 0c-0.034538-0.019245-0.078133-0.00704-0.097656 0.027344-0.019576 0.03403-0.00828 0.077471 0.025391 0.097656l0.28711 0.16602c0.034975 0.020588 0.080047 0.00822 0.099609-0.027344 0.019245-0.034538 0.00704-0.078133-0.027344-0.097656z" color="#000000" style="-inkscape-stroke:none"/>
   <path transform="translate(-.072291 .19076)" d="m4.2598-0.087891c-0.050515 4.3833e-4 -0.091359 0.041282-0.091797 0.091797v0.7168c-6.365e-4 0.051276 0.040519 0.093307 0.091797 0.09375 0.051278-4.4293e-4 0.092434-0.042474 0.091797-0.09375v-0.7168c-4.384e-4 -0.050515-0.041282-0.091359-0.091797-0.091797zm-3.0293 1.3184c-0.036096 0.036152-0.036096 0.094707 0 0.13086l0.5 0.5c0.036152 0.036096 0.094707 0.036096 0.13086 0 0.036096-0.036152 0.036096-0.094707 0-0.13086l-0.5-0.5c-0.036152-0.036096-0.094707-0.036096-0.13086 0zm5.9277 0-0.5 0.5c-0.036096 0.036152-0.036096 0.094707 0 0.13086 0.036152 0.036096 0.094707 0.036096 0.13086 0l0.5-0.5c0.036096-0.036152 0.036096-0.094707 0-0.13086-0.036152-0.036096-0.094707-0.036096-0.13086 0zm-7.1543 2.9375c-0.050515 4.384e-4 -0.091359 0.041282-0.091797 0.091797 4.3833e-4 0.050515 0.041282 0.091359 0.091797 0.091797h0.7168c0.051276 6.365e-4 0.093307-0.040519 0.09375-0.091797-4.4293e-4 -0.051278-0.042474-0.092434-0.09375-0.091797zm7.7949 0c-0.051276-6.365e-4 -0.093307 0.040519-0.09375 0.091797-1.889e-4 0.024912 0.00967 0.04885 0.027344 0.066406 0.017875 0.016962 0.041774 0.0261 0.066406 0.025391h0.7168c0.050515-4.383e-4 0.091359-0.041282 0.091797-0.091797 3.415e-4 -0.011988-0.00165-0.023927-0.00586-0.035156-0.00493-0.011787-0.012244-0.022427-0.021484-0.03125-0.00843-0.00832-0.018372-0.014954-0.029297-0.019531-0.011229-0.00421-0.023168-0.0062-0.035156-0.00586zm-6.0684 2.4902-0.5 0.5c-0.036096 0.036152-0.036096 0.094707 0 0.13086 0.036152 0.036096 0.094707 0.036096 0.13086 0l0.5-0.5c0.036096-0.036152 0.036096-0.094707 0-0.13086-0.036152-0.036096-0.094707-0.036096-0.13086 0zm4.9277 0c-0.036096 0.036152-0.036096 0.094707 0 0.13086l0.5 0.5c0.036152 0.036096 0.094707 0.036096 0.13086 0 0.036096-0.036152 0.036096-0.094707 0-0.13086l-0.5-0.5c-0.036152-0.036096-0.094707-0.036096-0.13086 0z" color="#000000" style="-inkscape-stroke:none"/>
  </g>
 </g>
</svg>
