<?xml version="1.0" encoding="UTF-8" standalone="no"?>
<!-- Created with Inkscape (http://www.inkscape.org/) -->

<svg
   width="32"
   height="32"
   viewBox="0 0 8.4666665 8.4666666"
   version="1.1"
   id="svg1"
   sodipodi:docname="knob-ticks.svg"
   inkscape:version="1.3.2 (091e20ef0f, 2023-11-25, custom)"
   xmlns:inkscape="http://www.inkscape.org/namespaces/inkscape"
   xmlns:sodipodi="http://sodipodi.sourceforge.net/DTD/sodipodi-0.dtd"
   xmlns="http://www.w3.org/2000/svg"
   xmlns:svg="http://www.w3.org/2000/svg">
  <sodipodi:namedview
     id="namedview1"
     pagecolor="#505050"
     bordercolor="#eeeeee"
     borderopacity="1"
     inkscape:showpageshadow="0"
     inkscape:pageopacity="0"
     inkscape:pagecheckerboard="0"
     inkscape:deskcolor="#d1d1d1"
     inkscape:document-units="mm"
     inkscape:zoom="11.313709"
     inkscape:cx="20.373514"
     inkscape:cy="13.656"
     inkscape:window-width="1207"
     inkscape:window-height="1011"
     inkscape:window-x="20"
     inkscape:window-y="20"
     inkscape:window-maximized="0"
     inkscape:current-layer="layer1" />
  <defs
     id="defs1">
    <inkscape:path-effect
       effect="curvestitching"
       id="path-effect3"
       is_visible="true"
       lpeversion="1"
       count="9"
       startpoint_edge_variation="0;1"
       startpoint_spacing_variation="0;1"
       endpoint_edge_variation="0;1"
       endpoint_spacing_variation="0;1"
       strokepath="M0,0 L1,0"
       prop_scale="1"
       scale_y_rel="false" />
    <inkscape:path-effect
       effect="curvestitching"
       id="path-effect2"
       is_visible="true"
       lpeversion="1"
       count="25"
       startpoint_edge_variation="0;1"
       startpoint_spacing_variation="0;1"
       endpoint_edge_variation="0;1"
       endpoint_spacing_variation="0;1"
       strokepath="M0,0 L1,0"
       prop_scale="1"
       scale_y_rel="false" />
    <inkscape:path-effect
       effect="curvestitching"
       id="path-effect1"
       is_visible="true"
       lpeversion="1"
       count="25"
       startpoint_edge_variation="0;1"
       startpoint_spacing_variation="0;1"
       endpoint_edge_variation="0;1"
       endpoint_spacing_variation="0;1"
       strokepath="M0,0 L1,0"
       prop_scale="1"
       scale_y_rel="false" />
    <inkscape:path-effect
       effect="curvestitching"
       id="path-effect1-6"
       is_visible="true"
       lpeversion="1"
       count="9"
       startpoint_edge_variation="0;1"
       startpoint_spacing_variation="0;1"
       endpoint_edge_variation="0;1"
       endpoint_spacing_variation="0;1"
       strokepath="M 0,0 H 1"
       prop_scale="1"
       scale_y_rel="false" />
  </defs>
  <g
     inkscape:label="Layer 1"
     inkscape:groupmode="layer"
     id="layer1">
    <g
       id="g3"
       transform="translate(0.04585904,-0.21718775)"
       style="fill:#222222;fill-opacity:1">
      <g
         id="g5"
         transform="matrix(0.97370469,0,0,0.97370469,0.11011095,0.11702784)"
         style="fill:#222222;fill-opacity:1">
        <path
           style="color:#000000;fill:#222222;stroke-linecap:round;-inkscape-stroke:none;fill-opacity:1"
           d="m 3.1777346,0.6536713 c -0.038212,0.0103533 -0.060896,0.049615 -0.050781,0.0878906 l 0.085937,0.3222656 c 0.010353,0.038212 0.049615,0.060897 0.087891,0.050781 0.038212,-0.010353 0.060896,-0.049615 0.050781,-0.087891 L 3.2656252,0.70445254 C 3.255272,0.6662406 3.2160102,0.64355602 3.1777346,0.6536713 Z m 2.0195312,0 c -0.038276,-0.0101155 -0.077538,0.0125691 -0.087891,0.0507812 l -0.085937,0.3222657 c -0.010116,0.038276 0.012569,0.077538 0.050781,0.087891 0.038276,0.010115 0.077538,-0.012569 0.087891,-0.050781 L 5.2480471,0.74156192 C 5.2581624,0.70328628 5.2354778,0.6640245 5.1972658,0.6536713 Z M 2.3007815,1.0618744 c -0.018286,-0.00536 -0.037952,-0.00325 -0.054687,0.00586 -0.03556,0.019562 -0.047932,0.064634 -0.027344,0.099609 l 0.1660157,0.2871094 c 0.020185,0.033673 0.063626,0.044967 0.097656,0.025391 0.034382,-0.019523 0.046589,-0.063118 0.027344,-0.097656 L 2.3437502,1.0950776 c -0.00944,-0.016252 -0.024861,-0.028168 -0.042969,-0.033203 z m 3.7734375,0 c -0.018108,0.00504 -0.033529,0.016951 -0.042969,0.033203 L 5.8652346,1.3821869 c -0.019245,0.034538 -0.00704,0.078133 0.027344,0.097656 0.03403,0.019576 0.07747,0.00828 0.097656,-0.025391 L 6.1562502,1.1673432 c 0.020588,-0.034975 0.00822,-0.080047 -0.027344,-0.099609 -0.016735,-0.00911 -0.036401,-0.01122 -0.054687,-0.00586 z M 0.90429711,2.4817963 c -0.0349755,-0.020589 -0.0800474,-0.00822 -0.0996094,0.027344 -0.0192447,0.034538 -0.007038,0.078133 0.0273438,0.097656 L 1.1191408,2.772812 c 0.034538,0.019245 0.078133,0.00704 0.097656,-0.027344 0.019576,-0.03403 0.00828,-0.07747 -0.025391,-0.097656 z m 6.56640619,0 L 7.183594,2.647812 c -0.033673,0.020185 -0.044967,0.063626 -0.025391,0.097656 0.019523,0.034382 0.063118,0.046589 0.097656,0.027344 l 0.28711,-0.1660157 c 0.034382,-0.019523 0.046589,-0.063118 0.027344,-0.097656 -0.019562,-0.03556 -0.064634,-0.047933 -0.09961,-0.027344 z M 0.47851586,3.3899995 c -0.0382755,-0.010115 -0.0775373,0.012569 -0.0878906,0.050781 -0.0101155,0.038276 0.0125691,0.077538 0.0507812,0.087891 l 0.32226563,0.085937 c 0.0382755,0.010115 0.0775373,-0.012569 0.0878906,-0.050781 0.0101155,-0.038276 -0.0125691,-0.077538 -0.0507813,-0.087891 z m 7.41796874,0 -0.3222656,0.085937 c -0.038212,0.010353 -0.060897,0.049615 -0.050781,0.087891 0.010353,0.038212 0.049615,0.060897 0.087891,0.050781 l 0.322265,-0.085937 c 0.038212,-0.010353 0.060897,-0.049615 0.050781,-0.087891 -0.010353,-0.038212 -0.049615,-0.060896 -0.08789,-0.050781 z M 0.76367211,5.2864838 0.44140648,5.3724213 c -0.0382121,0.010353 -0.0608967,0.049615 -0.0507812,0.087891 0.0103533,0.038212 0.049615,0.060896 0.0878906,0.050781 l 0.32226561,-0.085938 c 0.0382122,-0.010353 0.0608968,-0.049615 0.0507813,-0.087891 -0.0103536,-0.038212 -0.0496153,-0.060896 -0.0878907,-0.050781 z m 6.84765619,0 c -0.038276,-0.010116 -0.077538,0.012569 -0.087891,0.050781 -0.010116,0.038276 0.012569,0.077538 0.050781,0.087891 l 0.3222663,0.085937 c 0.038276,0.010115 0.077538,-0.012569 0.087891,-0.050781 0.010116,-0.038276 -0.012569,-0.077538 -0.050781,-0.087891 z M 1.1191408,6.1282807 0.83203149,6.2942963 c -0.0343818,0.019523 -0.0465885,0.063118 -0.0273438,0.097656 0.019562,0.03556 0.0646339,0.047933 0.0996094,0.027344 L 1.1914065,6.2532807 c 0.033673,-0.020186 0.044967,-0.063626 0.025391,-0.097656 -0.019523,-0.034382 -0.063118,-0.046589 -0.097657,-0.027344 z m 6.1367188,0 c -0.034538,-0.019245 -0.078133,-0.00704 -0.097656,0.027344 -0.019576,0.03403 -0.00828,0.077471 0.025391,0.097656 l 0.2871093,0.1660156 c 0.034975,0.020588 0.080047,0.00822 0.099609,-0.027344 0.019245,-0.034538 0.00704,-0.078133 -0.027344,-0.097656 z"
           id="path4"
           sodipodi:nodetypes="cccccccccccccccccccccccccccccccccccccccccccccccccccccccccccccccccccccccccccccccccccccc" />
        <path
           style="color:#000000;fill:#222222;stroke-linecap:round;-inkscape-stroke:none;fill-opacity:1"
           d="m 4.2597656,-0.08789062 c -0.050515,4.3833e-4 -0.091359,0.04128151 -0.091797,0.09179687 v 0.71679687 c -6.365e-4,0.0512764 0.040519,0.0933071 0.091797,0.09375 0.051278,-4.4293e-4 0.092434,-0.0424736 0.091797,-0.09375 V 0.00390625 C 4.3511242,-0.04660911 4.310281,-0.08745229 4.2597656,-0.08789062 Z M 1.2304687,1.2304687 c -0.036096,0.036152 -0.036096,0.094707 0,0.1308594 l 0.5,0.5 c 0.036152,0.036096 0.094707,0.036096 0.1308594,0 0.036096,-0.036152 0.036096,-0.094707 0,-0.1308594 l -0.5,-0.5 c -0.036152,-0.036096 -0.094707,-0.036096 -0.1308594,0 z m 5.9277344,0 -0.5,0.5 c -0.036096,0.036152 -0.036096,0.094707 0,0.1308594 0.036152,0.036096 0.094707,0.036096 0.1308594,0 l 0.5,-0.5 c 0.036096,-0.036152 0.036096,-0.094707 0,-0.1308594 -0.036152,-0.036096 -0.094707,-0.036096 -0.1308594,0 z m -7.15429685,2.9375 c -0.05051536,4.384e-4 -0.09135854,0.041282 -0.09179687,0.091797 4.3833e-4,0.050515 0.04128151,0.091359 0.09179687,0.091797 h 0.71679687 c 0.0512764,6.365e-4 0.0933071,-0.040519 0.09375,-0.091797 -4.4293e-4,-0.051278 -0.0424736,-0.092434 -0.09375,-0.091797 z m 7.79492185,0 c -0.051276,-6.365e-4 -0.093307,0.040519 -0.09375,0.091797 -1.889e-4,0.024912 0.00967,0.04885 0.027344,0.066406 0.017875,0.016962 0.041774,0.0261 0.066406,0.025391 H 8.515625 c 0.050515,-4.383e-4 0.091359,-0.041282 0.091797,-0.091797 3.415e-4,-0.011988 -0.00165,-0.023927 -0.00586,-0.035156 -0.00493,-0.011787 -0.012244,-0.022427 -0.021484,-0.03125 -0.00843,-0.00832 -0.018372,-0.014954 -0.029297,-0.019531 -0.011229,-0.00421 -0.023168,-0.0062 -0.035156,-0.00586 z m -6.0683594,2.4902344 -0.5,0.5 c -0.036096,0.036152 -0.036096,0.094707 0,0.1308594 0.036152,0.036096 0.094707,0.036096 0.1308594,0 l 0.5,-0.5 c 0.036096,-0.036152 0.036096,-0.094707 0,-0.1308594 -0.036152,-0.036096 -0.094707,-0.036096 -0.1308594,0 z m 4.9277344,0 c -0.036096,0.036152 -0.036096,0.094707 0,0.1308594 l 0.5,0.5 c 0.036152,0.036096 0.094707,0.036096 0.1308594,0 0.036096,-0.036152 0.036096,-0.094707 0,-0.1308594 l -0.5,-0.5 c -0.036152,-0.036096 -0.094707,-0.036096 -0.1308594,0 z"
           id="path5"
           sodipodi:nodetypes="ccccccccccccccccccccccccccccccccccccccccccccccccccccc"
           transform="translate(-0.0722914,0.19075539)" />
      </g>
    </g>
  </g>
</svg>
