<?xml version="1.0" encoding="UTF-8" standalone="no"?>
<svg
   height="16px"
   viewBox="0 0 16 16"
   width="16px"
   version="1.1"
   id="svg3"
   sodipodi:docname="lyrics-off.svg"
   inkscape:version="1.4.2 (ebf0e940d0, 2025-05-08)"
   xmlns:inkscape="http://www.inkscape.org/namespaces/inkscape"
   xmlns:sodipodi="http://sodipodi.sourceforge.net/DTD/sodipodi-0.dtd"
   xmlns="http://www.w3.org/2000/svg"
   xmlns:svg="http://www.w3.org/2000/svg">
  <defs
     id="defs3" />
  <sodipodi:namedview
     id="namedview3"
     pagecolor="#505050"
     bordercolor="#eeeeee"
     borderopacity="1"
     inkscape:showpageshadow="0"
     inkscape:pageopacity="0"
     inkscape:pagecheckerboard="0"
     inkscape:deskcolor="#d1d1d1"
     inkscape:zoom="51.25"
     inkscape:cx="7.9902439"
     inkscape:cy="8"
     inkscape:window-width="1920"
     inkscape:window-height="1011"
     inkscape:window-x="0"
     inkscape:window-y="0"
     inkscape:window-maximized="1"
     inkscape:current-layer="svg3" />
  <path
     id="path3"
     style="fill:#222222;fill-opacity:0.5"
     d="M 4 3 C 3.449219 3 3 3.449219 3 4 C 3 4.0225093 3.0024294 4.0442599 3.0039062 4.0664062 L 3.9335938 4.9960938 C 3.9557401 4.9975706 3.9774907 5 4 5 L 12 5 C 12.550781 5 13 4.550781 13 4 C 13 3.449219 12.550781 3 12 3 L 4 3 z M 3 7 C 2.449219 7 2 7.449219 2 8 C 2 8.550781 2.449219 9 3 9 L 5.8125 9 L 3.8125 7 L 3 7 z M 5.9375 7 L 7.9375 9 L 13 9 C 13.550781 9 14 8.550781 14 8 C 14 7.449219 13.550781 7 13 7 L 5.9375 7 z M 6 11 C 5.449219 11 5 11.449219 5 12 C 5 12.550781 5.449219 13 6 13 L 9.8125 13 L 7.8125 11 L 6 11 z M 9.9375 11 L 10.998047 12.060547 C 10.999258 12.040473 11 12.02037 11 12 C 11 11.449219 10.550781 11 10 11 L 9.9375 11 z " />
  <path
     d="m 1.53125,0.46875 -1.0625,1.0625 14,14 1.0625,-1.0625 z m 0,0"
     id="path2-3"
     style="fill:#222222;fill-opacity:1" />
</svg>
