<?xml version="1.0" encoding="UTF-8"?>
<!-- Created with Inkscape (http://www.inkscape.org/) -->
<svg width="16" height="16" version="1.1" viewBox="0 0 4.2333 4.2333" xmlns="http://www.w3.org/2000/svg">
 <g fill="#222">
  <path d="m3.1758 0.26367c-0.105-1e-8 -0.19817 0.050842-0.25781 0.10352-0.059642 0.052674-0.099213 0.10995-0.13281 0.16992-0.067199 0.11995-0.11289 0.25712-0.1582 0.41602-0.090635 0.31779-0.16525 0.71836-0.24023 1.1152-0.074988 0.39687-0.15132 0.78888-0.23047 1.0664-0.039575 0.13876-0.081253 0.24905-0.11133 0.30273-0.00103 0.00183-9.582e-4 2.674e-4 -0.00195 0.00195h-1.5137a0.26458 0.26458 0 0 0-0.26562 0.26563 0.26458 0.26458 0 0 0 0.26562 0.26367h1.5879c0.105 0 0.19817-0.048888 0.25781-0.10156s0.09726-0.10995 0.13086-0.16992c0.067199-0.11995 0.11484-0.25712 0.16016-0.41602 0.090635-0.31779 0.16525-0.71836 0.24023-1.1152s0.14936-0.79084 0.22852-1.0684c0.039575-0.13876 0.083206-0.24905 0.11328-0.30273 0.0011-0.00196 8.919e-4 -1.6133e-4 0.00195-0.001953h0.45508a0.26458 0.26458 0 0 0 0.26367-0.26367 0.26458 0.26458 0 0 0-0.26367-0.26562z" color="#000000" stroke-linecap="round" style="-inkscape-stroke:none;paint-order:markers stroke fill"/>
  <g transform="matrix(.24694 0 0 .24694 -1.3229 .017639)" fill-opacity=".5">
   <path d="m14.428 8.1151c-0.0039-0.26172-0.11328-0.51562-0.30078-0.70312l-3-2.918c-0.39062-0.375-1.0078-0.375-1.3945 0l-3 2.918c-0.39844 0.38672-0.40625 1.0195-0.019532 1.4141 0.38281 0.39844 1.0156 0.40625 1.4141 0.019532l1.3008-1.2656v4.3365c0 0.55078 0.44922 1 1 1 0.55078 0 1-0.44922 1-1v-4.3365l1.3047 1.2656c0.39453 0.38672 1.0273 0.37891 1.4141-0.015625 0.18359-0.19141 0.28516-0.44922 0.28125-0.71094z" fill-rule="evenodd" stroke-width=".99964"/>
   <path d="m19.286 1h-12.857v2.1429h12.857z" stroke-width="1.2673"/>
  </g>
 </g>
</svg>
