<?xml version="1.0" encoding="UTF-8"?>
<!-- Created with Inkscape (http://www.inkscape.org/) -->
<svg width="32" height="32" version="1.1" viewBox="0 0 8.4667 8.4667" xml:space="preserve" xmlns="http://www.w3.org/2000/svg"><g transform="matrix(.26458 0 0 .26458 -1.5875 -1.6833)"><g transform="translate(-35.528 11.3)"><g transform="matrix(.00027746 0 0 .00027746 57.383 11.056)" fill="#222"><path id="pwlogo" d="m-48643-46769c-2253.2 0-4416.9 896.11-6010.1 2489.4-1593.3 1593.3-2489.4 3756.9-2489.4 6010.1s896.11 4416.9 2489.4 6010.1c455.03 455.03 960.45 845.76 1497.3 1182.4v62203c-536.86 336.68-1042.3 727.4-1497.3 1182.4-1593.3 1593.3-2489.4 3756.9-2489.4 6010.2s896.11 4416.9 2489.4 6010.1c1593.3 1593.3 3756.9 2489.4 6010.1 2489.4s4416.9-896.11 6010.1-2489.4c1593.3-1593.2 2489.4-3756.9 2489.4-6010.1s-896.1-4416.9-2489.4-6010.2c-674.3-674.3-1455.2-1214.7-2297.4-1624.2v-16492l29335-16936v-25706l-6974.9-6974.9c322.29-906.04 501.25-1865 501.25-2844.4 0-2253.2-896.1-4416.9-2489.4-6010.1-1593.3-1593.3-3756.9-2489.4-6010.1-2489.4s-4416.9 896.11-6010.1 2489.4c-1593.3 1593.3-2489.4 3756.9-2489.4 6010.1s896.1 4416.9 2489.4 6010.1c1593.3 1593.3 3756.9 2489.4 6010.1 2489.4 616.34 0 1224.7-73.192 1817.8-203.23l4929.7 4929.7v17550l-21109 12187v-35329c842.17-409.49 1623.1-949.93 2297.4-1624.2 1593.3-1593.3 2489.4-3756.9 2489.4-6010.1s-896.1-4416.9-2489.4-6010.1c-1593.3-1593.3-3756.9-2489.4-6010.1-2489.4zm43891 0c-2253.2 0-4416.9 896.11-6010.1 2489.4-1593.3 1593.3-2489.4 3756.9-2489.4 6010.1s896.11 4416.9 2489.4 6010.1c811.15 811.15 1771.3 1438.5 2814.7 1862v45546l26542-15324v14312l35290-20088v-24935c657.64-373.49 1271.6-828.94 1815.4-1372.8 1593.3-1593.3 2489.4-3756.9 2489.4-6010.1s-896.11-4416.9-2489.4-6010.1c-1593.3-1593.3-3756.9-2489.4-6010.2-2489.4s-4416.9 896.11-6010.1 2489.4c-1593.3 1593.3-2489.4 3756.9-2489.4 6010.1s896.1 4416.9 2489.4 6010.1c589.35 589.35 1258.2 1081.5 1979.3 1470v20055l-18839 10725v-31008c573.62-349.06 1112.9-758.68 1595.3-1241.1 1593.2-1593.3 2489.4-3756.9 2489.4-6010.1s-896.11-4416.9-2489.4-6010.1c-1593.3-1593.3-3756.9-2489.4-6010.2-2489.4-2253.2 0-4416.1 896.11-6009.3 2489.4-1593.3 1593.3-2490.2 3756.9-2490.2 6010.1s896.91 4416.9 2490.2 6010.1c648.23 648.24 1393.9 1173.6 2198.6 1577.6v21007l-18316 10575v-32321c345.23-253.46 673.54-532.97 980-839.43 1593.3-1593.3 2489.4-3756.9 2489.4-6010.1s-896.1-4416.9-2489.4-6010.1c-1593.3-1593.3-3756.9-2489.4-6010.1-2489.4zm-43891 5141c891.71 0 1744 352.68 2374.5 983.22s984.02 1483.6 984.02 2375.3c0 891.71-353.48 1744-984.02 2374.5-630.53 630.53-1482.8 984.02-2374.5 984.02s-1744-353.48-2374.5-984.02c-630.53-630.54-984.02-1482.8-984.02-2374.5 0-891.71 353.49-1744.8 984.02-2375.3 630.53-630.53 1482.8-983.22 2374.5-983.22zm18075 0c891.71 0 1744 352.68 2374.5 983.22s984.02 1483.6 984.02 2375.3c0 891.71-353.49 1744-984.02 2374.5-630.53 630.53-1482.8 984.02-2374.5 984.02-891.71 0-1744-353.48-2374.5-984.02-630.53-630.54-984.02-1482.8-984.02-2374.5 0-891.71 353.49-1744.8 984.02-2375.3s1482.8-983.22 2374.5-983.22zm25817 0c891.71 0 1744 352.68 2374.5 983.22 630.53 630.53 984.02 1483.6 984.02 2375.3 0 891.71-353.48 1744-984.02 2374.5-630.54 630.53-1482.8 984.02-2374.5 984.02-891.71 0-1744-353.48-2374.5-984.02-630.53-630.54-984.02-1482.8-984.02-2374.5 0-891.71 353.49-1744.8 984.02-2375.3s1482.8-983.22 2374.5-983.22zm27157 0c891.71 0 1744.8 352.68 2375.3 983.22 630.54 630.53 983.22 1483.6 983.22 2375.3 0 891.71-352.68 1744-983.22 2374.5-630.53 630.53-1483.6 984.02-2375.3 984.02s-1744-353.48-2374.5-984.02c-630.53-630.54-984.02-1482.8-984.02-2374.5 0-891.71 353.49-1744.8 984.02-2375.3 630.54-630.53 1482.8-983.22 2374.5-983.22zm27284 0c891.71 0 1744.8 352.68 2375.3 983.22 630.54 630.53 983.22 1483.6 983.22 2375.3 0 891.71-352.68 1744-983.22 2374.5-630.53 630.53-1483.6 984.02-2375.3 984.02s-1744-353.48-2374.5-984.02c-630.53-630.54-984.01-1482.8-984.01-2374.5 0-891.71 353.48-1744.8 984.01-2375.3 630.54-630.53 1482.8-983.22 2374.5-983.22zm-98333 76588c891.71 0 1744 353.49 2374.5 984.02s984.02 1482.8 984.02 2374.5-353.48 1744-984.02 2374.5c-630.53 630.53-1482.8 984.01-2374.5 984.01s-1744-353.48-2374.5-984.01c-630.53-630.54-984.02-1482.8-984.02-2374.5 0-891.71 353.49-1744 984.02-2374.5 630.53-630.53 1482.8-984.02 2374.5-984.02z" color="#000000" fill="#222"/></g></g></g></svg>
