<?xml version="1.0" encoding="UTF-8"?>
<!-- Created with Inkscape (http://www.inkscape.org/) -->
<svg width="32" height="32" version="1.1" viewBox="0 0 8.4667 8.4667" xml:space="preserve" xmlns="http://www.w3.org/2000/svg"><g transform="matrix(.26458 0 0 .26458 -1.5875 -1.6833)"><path d="m16.066 6.8657c-5.8901 2.4796-10.066 8.4903-10.066 15.509 0 7.0188 4.1759 13.004 10.066 15.484-3.9239-2.9863-6.5931-8.7939-6.5931-15.484 0-6.6899 2.6692-12.523 6.5931-15.509zm11.99 0c3.9239 2.9863 6.5931 8.8192 6.5931 15.509 0 6.6899-2.6693 12.497-6.5931 15.484 5.3322-2.2448 9.2479-7.3663 9.9438-13.523v-3.9222c-0.69628-6.1604-4.6119-11.303-9.9438-13.548zm-9.8862 5.8372c-3.8234 1.5457-6.5332 5.292-6.5332 9.6673 0 4.3753 2.7098 8.1054 6.5332 9.6512-2.5471-1.8615-4.2794-5.4809-4.2794-9.6512 0-4.1702 1.7323-7.8058 4.2794-9.6673zm7.7822 0c2.5471 1.8615 4.2794 5.4971 4.2794 9.6673 0 4.1702-1.7323 7.7896-4.2794 9.6512 3.8234-1.5457 6.5332-5.2759 6.5332-9.6512 0-4.3753-2.7098-8.1216-6.5332-9.6673zm-3.8923 4.3071c-2.9565 1.09e-4 -5.3532 2.3968-5.3533 5.3533 1.1e-4 2.9565 2.3968 5.3532 5.3533 5.3533 2.9565-1.1e-4 5.3532-2.3968 5.3533-5.3533-1.09e-4 -2.9565-2.3968-5.3532-5.3533-5.3533z" fill="#222" stroke-linecap="round" stroke-width="4.1658" style="paint-order:markers stroke fill"/></g></svg>
