<?xml version="1.0" encoding="UTF-8"?>
<!-- Created with Inkscape (http://www.inkscape.org/) -->
<svg width="16" height="16" version="1.1" viewBox="0 0 4.2333 4.2333" xmlns="http://www.w3.org/2000/svg" xmlns:xlink="http://www.w3.org/1999/xlink">
 <g fill="#222" stroke-linecap="round">
  <path d="m0 0v2.1167h0.52917v-0.6351h0.44855l0.17053 0.31368 0.17467-0.47232 0.098185-0.26458h0.3359c0.063066-0.096067 0.095085-0.21054 0.095085-0.34417 0-0.14084-0.035404-0.26222-0.10594-0.36484-0.070533-0.10328-0.16486-0.19512-0.29507-0.25011-0.12944-0.055666-0.2894-0.099219-0.46767-0.099219h-0.9834zm3.2138 0c-0.15314 0-0.29646 0.023333-0.42943 0.07028-0.13222 0.046947-0.24849 0.11653-0.34933 0.20774-0.1001 0.091212-0.17807 0.20238-0.23409 0.33383-0.055679 0.12997-0.083885 0.27876-0.084233 0.44648h0.56586c-2.8e-6 -0.0010667 0-0.0020313 0-0.0031006 0-0.13145 0.022072-0.24298 0.066146-0.33486 0.044074-0.092553 0.10639-0.16307 0.18707-0.21136 0.081424-0.048289 0.1786-0.085783 0.2899-0.085783 0.10004 0 0.21424 0.002776 0.29921 0.047026 0.084964 0.044253 0.12138 0.10065 0.17932 0.16485h0.52917c-0.017661-0.077227-0.057341-0.14729-0.10594-0.21187-0.0646-0.085847-0.14933-0.16449-0.23823-0.22686-0.088147-0.062373-0.18933-0.11101-0.30437-0.14521-0.11429-0.034204-0.23807-0.05116-0.37104-0.05116zm-2.6846 0.42323h0.33745c0.086035-8e-8 0.1509 0.017296 0.20981 0.038757 0.058907 0.020791 0.10361 0.052315 0.13384 0.094568 0.030228 0.041582 0.045475 0.093899 0.045475 0.15761 0 0.063715-0.015247 0.11619-0.045475 0.1571-0.030229 0.040241-0.065799 0.088835-0.12971 0.12144-0.063909 0.032604-0.19999 0.065629-0.2868 0.065629h-0.26458v-0.6351zm2.6458 0.42323v0.42375h0.52917l-0.0051677 0.043408c0 0.074445-0.018691 0.13931-0.055294 0.1943-0.036604 0.054996-0.090264 0.097976-0.16123 0.12816-0.070219 0.02951-0.15627 0.043925-0.25787 0.043925-0.071709 0-0.13648-0.0098721-0.19482-0.028939l0.16898 0.46509c0.0073059 9.64e-5 0.014338 5.168e-4 0.021704 5.168e-4 0.19721 0 0.37132-0.035516 0.52297-0.10594 0.15239-0.070421 0.27198-0.17085 0.35863-0.30231 0.0874-0.13145 0.13126-0.28944 0.13126-0.47387v-0.38809h-0.79375-0.26458z" stroke-width=".61103" style="paint-order:markers stroke fill"/>
  <path d="m1.668 1.1543-1.1387 3.0781h0.74805l0.24414-0.70117h1.1914l0.24414 0.70117h0.74805l-1.1387-3.0781zm0.4375 0.70312h0.025391l0.40625 1.166h-0.83789z" stroke-width=".54777" style="paint-order:markers stroke fill" xlink:href="#text3"/>
  <path id="text3" d="m1.2766 4.2333h-0.74744l1.0583-2.9104 1.059-6.51e-4 1.0577 2.9111h-0.74744l-0.82637-2.2453h-0.025774zm-0.046715-1.144h1.7655v0.48033h-1.7655z" fill="#222" stroke-linecap="round" stroke-width=".53258" style="paint-order:markers stroke fill" aria-label="A"/>
 </g>
</svg>
