<?xml version="1.0" encoding="UTF-8"?>
<!-- Created with Inkscape (http://www.inkscape.org/) -->
<svg width="16" height="16" version="1.1" viewBox="0 0 4.2333 4.2333" xmlns="http://www.w3.org/2000/svg">
 <g fill="#222" stroke-linecap="round">
  <path d="m0 2.1167v-2.1167h0.98359c0.17827 0 0.33791 0.04369 0.46735 0.099357 0.13022 0.054996 0.2248 0.14645 0.29534 0.24974 0.070533 0.10261 0.1058 0.22434 0.1058 0.36518 0 0.14285-0.036042 0.26425-0.10813 0.36418-0.072083 0.09926-0.15646 0.19155-0.3178 0.27869-0.13254 0.051642-0.18646 0.12452-0.36783 0.12452h-0.79375v-0.42333h0.52917c0.08681 0 0.22264-0.032834 0.28655-0.065438 0.063909-0.032605 0.099782-0.081439 0.13001-0.12168 0.030228-0.040911 0.045342-0.093224 0.045342-0.15694 0-0.063714-0.015114-0.11636-0.045342-0.15794-0.030228-0.042253-0.074796-0.073775-0.1337-0.094566-0.058907-0.021462-0.12416-0.038433-0.21019-0.038433l-0.33725 2.4e-7v1.6933zm1.3082-0.9698 0.54384 0.9698h-0.52917l-0.52917-0.973zm1.9055-1.1469c-0.15314 0-0.29646 0.023333-0.42943 0.07028-0.13222 0.046947-0.24849 0.11632-0.34933 0.20753-0.1001 0.091212-0.17807 0.20258-0.23409 0.33404-0.056026 0.13078-0.084233 0.28037-0.084233 0.44938 0 0.2173 0.04638 0.4052 0.13901 0.56348 0.09263 0.15761 0.22174 0.27904 0.38757 0.36422 0.16584 0.085176 0.35835 0.12774 0.57723 0.12774 0.19721 0 0.37132-0.035412 0.52297-0.10583 0.15239-0.070421 0.27198-0.17116 0.35863-0.30262 0.0874-0.13145 0.13126-0.28933 0.13126-0.47377v-0.38778h-1.0583v0.42333h0.52917l-0.00517 0.043822c0 0.074445-0.018691 0.13931-0.055294 0.1943-0.036604 0.054996-0.090264 0.097563-0.16123 0.12774-0.070219 0.02951-0.15627 0.044235-0.25787 0.044235-0.11504 0-0.21284-0.024628-0.29352-0.073587-0.080675-0.04896-0.1419-0.1201-0.18448-0.21332-0.04258-0.093224-0.064079-0.20563-0.064079-0.33776 0-0.13145 0.022072-0.24339 0.066146-0.33528 0.044074-0.092553 0.10639-0.16296 0.18707-0.21125 0.081424-0.048289 0.1786-0.085576 0.2899-0.085576 0.10004 0 0.21408 0.002424 0.29905 0.046674 0.084964 0.044253 0.12154 0.10079 0.17948 0.16499h0.52917c-0.017661-0.077227-0.057234-0.14709-0.10583-0.21167-0.0646-0.085847-0.14944-0.16459-0.23834-0.22696-0.088148-0.062373-0.18933-0.1109-0.30437-0.14511-0.11429-0.034205-0.23807-0.051263-0.37104-0.051263z" stroke-width=".61103" style="paint-order:markers stroke fill"/>
  <path d="m2.1167 2.3812a2.1167 0.92604 0 0 0-2.1167 0.92604 2.1167 0.92604 0 0 0 2.1167 0.92604 2.1167 0.92604 0 0 0 2.1167-0.92604 2.1167 0.92604 0 0 0-2.1167-0.92604zm0 0.57878a0.79375 0.34727 0 0 1 0.79375 0.34727 0.79375 0.34727 0 0 1-0.79375 0.34727 0.79375 0.34727 0 0 1-0.79375-0.34727 0.79375 0.34727 0 0 1 0.79375-0.34727z" stroke-width=".52917" style="paint-order:markers stroke fill"/>
 </g>
</svg>
