<?xml version="1.0" encoding="UTF-8"?>
<!-- Created with Inkscape (http://www.inkscape.org/) -->
<svg width="16" height="16" version="1.1" viewBox="0 0 4.2333 4.2333" xmlns="http://www.w3.org/2000/svg">
 <path transform="scale(.94988 1.0528)" d="m0.26766 0-0.26766 0.24151 4.189 3.7797 0.26766-0.24151-0.64467-0.58168c0.044571-0.016079 0.087554-0.034776 0.12893-0.05645 0.16043-0.083614 0.28633-0.20323 0.37756-0.35931 0.092011-0.15608 0.13818-0.34354 0.13818-0.56253v-0.46043h-0.83563-0.27854v0.50265h0.55709l-0.0054403 0.052032c0 0.088392-0.019677 0.16541-0.058211 0.23071-0.038535 0.0653-0.095027 0.11584-0.16974 0.15168-0.073924 0.035038-0.16452 0.052523-0.27147 0.052523-0.029898 0-0.058812-0.0018406-0.086501-0.0053996l-0.4374-0.39466c-0.030815-0.098189-0.046786-0.21168-0.046786-0.34164 0-0.15608 0.023237-0.289 0.069636-0.39809 0.046399-0.10989 0.11201-0.1935 0.19694-0.25083 0.08572-0.057336 0.18802-0.10161 0.3052-0.10161 0.10531 0 0.22555 0.0029281 0.31499 0.055468 0.089446 0.052544 0.12778 0.11962 0.18878 0.19586h0.55709c-0.018592-0.091695-0.060366-0.17464-0.11153-0.25132-0.068008-0.10193-0.15721-0.19543-0.2508-0.26949-0.092798-0.074059-0.19932-0.13168-0.32043-0.17229-0.12032-0.040613-0.25063-0.060867-0.39061-0.060867-0.16122 0-0.31211 0.027704-0.45209 0.083447-0.1392 0.055743-0.2616 0.13811-0.36776 0.24641-0.10538 0.1083-0.18746 0.24054-0.24645 0.39662-0.035155 0.092555-0.059728 0.19331-0.073988 0.30188l-0.29704-0.26801c-0.010982-0.13056-0.046808-0.24612-0.10772-0.34606-0.074254-0.12263-0.17356-0.23118-0.31064-0.29648-0.11896-0.057702-0.26223-0.10441-0.42162-0.11535l-0.83835-0.75642zm-0.26766 0.75397v2.5132h0.55709v-0.75397h0.47222l0.36341 0.75397h0.55709l-0.44828-0.90172c0.069534-0.042361 0.12487-0.086015 0.17191-0.13057l-0.43686-0.39417c-0.025262 0.033344-0.055292 0.067126-0.099013 0.092283-0.067281 0.038713-0.21055 0.077557-0.30194 0.077557h-0.27854v-0.75397h0.032098l-0.55709-0.50265h-0.032098z" fill="#222" stroke-linecap="round" stroke-width=".42046" style="paint-order:markers stroke fill"/>
</svg>
