<?xml version="1.0" encoding="UTF-8"?>
<!-- Created with Inkscape (http://www.inkscape.org/) -->
<svg width="16" height="16" version="1.1" viewBox="0 0 4.2333 4.2333" xmlns="http://www.w3.org/2000/svg">
 <g fill="#222" stroke-linecap="round">
  <path transform="scale(.94988 1.0528)" d="m0 0.75397v2.5132h0.55709v-0.75397h0.47222l0.36341 0.75397h0.55709l-0.44828-0.90172c0.061819-0.037661 0.1125-0.076473 0.15614-0.11584l-0.43414-0.39171c-0.022697 0.027481-0.04976 0.054275-0.085957 0.075102-0.067281 0.038713-0.21055 0.077557-0.30194 0.077557h-0.27854v-0.75397l-0.55709-0.50265zm0.55709 0 1.3247 1.1953c0.045185-0.10058 0.068004-0.21611 0.068004-0.34704 0-0.16723-0.037272-0.31209-0.11153-0.43393-0.074255-0.12263-0.17356-0.23118-0.31064-0.29648-0.13627-0.066095-0.30467-0.11781-0.49235-0.11781h-0.4782zm2.8262 0c-0.16122 0-0.3121 0.027704-0.45209 0.083447-0.1392 0.055743-0.2616 0.13811-0.36776 0.24641-0.10538 0.1083-0.18746 0.24054-0.24645 0.39662-0.058982 0.15528-0.088677 0.3329-0.088677 0.53357 0 0.093178 0.0068555 0.1815 0.019585 0.26556l1.093 0.98615c0.016507 5.375e-4 0.032705 0.0014726 0.049507 0.0014726 0.20762 0 0.39091-0.042047 0.55056-0.12566 0.16043-0.083614 0.28633-0.20323 0.37756-0.35931 0.092011-0.15608 0.13818-0.34354 0.13818-0.56253v-0.46043h-0.83563-0.27854v0.50265h0.55709l-0.0054403 0.052032c0 0.088392-0.019677 0.16541-0.058211 0.23071-0.038535 0.0653-0.095026 0.11584-0.16974 0.15168-0.073924 0.035038-0.16452 0.052523-0.27147 0.052523-0.12111 0-0.22407-0.029242-0.30901-0.087374-0.084935-0.058133-0.14939-0.1426-0.19422-0.25329-0.044827-0.11069-0.06746-0.24416-0.06746-0.40104 0-0.15608 0.023236-0.28899 0.069636-0.39809 0.046399-0.10989 0.11201-0.1935 0.19694-0.25083 0.08572-0.057336 0.18802-0.10161 0.3052-0.10161 0.10531 0 0.22555 0.0029299 0.31499 0.055468 0.089447 0.052544 0.12778 0.11962 0.18878 0.19586h0.55709c-0.018593-0.091695-0.060366-0.17464-0.11153-0.25132-0.068008-0.10193-0.15721-0.19543-0.2508-0.26949-0.092798-0.074059-0.19932-0.13168-0.32043-0.17229-0.12032-0.040613-0.25063-0.060867-0.39061-0.060867z" fill-opacity=".5" stroke-width=".42046" style="paint-order:markers stroke fill"/>
  <rect transform="rotate(45)" x=".18709" y="-.18709" width="5.6127" height=".37418" ry="0" stroke-width=".32857" style="paint-order:markers stroke fill"/>
 </g>
</svg>
