<svg xmlns="http://www.w3.org/2000/svg" xmlns:xlink="http://www.w3.org/1999/xlink" width="128" height="128" viewBox="0 0 33.8667 33.8667"><defs><linearGradient id="z"><stop offset="0" style="stop-color:#8e9dad;stop-opacity:1"/><stop offset=".7049" style="stop-color:#65748a;stop-opacity:1"/></linearGradient><linearGradient id="y"><stop offset=".4468" style="stop-color:#5b5b5b;stop-opacity:1"/><stop offset="1" style="stop-color:#797979;stop-opacity:1"/></linearGradient><linearGradient id="x"><stop offset="0" style="stop-color:gray;stop-opacity:1"/><stop offset=".9989" style="stop-color:silver;stop-opacity:1"/></linearGradient><linearGradient id="w"><stop offset="0" style="stop-color:#000;stop-opacity:.38393629"/><stop offset=".8665" style="stop-color:#000;stop-opacity:0"/></linearGradient><linearGradient id="j"><stop offset="0" style="stop-color:#77767b;stop-opacity:1"/><stop offset=".2328" style="stop-color:#c0bfbc;stop-opacity:1"/><stop offset=".698" style="stop-color:#c0bfbc;stop-opacity:1"/><stop offset="1" style="stop-color:#77767b;stop-opacity:1"/></linearGradient><linearGradient id="d"><stop offset="0" style="stop-color:#8b8b8b;stop-opacity:1"/><stop offset="1" style="stop-color:#c8c8c8;stop-opacity:1"/></linearGradient><linearGradient id="n"><stop offset="0" style="stop-color:#62a0ea;stop-opacity:1"/><stop offset="1" style="stop-color:#134684;stop-opacity:1"/></linearGradient><linearGradient id="u"><stop offset="0" style="stop-color:#62a0ea;stop-opacity:1"/><stop offset="1" style="stop-color:#2e65a6;stop-opacity:1"/></linearGradient><linearGradient id="t"><stop offset="0" style="stop-color:#faea83;stop-opacity:1"/><stop offset=".5" style="stop-color:#f7dd3e;stop-opacity:1"/></linearGradient><linearGradient id="v"><stop offset="0" style="stop-color:#f3df5a;stop-opacity:1"/><stop offset=".7857" style="stop-color:#dcb31b;stop-opacity:1"/><stop offset=".9989" style="stop-color:#c9a114;stop-opacity:1"/></linearGradient><linearGradient id="p"><stop offset="0" style="stop-color:#77767b;stop-opacity:1"/><stop offset=".064" style="stop-color:#c0bfbc;stop-opacity:1"/><stop offset=".1984" style="stop-color:#9a9996;stop-opacity:1"/><stop offset=".7795" style="stop-color:#9a9996;stop-opacity:1"/><stop offset=".9261" style="stop-color:#c0bfbc;stop-opacity:1"/><stop offset="1" style="stop-color:#77767b;stop-opacity:1"/></linearGradient><linearGradient id="q"><stop offset="0" style="stop-color:#77767b;stop-opacity:1"/><stop offset=".0946" style="stop-color:#c0bfbc;stop-opacity:1"/><stop offset=".21" style="stop-color:#9a9996;stop-opacity:1"/><stop offset=".6876" style="stop-color:#9a9996;stop-opacity:1"/><stop offset=".9251" style="stop-color:#c0bfbc;stop-opacity:1"/><stop offset="1" style="stop-color:#77767b;stop-opacity:1"/></linearGradient><linearGradient id="s"><stop offset="0" style="stop-color:#9a9996;stop-opacity:1"/><stop offset="1" style="stop-color:#9a9996;stop-opacity:0"/></linearGradient><linearGradient xlink:href="#a" id="A" x1="88.5959" x2="536.5959" y1="-449.394" y2="-449.394" gradientTransform="matrix(.25 0 0 .25 -460.607 395.4264)" gradientUnits="userSpaceOnUse"/><linearGradient id="a"><stop offset="0" style="stop-color:#77767b;stop-opacity:1"/><stop offset=".05" style="stop-color:#c0bfbc;stop-opacity:1"/><stop offset=".0998" style="stop-color:#9a9996;stop-opacity:1"/><stop offset=".9" style="stop-color:#9a9996;stop-opacity:1"/><stop offset=".95" style="stop-color:#c0bfbc;stop-opacity:1"/><stop offset="1" style="stop-color:#77767b;stop-opacity:1"/></linearGradient><linearGradient id="b"><stop offset="0" style="stop-color:#f2f2ec;stop-opacity:1"/><stop offset="1" style="stop-color:#deddda;stop-opacity:1"/></linearGradient><linearGradient xlink:href="#c" id="C" x1="107.9998" x2="116.0004" y1="251.1248" y2="251.1248" gradientTransform="matrix(1.07126 0 0 1 -8.2658 0)" gradientUnits="userSpaceOnUse"/><linearGradient id="c"><stop offset="0" style="stop-color:#77767b;stop-opacity:1"/><stop offset=".05" style="stop-color:#c0bfbc;stop-opacity:1"/><stop offset=".2234" style="stop-color:#9a9996;stop-opacity:1"/><stop offset=".7638" style="stop-color:#9a9996;stop-opacity:1"/><stop offset=".95" style="stop-color:#c0bfbc;stop-opacity:1"/><stop offset="1" style="stop-color:#77767b;stop-opacity:1"/></linearGradient><linearGradient xlink:href="#e" id="F" x1="12" x2="99.2534" y1="242" y2="242" gradientTransform="matrix(.82518 0 0 .948 -191.9022 -98.4164)" gradientUnits="userSpaceOnUse"/><linearGradient id="e"><stop offset="0" style="stop-color:#1f1f1f;stop-opacity:1"/><stop offset=".5" style="stop-color:#7c7c7c;stop-opacity:1"/><stop offset="1" style="stop-color:#1f1f1f;stop-opacity:1"/></linearGradient><linearGradient xlink:href="#f" id="G" x1="55.5" x2="55.5" y1="277" y2="205" gradientTransform="matrix(.81928 0 0 .94444 -191.4699 -98.6111)" gradientUnits="userSpaceOnUse"/><linearGradient id="f"><stop offset="0" style="stop-color:#241f31;stop-opacity:1"/><stop offset=".5" style="stop-color:#5e5c64;stop-opacity:1"/></linearGradient><linearGradient xlink:href="#g" id="H" x1="55.627" x2="55.627" y1="227.7419" y2="254.2886" gradientTransform="matrix(.85252 0 0 .9794 -193.423 -107.0518)" gradientUnits="userSpaceOnUse"/><linearGradient id="g"><stop offset="0" style="stop-color:#333;stop-opacity:1"/><stop offset=".5" style="stop-color:#717171;stop-opacity:1"/><stop offset="1" style="stop-color:#333;stop-opacity:1"/></linearGradient><linearGradient xlink:href="#h" id="I" x1="49.8011" x2="60.405" y1="250" y2="230.2977" gradientTransform="matrix(.89339 0 0 1.02636 -195.6964 -118.3678)" gradientUnits="userSpaceOnUse"/><linearGradient id="h"><stop offset="0" style="stop-color:#f8e45c;stop-opacity:1"/><stop offset="1" style="stop-color:#62a0ea;stop-opacity:1"/></linearGradient><linearGradient xlink:href="#a" id="J" x1="-91" x2="-87" y1="127" y2="127" gradientTransform="matrix(1.5 0 0 1.5 -12.5 -61.5)" gradientUnits="userSpaceOnUse"/><linearGradient xlink:href="#i" id="K" x1="-89" x2="-89" y1="129" y2="125" gradientTransform="matrix(1.5 0 0 1.5 -12.5 -63.5)" gradientUnits="userSpaceOnUse"/><linearGradient id="i"><stop offset="0" style="stop-color:#b3b3b3;stop-opacity:1"/><stop offset="1" style="stop-color:#cdcdcd;stop-opacity:1"/></linearGradient><linearGradient xlink:href="#j" id="L" x1="-90.4412" x2="-87.1042" y1="127.5559" y2="127.5559" gradientTransform="translate(66.077 -43.699) scale(.46302)" gradientUnits="userSpaceOnUse"/><linearGradient xlink:href="#k" id="N" x1="105.0202" x2="105.0202" y1="205.5" y2="212.5" gradientUnits="userSpaceOnUse"/><linearGradient id="k"><stop offset="0" style="stop-color:#474747;stop-opacity:1"/><stop offset="1" style="stop-color:#aaa;stop-opacity:1"/></linearGradient><linearGradient xlink:href="#i" id="S" x1="18.5" x2="18.5" y1="281" y2="272" gradientTransform="matrix(1.0032 0 0 .89917 -.0416 26.8458)" gradientUnits="userSpaceOnUse"/><linearGradient xlink:href="#i" id="T" x1="18.5" x2="18.5" y1="281" y2="272" gradientTransform="matrix(.46816 0 0 .33097 9.8566 189.2407)" gradientUnits="userSpaceOnUse"/><linearGradient xlink:href="#l" id="U" x1="284" x2="300" y1="416" y2="460" gradientUnits="userSpaceOnUse"/><linearGradient id="l"><stop offset="0" style="stop-color:#195eb0;stop-opacity:1"/><stop offset="1" style="stop-color:#62a0ea;stop-opacity:1"/></linearGradient><linearGradient xlink:href="#m" id="V" x1="268" x2="276" y1="420" y2="460" gradientUnits="userSpaceOnUse"/><linearGradient id="m"><stop offset="0" style="stop-color:#134684;stop-opacity:1"/><stop offset="1" style="stop-color:#62a0ea;stop-opacity:1"/></linearGradient><linearGradient xlink:href="#o" id="ab" x1="196.483" x2="193.029" y1="324.2947" y2="327.6747" gradientUnits="userSpaceOnUse"/><linearGradient id="o"><stop offset="0" style="stop-color:#fff;stop-opacity:1"/><stop offset="1" style="stop-color:#fff;stop-opacity:0"/></linearGradient><linearGradient xlink:href="#p" id="ac" x1="-91" x2="-87" y1="127" y2="127" gradientTransform="translate(45.839 -34.4385) scale(.46302)" gradientUnits="userSpaceOnUse"/><linearGradient xlink:href="#q" id="ad" x1="-91" x2="-87" y1="127" y2="127" gradientTransform="matrix(.33073 0 0 .33073 50.2047 -14.8594)" gradientUnits="userSpaceOnUse"/><linearGradient id="r"><stop offset="0" style="stop-color:#c9c9c9;stop-opacity:1"/><stop offset="1" style="stop-color:#888;stop-opacity:1"/></linearGradient><linearGradient xlink:href="#s" id="D" x1="111.7149" x2="111.7149" y1="250.1" y2="251.3064" gradientUnits="userSpaceOnUse"/><linearGradient xlink:href="#w" id="M" x1="24.2132" x2="24.2132" y1="14.6271" y2="16.1892" gradientUnits="userSpaceOnUse"/><linearGradient xlink:href="#x" id="P" x1="102.5587" x2="102.0202" y1="213.2645" y2="218.5" gradientUnits="userSpaceOnUse"/><linearGradient xlink:href="#y" id="O" x1="109.5" x2="110.4223" y1="212.5" y2="215.9628" gradientUnits="userSpaceOnUse"/><radialGradient xlink:href="#b" id="B" cx="-370.6487" cy="181.1006" r="56" fx="-370.6487" fy="181.1006" gradientTransform="matrix(.00144 .96654 -.75 .00088 -246.0983 564.579)" gradientUnits="userSpaceOnUse"/><radialGradient xlink:href="#d" id="E" cx="118.1734" cy="232.0143" r="12.9852" fx="118.1734" fy="232.0143" gradientTransform="matrix(.1329 -1.13438 1.61176 .18884 -244.5586 295.276)" gradientUnits="userSpaceOnUse"/><radialGradient xlink:href="#n" id="Y" cx="250.3828" cy="354.3675" r="37.2805" fx="250.3828" fy="354.3675" gradientTransform="matrix(2.13953 1.5653 -1.23212 1.68413 144.6114 -633.7386)" gradientUnits="userSpaceOnUse"/><radialGradient xlink:href="#r" id="Q" cx="89.6426" cy="245.3224" r="15.3547" fx="89.6426" fy="245.3224" gradientTransform="matrix(-1.16274 -1.83134 1.20835 -.76735 -102.5624 602.4133)" gradientUnits="userSpaceOnUse"/><radialGradient xlink:href="#o" id="R" cx="85.8926" cy="241.373" r="14.2048" fx="85.8926" fy="241.373" gradientTransform="matrix(.8528 .34615 -.5515 1.3587 146.0125 -113.1279)" gradientUnits="userSpaceOnUse"/><radialGradient xlink:href="#t" id="aa" cx="192.5068" cy="314.1746" r="24.2119" fx="192.5068" fy="314.1746" gradientTransform="matrix(1.45183 -.19872 .09951 .72703 -113.5153 118.597)" gradientUnits="userSpaceOnUse"/><radialGradient xlink:href="#u" id="X" cx="184.3686" cy="321.8828" r="28.5" fx="184.3686" fy="321.8828" gradientTransform="matrix(.19797 1.32053 -1.3957 .20923 612.4598 2.6833)" gradientUnits="userSpaceOnUse"/><radialGradient xlink:href="#v" id="W" cx="185.5111" cy="369.3268" r="53.9356" fx="185.5111" fy="369.3268" gradientTransform="matrix(-.362 .94653 -2.00852 -.76815 1005.6372 464.7872)" gradientUnits="userSpaceOnUse"/><radialGradient xlink:href="#z" id="Z" cx="72.7348" cy="324.2025" r="6.9722" fx="72.7348" fy="324.2025" gradientTransform="matrix(1.44548 -.43824 .40803 1.34584 -65.861 -70.8393)" gradientUnits="userSpaceOnUse"/></defs><g style="display:inline;enable-background:new" transform="matrix(.26458 0 0 .26517 118.1253 -43.239)"><rect width="112" height="76" x="-438.4579" y="207.0779" rx="8" ry="7.9822" style="display:inline;opacity:1;vector-effect:none;fill:url(#A);stroke:none;stroke-width:.25;stroke-linecap:butt;stroke-linejoin:miter;stroke-miterlimit:4;stroke-dasharray:none;stroke-dashoffset:0;stroke-opacity:1;marker:none;marker-start:none;marker-mid:none;marker-end:none;paint-order:normal;enable-background:new"/><rect width="112" height="79.902" x="-438.4579" y="195.0779" rx="8" ry="7.9822" style="display:inline;opacity:1;vector-effect:none;fill:url(#B);fill-opacity:1;stroke:none;stroke-width:.243826;stroke-linecap:butt;stroke-linejoin:miter;stroke-miterlimit:4;stroke-dasharray:none;stroke-dashoffset:0;stroke-opacity:1;marker:none;marker-start:none;marker-mid:none;marker-end:none;paint-order:normal;enable-background:new"/></g><g style="display:inline;enable-background:new" transform="matrix(.37046 0 0 .37798 -12.282 -75.723)"><rect width="8.5705" height="28" x="107.4297" y="248" rx="1.4284" ry="1.4" style="fill:url(#C);fill-opacity:1;stroke-width:3.67968;stroke-linecap:round;paint-order:markers stroke fill"/><rect width="8.5704" height="27.3" x="107.4299" y="248.7" rx="1.4284" ry="1.4" style="display:inline;fill:#f9f9f9;stroke-width:3.63336;stroke-linecap:round;paint-order:markers stroke fill;enable-background:new"/><path d="M111.0007 250.1h1.4284v24.5h-1.4284z" style="fill:#000;stroke-width:4.16341;stroke-linecap:round;paint-order:markers stroke fill"/><path d="M111.0007 250.1h1.4284v.7279h-1.4284z" style="display:inline;fill:url(#D);fill-opacity:1;stroke-width:.71764;stroke-linecap:round;paint-order:markers stroke fill;enable-background:new"/></g><g style="display:inline;enable-background:new" transform="matrix(.26458 0 0 .26458 -13.2292 -40.7224)"><path d="M144 199c-4.665 0-8.7083 2.662-10.6938 6.5498C132.4711 207.1852 132 209.0376 132 211h24c0-6.6274-5.3726-12-12-12z" style="display:inline;fill:#9a9996;fill-opacity:1;stroke-width:1.17928;stroke-linecap:round;paint-order:markers stroke fill;enable-background:new"/><circle cx="144" cy="212" r="12" style="display:inline;fill:url(#E);fill-opacity:1;stroke-width:1.17928;stroke-linecap:round;paint-order:markers stroke fill;enable-background:new"/></g><g style="display:inline;enable-background:new" transform="matrix(.26458 0 0 .26458 52.3875 -15.587)"><circle cx="-146" cy="131" r="36" style="display:inline;fill:url(#F);fill-opacity:1;stroke-width:3.53786;stroke-linecap:round;paint-order:markers stroke fill;enable-background:new"/><circle cx="-146" cy="130" r="35" style="display:inline;fill:#ececec;stroke-width:3.43958;stroke-linecap:round;paint-order:markers stroke fill;enable-background:new"/><circle cx="-146" cy="129" r="34" style="display:inline;fill:url(#G);fill-opacity:1;stroke-width:3.34132;stroke-linecap:round;paint-order:markers stroke fill;enable-background:new"/><circle cx="-146" cy="129" r="13" style="display:inline;fill:url(#H);fill-opacity:1;stroke-width:1.27757;stroke-linecap:round;paint-order:markers stroke fill;enable-background:new"/><circle cx="-146" cy="129" r="11" style="display:inline;fill:url(#I);fill-opacity:1;stroke-width:1.08101;stroke-linecap:round;paint-order:markers stroke fill;enable-background:new"/><path d="M-146 126a3 3 0 0 0-2.2324 1H-149v2a3 3 0 0 0 3 3 3 3 0 0 0 3-3v-2h-.7637A3 3 0 0 0-146 126Z" style="fill:url(#J);fill-opacity:1;stroke:none;stroke-width:3;stroke-linecap:round;paint-order:markers stroke fill"/><circle cx="-146" cy="127" r="3" style="display:inline;fill:url(#K);fill-opacity:1;stroke:none;stroke-width:3;stroke-linecap:round;paint-order:markers stroke fill;enable-background:new"/></g><path d="M23.9421 14.1787v.926a.926.926 0 0 0 1.8521 0v-.926z" style="display:inline;fill:url(#L);fill-opacity:1;stroke:none;stroke-width:.926042;stroke-linecap:round;paint-order:markers stroke fill;enable-background:new"/><path d="M23.9421 14.1787v.926a.926.926 0 0 0 1.8521 0v-.926z" style="display:inline;fill:url(#M);fill-opacity:1;stroke:none;stroke-width:.926042;stroke-linecap:round;paint-order:markers stroke fill;enable-background:new"/><g style="display:inline;enable-background:new"><path d="m111 208-3 5-14-5 3-5z" style="display:inline;fill:url(#N);fill-opacity:1;fill-rule:evenodd;stroke:none;stroke-width:4;stroke-linecap:round;stroke-linejoin:round;paint-order:markers stroke fill;enable-background:new" transform="matrix(.26458 0 0 .26458 -2.122 -42.4422)"/><path d="M111 208v7l-3 5v-7z" style="display:inline;fill:url(#O);fill-opacity:1;fill-rule:evenodd;stroke:none;stroke-width:4;stroke-linecap:round;stroke-linejoin:round;paint-order:markers stroke fill;enable-background:new" transform="matrix(.26458 0 0 .26458 -2.122 -42.4422)"/><path d="M108.0202 213v7l-14-5v-7z" style="display:inline;fill:url(#P);fill-opacity:1;fill-rule:evenodd;stroke:none;stroke-width:4;stroke-linecap:round;stroke-linejoin:round;paint-order:markers stroke fill;enable-background:new" transform="matrix(.26458 0 0 .26458 -2.122 -42.4422)"/></g><g style="display:inline;enable-background:new"><path d="M100.455 212.6035a1.5 1.5 0 0 0-.828.795L85.8926 244.744l-.002.004s-.1518.35-.3633.7774c-.2115.4274-.5172.95-.6133 1.0722-.3527.4489-.7851.8438-1.2402 1.1211-3.6626 2.2316-11.0508 5.8965-11.0508 5.8965a1.5 1.5 0 0 0-.6777 2.0098 1.5 1.5 0 0 0 2.0097.6777s7.3403-3.6215 11.2793-6.0215c.801-.488 1.483-1.1224 2.039-1.83.414-.5269.6957-1.095.9435-1.5957.246-.4973.4213-.9045.4238-.9102l.0039-.006 13.7285-31.3379a1.5 1.5 0 0 0-.7715-1.9746 1.5 1.5 0 0 0-1.1465-.0234z" style="color:#000;fill:url(#Q);fill-opacity:1;stroke-linecap:round;-inkscape-stroke:none;paint-order:markers stroke fill" transform="matrix(.26458 0 0 .26458 -2.1061 -42.3412)"/><path d="M100.533 213.1535a.35.35 0 0 0-.1934.1855l-13.7324 31.3438s-.1633.3765-.3887.832c-.2253.4556-.5203.9961-.7382 1.2735-.4307.548-.9612 1.0345-1.5489 1.3925-3.7685 2.2961-11.1367 5.9434-11.1367 5.9434a.35.35 0 0 0-.1582.4687.35.35 0 0 0 .4688.1582s7.3583-3.6372 11.1914-5.9726c.6683-.4072 1.2543-.9502 1.7324-1.5586.2921-.3718.5826-.9219.8164-1.3945.2332-.4714.4014-.8592.4023-.8614l.002-.002 13.7305-31.3437a.35.35 0 0 0-.1797-.461.35.35 0 0 0-.2675-.004z" style="color:#000;mix-blend-mode:lighten;fill:url(#R);fill-opacity:1;stroke-linecap:round;-inkscape-stroke:none;paint-order:markers stroke fill" transform="matrix(.26458 0 0 .26458 -2.1061 -42.3412)"/><path d="m73 253-7.5547 3.7773L64 257v2l2 2 5-1 6-3v-2l-1.7324.2676z" style="fill:#4d4d4d;fill-opacity:1;stroke:none;stroke-width:3;stroke-linecap:round;stroke-dasharray:none;paint-order:markers stroke fill" transform="matrix(.26458 0 0 .26458 -2.1061 -42.3412)"/><path d="m77 255-6 3-5 1-2-2 1-2 8-4 4 4" style="display:inline;fill:#666;fill-opacity:1;stroke:none;stroke-width:3;stroke-linecap:round;stroke-dasharray:none;paint-order:markers stroke fill;enable-background:new" transform="matrix(.26458 0 0 .26458 -2.1061 -42.3412)"/></g><g style="display:inline;enable-background:new"><path d="M13 271.4191h11.0352v8.0925H13z" style="fill:url(#S);fill-opacity:1;stroke-width:5.45595;stroke-linecap:round;paint-order:markers stroke fill" transform="matrix(.35964 0 0 .35964 -1.5004 -72.166)"/><path d="M13 279.4427h11.0352v1.4713H13z" style="display:inline;fill:gray;stroke-width:2.32637;stroke-linecap:round;paint-order:markers stroke fill;enable-background:new" transform="matrix(.35964 0 0 .35964 -1.5004 -72.166)"/></g><g style="display:inline;enable-background:new"><path d="M15.9427 279.2635h5.1498v2.9787h-5.1498z" style="fill:url(#T);fill-opacity:1;stroke-width:2.26124;stroke-linecap:round;paint-order:markers stroke fill" transform="matrix(.41102 0 0 .35964 21.493 -77.6643)"/><path d="M15.9427 282.2323h5.1498v.7357h-5.1498z" style="display:inline;fill:gray;stroke-width:1.12375;stroke-linecap:round;paint-order:markers stroke fill;enable-background:new" transform="matrix(.41102 0 0 .35964 21.493 -77.6643)"/></g><g style="display:inline;enable-background:new" transform="translate(-.5072 -32.0017) scale(.10971)"><path d="M272 407s56 61 32 53c-16.4941-5.498-29.0233-32.1679-33-46-1.8097-6.2945 1-7 1-7z" style="opacity:1;fill:url(#U);fill-opacity:1;stroke:none;stroke-width:3;stroke-linecap:round;stroke-dasharray:none;paint-order:markers stroke fill"/><path d="M268 410s-5.2937-.7195-4 5c3.0384 13.4335 12.2848 40.2083 20 36 11-6-16-41-16-41z" style="opacity:1;fill:url(#V);fill-opacity:1;stroke:none;stroke-width:3;stroke-linecap:round;stroke-dasharray:none;paint-order:markers stroke fill"/><path d="M180 340s-9.8587 11.0999-5.4307 33.2676c4.3926 21.9902 27.4336 50.9394 64.5694 49.4336 46.829-1.899 42.0185-20.8272 42.0185-20.8272l-53.4092-69.417z" style="opacity:1;fill:url(#W);fill-opacity:1;stroke:none;stroke-width:3;stroke-linecap:round;stroke-dasharray:none;paint-order:markers stroke fill"/><path d="M232.389 335.9439s-5.135-32-31-32c-22 0-26 16-26 28 0 12.152 10 20 23 20 10 0 14-7 20-12s14-4 14-4z" style="opacity:1;fill:url(#X);fill-opacity:1;stroke:none;stroke-width:3;stroke-linecap:round;stroke-dasharray:none;paint-order:markers stroke fill"/><path d="M231 332c-20.7445 7.3074-32.1042 48.4673 1.872 67.0967C265.44 416.9538 288 416 288 416s-12.957-33.9214-24-52c-14-22.9197-33-32-33-32z" style="opacity:1;fill:url(#Y);fill-opacity:1;stroke:none;stroke-width:3;stroke-linecap:round;stroke-dasharray:none;paint-order:markers stroke fill"/><ellipse cx="192.8462" cy="327.2013" rx="4.1307" ry="4.7719" style="display:inline;fill:#000;fill-opacity:1;stroke:none;stroke-width:3.41559;stroke-linecap:round;stroke-dasharray:none;paint-order:markers stroke fill;enable-background:new"/><path d="M179.258 334.8333c-3.1347 2.5843-5.8536 4.3592-8.841 4.6772-2.7664.2946-5.101.1837-5.101.1837s1.1577 1.5525 5.671 1.1587c4.5133-.3937 6.1892-.6076 6.1892-.6076s-.1729-1.6514.5793-3.1558c.7488-1.4976 1.4958-2.2494 1.5026-2.2562z" style="opacity:1;fill:#4e596b;fill-opacity:1;stroke:none;stroke-width:2.25664;stroke-linecap:round;stroke-dasharray:none;paint-order:markers stroke fill"/><path d="M175.4983 328.817s-5.2655 2.2566-7.5221 5.2654c-2.2567 3.0089-2.6612 5.6102-2.6612 5.6102s2.3369.1148 5.1033-.1798c2.9873-.318 5.7063-2.0939 8.8411-4.6782 0 0-2.2566-1.6507-3.0089-3.0088-.7522-1.358-.7522-3.0089-.7522-3.0089z" style="display:inline;fill:url(#Z);fill-opacity:1;stroke:none;stroke-width:2.25664;stroke-linecap:round;stroke-dasharray:none;paint-order:markers stroke fill;enable-background:new"/><path d="M201.389 303.9439c-20.1382 0-25.1792 13.4-25.8907 24.873.5851-.6944 10.1063-11.873 16.8906-11.873 7 0 9 5 15 6 4.684.7807 12.4156-2.7059 16.5332-7.127-4.709-6.4097-11.8486-11.873-22.5332-11.873z" style="display:inline;fill:url(#aa);fill-opacity:1;stroke:none;stroke-width:3;stroke-linecap:round;stroke-dasharray:none;paint-order:markers stroke fill;enable-background:new"/><ellipse cx="194.756" cy="325.6747" rx="1.727" ry="2" style="opacity:1;fill:url(#ab);fill-opacity:1;stroke:none;stroke-width:5.53137;stroke-linecap:round;stroke-dasharray:none;paint-order:markers stroke fill"/></g><path d="M3.7042 23.439v.9261a.926.926 0 0 0 1.852 0v-.926z" style="display:inline;fill:url(#ac);fill-opacity:1;stroke:none;stroke-width:.926042;stroke-linecap:round;paint-order:markers stroke fill;enable-background:new"/><circle cx="4.6302" cy="23.4391" r=".926" style="display:inline;fill:#bcbcbc;fill-opacity:1;stroke:none;stroke-width:.926042;stroke-linecap:round;paint-order:markers stroke fill;enable-background:new"/><path d="M20.1083 24.76v2.3832a.6615.6615 0 0 0 1.323 0v-2.3831z" style="display:inline;fill:url(#ad);fill-opacity:1;stroke:none;stroke-width:.661458;stroke-linecap:round;paint-order:markers stroke fill;enable-background:new"/><circle cx="20.7698" cy="24.7601" r=".6615" style="display:inline;fill:#c4c4c4;fill-opacity:1;stroke:none;stroke-width:.661458;stroke-linecap:round;paint-order:markers stroke fill;enable-background:new"/></svg>