<?xml version="1.0" encoding="UTF-8"?>
<svg height="128px" viewBox="0 0 128 128" width="128px" xmlns="http://www.w3.org/2000/svg" xmlns:xlink="http://www.w3.org/1999/xlink">
    <defs>
        <filter id="a" height="100%" width="100%" x="0%" y="0%">
            <feColorMatrix color-interpolation-filters="sRGB" values="0 0 0 0 1 0 0 0 0 1 0 0 0 0 1 0 0 0 -1 1"/>
        </filter>
        <filter id="b" height="100%" width="100%" x="0%" y="0%">
            <feImage height="153.6" result="source" width="153.6" xlink:href="#P"/>
            <feImage height="153.6" result="destination" width="153.6" xlink:href="#Q"/>
            <feBlend color-interpolation-filters="sRGB" in="source" in2="destination" mode="lighten"/>
        </filter>
        <filter id="c" height="100%" width="100%" x="0%" y="0%">
            <feImage height="153.6" result="source" width="153.6" xlink:href="#R"/>
            <feImage height="153.6" result="destination" width="153.6" xlink:href="#S"/>
            <feComposite color-interpolation-filters="sRGB" in="source" in2="destination" k1="0" k2="1" k3="1" k4="0" operator="arithmetic"/>
        </filter>
        <filter id="d" height="100%" width="100%" x="0%" y="0%">
            <feColorMatrix color-interpolation-filters="sRGB" values="0 0 0 0 1 0 0 0 0 1 0 0 0 0 1 0 0 0 1 0"/>
        </filter>
        <filter id="e" height="100%" width="100%" x="0%" y="0%">
            <feImage height="221.184" result="source" width="221.184" xlink:href="#ac"/>
            <feImage height="221.184" result="destination" width="221.184" xlink:href="#ad"/>
            <feBlend color-interpolation-filters="sRGB" in="source" in2="destination" mode="lighten"/>
        </filter>
        <filter id="f" height="100%" width="100%" x="0%" y="0%">
            <feImage height="221.184" result="source" width="221.184" xlink:href="#ae"/>
            <feImage height="221.184" result="destination" width="221.184" xlink:href="#af"/>
            <feComposite color-interpolation-filters="sRGB" in="source" in2="destination" k1="0" k2="1" k3="1" k4="0" operator="arithmetic"/>
        </filter>
        <linearGradient id="g" gradientUnits="userSpaceOnUse" x1="7.9192655" x2="119.9192655" y1="116.097929" y2="116.097929">
            <stop offset="0" stop-color="#77767b"/>
            <stop offset="0.0500001" stop-color="#c0bfbc"/>
            <stop offset="0.099807" stop-color="#9a9996"/>
            <stop offset="0.900001" stop-color="#9a9996"/>
            <stop offset="0.950001" stop-color="#c0bfbc"/>
            <stop offset="1" stop-color="#77767b"/>
        </linearGradient>
        <radialGradient id="h" cx="-370.648682" cy="181.100616" gradientTransform="matrix(0.0014416 1.016108 -0.749999 0.0009234 200.278931 416.549765)" gradientUnits="userSpaceOnUse" r="56.000004">
            <stop offset="0" stop-color="#f2f2ec"/>
            <stop offset="1" stop-color="#deddda"/>
        </radialGradient>
        <linearGradient id="i" gradientUnits="userSpaceOnUse">
            <stop offset="0" stop-color="#77767b"/>
            <stop offset="0.0500001" stop-color="#c0bfbc"/>
            <stop offset="0.223373" stop-color="#9a9996"/>
            <stop offset="0.76381" stop-color="#9a9996"/>
            <stop offset="0.950001" stop-color="#c0bfbc"/>
            <stop offset="1" stop-color="#77767b"/>
        </linearGradient>
        <linearGradient id="j" x1="89" x2="115" xlink:href="#i" y1="43" y2="43"/>
        <radialGradient id="k" cx="110.794197" cy="230.279572" gradientTransform="matrix(-0.00000111 -0.867471 1 0 -128.266754 139.345093)" gradientUnits="userSpaceOnUse" r="12.98516">
            <stop offset="0" stop-color="#f9f9f9"/>
            <stop offset="1" stop-color="#c8c8c8"/>
        </radialGradient>
        <linearGradient id="l" gradientUnits="userSpaceOnUse" x1="12" x2="99.253372" y1="70" y2="70">
            <stop offset="0" stop-color="#1f1f1f"/>
            <stop offset="0.5" stop-color="#7c7c7c"/>
            <stop offset="1" stop-color="#1f1f1f"/>
        </linearGradient>
        <linearGradient id="m" gradientUnits="userSpaceOnUse" x1="55.5" x2="55.5" y1="105" y2="33">
            <stop offset="0" stop-color="#241f31"/>
            <stop offset="0.5" stop-color="#5e5c64"/>
        </linearGradient>
        <linearGradient id="n" x1="97.298302" x2="112.89679" xlink:href="#i" y1="44.171753" y2="44.171753"/>
        <linearGradient id="o" gradientUnits="userSpaceOnUse" x1="110.5" x2="110.5" y1="41.333176" y2="36.995834">
            <stop offset="0" stop-color="#b3b3b3"/>
            <stop offset="1" stop-color="#dadada"/>
        </linearGradient>
        <linearGradient id="p" x1="12.999996" x2="20.999994" xlink:href="#i" y1="90.86828720176" y2="90.86828720176"/>
        <linearGradient id="q" gradientUnits="userSpaceOnUse">
            <stop offset="0" stop-color="#b3b3b3"/>
            <stop offset="1" stop-color="#cdcdcd"/>
        </linearGradient>
        <linearGradient id="r" x1="16.999995" x2="16.999995" xlink:href="#q" y1="94.33817566762" y2="87.3983987359"/>
        <linearGradient id="s" gradientUnits="userSpaceOnUse" x1="55.626953" x2="55.626953" y1="55.741898" y2="82.288589">
            <stop offset="0" stop-color="#333333"/>
            <stop offset="0.5" stop-color="#717171"/>
            <stop offset="1" stop-color="#333333"/>
        </linearGradient>
        <linearGradient id="t" gradientUnits="userSpaceOnUse" x1="49.801144" x2="60.404984" y1="78" y2="58.297729">
            <stop offset="0" stop-color="#f8e45c"/>
            <stop offset="1" stop-color="#62a0ea"/>
        </linearGradient>
        <linearGradient id="u" x1="52.626686" x2="58.626686" xlink:href="#i" y1="70.87854" y2="70.87854"/>
        <linearGradient id="v" x1="55.626686" x2="55.626686" xlink:href="#q" y1="70" y2="64.795166"/>
        <linearGradient id="w" x1="104.79818056199" x2="116.00046387344" xlink:href="#i" y1="69.17029486061" y2="69.17029486061"/>
        <linearGradient id="x" gradientUnits="userSpaceOnUse" x1="109.67734312832" x2="109.67734312832" y1="81.597142" y2="85.797658">
            <stop offset="0" stop-color="#b3b3b3"/>
            <stop offset="0.25" stop-color="#cccccc"/>
            <stop offset="0.820005" stop-color="#b3b3b3"/>
        </linearGradient>
        <linearGradient id="y" x1="20.476061" x2="20.476061" xlink:href="#q" y1="108.640704" y2="96.407148"/>
        <linearGradient id="z" gradientUnits="userSpaceOnUse" x1="107.509918" x2="107.509918" y1="34.366699" y2="41.248123">
            <stop offset="0" stop-color="#474747"/>
            <stop offset="1" stop-color="#aaaaaa"/>
        </linearGradient>
        <linearGradient id="A" gradientUnits="userSpaceOnUse" x1="116.596347" x2="121.155611" y1="34.746751" y2="47.284727">
            <stop offset="0" stop-color="#195eb0"/>
            <stop offset="1" stop-color="#62a0ea"/>
        </linearGradient>
        <linearGradient id="B" gradientUnits="userSpaceOnUse">
            <stop offset="0" stop-color="#134684"/>
            <stop offset="1" stop-color="#62a0ea"/>
        </linearGradient>
        <linearGradient id="C" x1="112.037083" x2="114.316715" xlink:href="#B" y1="35.886567" y2="47.284727"/>
        <linearGradient id="D" gradientUnits="userSpaceOnUse" x1="99.25343333899" x2="100.638923" y1="35.51221694617" y2="17.649511">
            <stop offset="0" stop-color="#f5c211"/>
            <stop offset="1" stop-color="#f8e45c"/>
        </linearGradient>
        <linearGradient id="E" x1="91.70717792411" x2="99.609938" xlink:href="#B" y1="16.69369997022" y2="5.095547"/>
        <radialGradient id="F" cx="248.710815" cy="374.609863" gradientTransform="matrix(0.671712 0.483105 -0.208018 0.289229 11.502511 -201.7337)" r="37.280521" xlink:href="#B"/>
        <linearGradient id="G" gradientUnits="userSpaceOnUse" x1="84.18298" x2="84.18298" y1="13.325559" y2="10.191065">
            <stop offset="0" stop-color="#617086"/>
            <stop offset="1" stop-color="#7b8aa0"/>
        </linearGradient>
        <linearGradient id="H" gradientUnits="userSpaceOnUse" x1="93.81937066876" x2="91.39920505504" y1="13.77503268909" y2="2.93532781792">
            <stop offset="0.5" stop-color="#f8e259"/>
            <stop offset="1" stop-color="#f8e45c"/>
        </linearGradient>
        <linearGradient id="I" gradientUnits="userSpaceOnUse">
            <stop offset="0" stop-color="#ffffff"/>
            <stop offset="1" stop-color="#ffffff" stop-opacity="0"/>
        </linearGradient>
        <linearGradient id="J" x1="91.65802379264" x2="90.67378127848" xlink:href="#I" y1="8.61495267481" y2="9.57809861958"/>
        <radialGradient id="K" cx="89.642632" cy="245.322403" gradientTransform="matrix(-1.162742 -1.831339 1.208355 -0.767346 -102.562363 430.413269)" gradientUnits="userSpaceOnUse" r="15.35467">
            <stop offset="0" stop-color="#c9c9c9"/>
            <stop offset="1" stop-color="#888888"/>
        </radialGradient>
        <g id="L">
            <rect fill="none" height="153.6" width="153.6"/>
            <rect fill="#ffffff" height="153.6" width="153.6"/>
        </g>
        <mask id="M">
            <use xlink:href="#L"/>
        </mask>
        <mask id="N">
            <use filter="url(#a)" xlink:href="#L"/>
        </mask>
        <mask id="O">
            <rect fill="#ffffff" height="153.6" width="153.6"/>
        </mask>
        <g id="P" mask="url(#O)">
            <use transform="matrix(1 0 0 1 4.8 -3.2)" xlink:href="#X"/>
        </g>
        <g id="Q" transform="matrix(1 0 0 1 12.8 12.8)">
            <path d="m 15.917969 40.097656 h 96 c 4.417969 0 8 3.582032 8 8 v 60 c 0 4.417969 -3.582031 8 -8 8 h -96 c -4.417969 0 -8 -3.582031 -8 -8 v -60 c 0 -4.417968 3.582031 -8 8 -8 z m 0 0" fill="url(#g)"/>
            <path d="m 15.917969 28.097656 h 96 c 4.417969 0 8 3.582032 8 8 v 68 c 0 4.417969 -3.582031 8 -8 8 h -96 c -4.417969 0 -8 -3.582031 -8 -8 v -68 c 0 -4.417968 3.582031 -8 8 -8 z m 0 0" fill="url(#h)"/>
            <path d="m 102.011719 30.949219 c -7.171875 0 -12.988281 5.046875 -12.984375 11.269531 h -0.027344 v 0.78125 h 26 v -0.78125 c 0.003906 -6.222656 -5.8125 -11.269531 -12.988281 -11.269531 z m 0 0" fill="url(#j)"/>
            <path d="m 114.996094 43.234375 c 0 6.222656 -5.8125 11.265625 -12.984375 11.265625 s -12.984375 -5.042969 -12.984375 -11.265625 s 5.8125 -11.265625 12.984375 -11.265625 s 12.984375 5.042969 12.984375 11.265625 z m 0 0" fill="url(#k)"/>
            <path d="m 99.253906 70 c 0 20.972656 -19.53125 37.976562 -43.628906 37.976562 c -24.09375 0 -43.625 -17.003906 -43.625 -37.976562 s 19.53125 -37.976562 43.625 -37.976562 c 24.097656 0 43.628906 17.003906 43.628906 37.976562 z m 0 0" fill="url(#l)"/>
            <path d="m 98.007812 69.011719 c 0 20.425781 -19.027343 36.988281 -42.496093 36.988281 s -42.496094 -16.5625 -42.496094 -36.988281 c 0 -20.429688 19.027344 -36.992188 42.496094 -36.992188 s 42.496093 16.5625 42.496093 36.992188 z m 0 0" fill="#ececec"/>
            <path d="m 97 69 c 0 19.882812 -18.582031 36 -41.5 36 s -41.5 -16.117188 -41.5 -36 s 18.582031 -36 41.5 -36 s 41.5 16.117188 41.5 36 z m 0 0" fill="url(#m)"/>
            <path d="m 110.5 38.664062 c -0.582031 0 -1.148438 0.175782 -1.59375 0.5 h -0.90625 v 1.667969 c 0 1.195313 1.121094 2.167969 2.5 2.167969 s 2.5 -0.972656 2.5 -2.167969 v -1.667969 h -0.902344 c -0.449218 -0.324218 -1.015625 -0.5 -1.597656 -0.5 z m 0 0" fill="url(#n)"/>
            <path d="m 113 39.164062 c 0 1.199219 -1.121094 2.167969 -2.5 2.167969 s -2.5 -0.96875 -2.5 -2.167969 c 0 -1.199218 1.121094 -2.167968 2.5 -2.167968 s 2.5 0.96875 2.5 2.167968 z m 0 0" fill="url(#o)"/>
            <path d="m 17 90.070312 c -0.933594 0.003907 -1.835938 0.285157 -2.550781 0.804688 h -1.449219 v 2.664062 c 0 1.917969 1.792969 3.46875 4 3.46875 s 4 -1.550781 4 -3.46875 v -2.664062 h -1.441406 c -0.71875 -0.519531 -1.625 -0.804688 -2.558594 -0.804688 z m 0 0" fill="url(#p)"/>
            <path d="m 21 90.867188 c 0 1.917968 -1.789062 3.472656 -4 3.472656 s -4 -1.554688 -4 -3.472656 c 0 -1.914063 1.789062 -3.46875 4 -3.46875 s 4 1.554687 4 3.46875 z m 0 0" fill="url(#r)"/>
            <path d="m 102.5 38.503906 c -1.28125 0 -2.523438 0.390625 -3.507812 1.101563 h -1.992188 v 3.667969 c 0 2.632812 2.464844 4.769531 5.5 4.769531 s 5.5 -2.136719 5.5 -4.769531 v -3.667969 h -1.984375 c -0.988281 -0.710938 -2.230469 -1.101563 -3.515625 -1.101563 z m 0 0" fill="url(#n)"/>
            <path d="m 108 41.230469 c 0 2.632812 -2.460938 4.769531 -5.5 4.769531 s -5.5 -2.136719 -5.5 -4.769531 c 0 -2.636719 2.460938 -4.773438 5.5 -4.773438 s 5.5 2.136719 5.5 4.773438 z m 0 0" fill="#b3b3b3"/>
            <path d="m 70.875 69.015625 c 0 7.332031 -6.828125 13.273437 -15.25 13.273437 c -8.417969 0 -15.246094 -5.941406 -15.246094 -13.273437 s 6.828125 -13.273437 15.246094 -13.273437 c 8.421875 0 15.25 5.941406 15.25 13.273437 z m 0 0" fill="url(#s)"/>
            <path d="m 67.941406 69.015625 c 0 5.917969 -5.515625 10.71875 -12.316406 10.71875 c -6.796875 0 -12.3125 -4.800781 -12.3125 -10.71875 s 5.515625 -10.71875 12.3125 -10.71875 c 6.800781 0 12.316406 4.800781 12.316406 10.71875 z m 0 0" fill="url(#t)"/>
            <path d="m 55.625 66.800781 c -0.699219 0 -1.375 0.210938 -1.914062 0.601563 h -1.085938 v 2 c 0.003906 1.4375 1.34375 2.601562 3 2.601562 s 3 -1.164062 3 -2.601562 v -2 h -1.082031 c -0.535157 -0.390625 -1.214844 -0.601563 -1.917969 -0.601563 z m 0 0" fill="url(#u)"/>
            <path d="m 58.625 67.398438 c 0 1.4375 -1.339844 2.601562 -3 2.601562 c -1.65625 0 -3 -1.164062 -3 -2.601562 s 1.34375 -2.601563 3 -2.601563 c 1.660156 0 3 1.164063 3 2.601563 z m 0 0" fill="url(#v)"/>
            <path d="m 106.796875 64.796875 h 7.203125 c 1.105469 0 2 0.894531 2 2 v 35.203125 c 0 1.105469 -0.894531 2 -2 2 h -7.203125 c -1.101563 0 -2 -0.894531 -2 -2 v -35.203125 c 0 -1.105469 0.898437 -2 2 -2 z m 0 0" fill="url(#w)"/>
            <path d="m 106.796875 66.195312 h 7.203125 c 1.105469 0 2 0.894532 2 2 v 33.804688 c 0 1.105469 -0.894531 2 -2 2 h -7.203125 c -1.101563 0 -2 -0.894531 -2 -2 v -33.804688 c 0 -1.105468 0.898437 -2 2 -2 z m 0 0" fill="#f9f9f9"/>
            <path d="m 109 67.59375 h 2.800781 v 35.007812 h -2.800781 z m 0 0"/>
            <path d="m 106.199219 81.597656 h 8.402343 v 4.199219 h -8.402343 z m 0 0" fill="url(#x)"/>
            <path d="m 13 96.40625 h 14.953125 v 12.234375 h -14.953125 z m 0 0" fill="url(#y)"/>
            <path d="m 13 108.640625 h 14.953125 v 1.359375 h -14.953125 z m 0 0" fill="#808080"/>
            <path d="m 97.296875 30.671875 v 6.199219 l -2.808594 5.878906 v -6.242188 z m 0 0" fill="#e9e9ff" fill-rule="evenodd"/>
            <path d="m 110.230469 41.578125 l -2.71875 5.914063 l -13.023438 -4.742188 l 2.808594 -5.878906 z m 0 0" fill="#d7d7ff" fill-rule="evenodd"/>
            <path d="m 110.230469 35.378906 v 6.199219 l -12.933594 -4.707031 v -6.199219 z m 0 0" fill="#4d4d9f" fill-rule="evenodd"/>
            <path d="m 110.230469 35.378906 l -2.71875 5.871094 l -13.023438 -4.742188 l 2.808594 -5.835937 z m 0 0" fill="url(#z)" fill-rule="evenodd"/>
            <path d="m 110.230469 35.378906 v 6.199219 l -2.71875 5.914063 v -6.242188 z m 0 0" fill="#808080" fill-rule="evenodd"/>
            <path d="m 107.511719 41.25 v 6.242188 l -13.023438 -4.742188 v -6.242188 z m 0 0" fill="#deddda" fill-rule="evenodd"/>
            <path d="m 113.175781 32.183594 s 15.957031 17.378906 9.121094 15.101562 c -4.703125 -1.566406 -8.273437 -9.167968 -9.40625 -13.109375 c -0.515625 -1.792969 0.285156 -1.992187 0.285156 -1.992187 z m 0 0" fill="url(#A)"/>
            <path d="m 112.035156 33.035156 s -1.507812 -0.203125 -1.136718 1.425782 c 0.863281 3.828124 3.5 11.457031 5.699218 10.257812 c 3.132813 -1.707031 -4.5625 -11.683594 -4.5625 -11.683594 z m 0 0" fill="url(#C)"/>
            <path d="m 86.960938 13.089844 s -2.808594 3.164062 -1.546876 9.480468 c 1.25 6.265626 7.816407 14.515626 18.398438 14.085938 c 13.34375 -0.542969 11.972656 -5.933594 11.972656 -5.933594 l -15.21875 -19.78125 z m 0 0" fill="url(#D)"/>
            <path d="m 101.890625 11.933594 s -1.464844 -9.117188 -8.835937 -9.117188 c -6.269532 0 -7.40625 4.558594 -7.40625 7.976563 c 0 3.464843 2.847656 5.699219 6.550781 5.699219 c 2.851562 0 3.992187 -1.992188 5.699219 -3.417969 c 1.710937 -1.425781 3.992187 -1.140625 3.992187 -1.140625 z m 0 0" fill="url(#E)"/>
            <path d="m 101.492188 10.808594 c -5.910157 2.085937 -9.148438 13.8125 0.535156 19.121094 c 9.28125 5.089843 15.707031 4.816406 15.707031 4.816406 s -3.691406 -9.664063 -6.835937 -14.816406 c -3.992188 -6.53125 -9.40625 -9.121094 -9.40625 -9.121094 z m 0 0" fill="url(#F)"/>
            <path d="m 91.796875 9.441406 c 0 0.753906 -0.523437 1.363282 -1.175781 1.363282 c -0.648438 0 -1.175782 -0.609376 -1.175782 -1.363282 c 0 -0.75 0.527344 -1.359375 1.175782 -1.359375 c 0.652344 0 1.175781 0.609375 1.175781 1.359375 z m 0 0"/>
            <path d="m 85.679688 9.902344 s -1.5 0.644531 -2.144532 1.5 c -0.644531 0.859375 -0.757812 1.601562 -0.757812 1.601562 s 0.328125 0.441406 1.613281 0.328125 c 1.289063 -0.109375 1.765625 -0.171875 1.765625 -0.171875 s -0.050781 -0.46875 0.164062 -0.898437 c 0.214844 -0.429688 0.429688 -0.644531 0.429688 -0.644531 s -0.644531 -0.46875 -0.855469 -0.855469 c -0.214843 -0.386719 -0.214843 -0.859375 -0.214843 -0.859375 z m 0 0" fill="url(#G)"/>
            <path d="m 93.054688 2.816406 c -5.738282 0 -7.171876 3.816406 -7.375 7.085938 c 0.164062 -0.195313 2.878906 -3.382813 4.8125 -3.382813 c 1.992187 0 2.5625 1.425781 4.273437 1.710938 c 1.335937 0.222656 3.539063 -0.773438 4.710937 -2.03125 c -1.339843 -1.828125 -3.375 -3.382813 -6.421874 -3.382813 z m 0 0" fill="url(#H)"/>
            <path d="m 91.65625 9.007812 c 0 0.316407 -0.21875 0.570313 -0.492188 0.570313 c -0.269531 0 -0.492187 -0.253906 -0.492187 -0.570313 c 0 -0.316406 0.222656 -0.570312 0.492187 -0.570312 c 0.273438 0 0.492188 0.253906 0.492188 0.570312 z m 0 0" fill="url(#J)"/>
            <path d="m 100.457031 40.605469 c -0.371093 0.144531 -0.671875 0.429687 -0.832031 0.792969 l -13.734375 31.34375 v 0.007812 s -0.152344 0.347656 -0.363281 0.777344 c -0.210938 0.425781 -0.515625 0.949218 -0.613282 1.070312 c -0.351562 0.449219 -0.785156 0.84375 -1.242187 1.121094 c -3.660156 2.230469 -11.050781 5.898438 -11.050781 5.898438 c -0.738282 0.367187 -1.042969 1.265624 -0.675782 2.007812 c 0.367188 0.742188 1.265626 1.046875 2.007813 0.679688 c 0 0 7.34375 -3.625 11.28125 -6.023438 c 0.800781 -0.488281 1.484375 -1.121094 2.039063 -1.828125 c 0.414062 -0.527344 0.695312 -1.097656 0.941406 -1.597656 c 0.246094 -0.496094 0.421875 -0.90625 0.425781 -0.910157 l 0.003906 -0.007812 l 13.726563 -31.335938 c 0.332031 -0.757812 -0.011719 -1.640624 -0.769532 -1.976562 c -0.363281 -0.15625 -0.777343 -0.164062 -1.148437 -0.023438 z m 0 0" fill="url(#K)"/>
        </g>
        <g id="R" filter="url(#b)" mask="url(#M)">
            <rect height="153.6" width="153.6"/>
        </g>
        <g id="S" mask="url(#N)">
            <use xlink:href="#Q"/>
        </g>
        <linearGradient id="T" x1="81.00145270277" x2="86.11507109375" xlink:href="#i" y1="98.84866129469" y2="98.84866129469"/>
        <linearGradient id="U" x1="83.55826115425" x2="83.55826115425" xlink:href="#q" y1="94.43591269888" y2="90.00000454422"/>
        <radialGradient id="V" cx="85.892593" cy="241.373001" gradientTransform="matrix(0.852795 0.34615 -0.551499 1.358702 154.012527 -269.127892)" r="14.204772" xlink:href="#I"/>
        <clipPath id="W">
            <rect height="152" width="192"/>
        </clipPath>
        <g id="X" clip-path="url(#W)">
            <path d="m 108.53125 57.152344 c -0.085938 0.035156 -0.15625 0.101562 -0.191406 0.1875 l -13.734375 31.34375 s -0.160157 0.375 -0.386719 0.832031 c -0.226562 0.453125 -0.519531 0.996094 -0.738281 1.273437 c -0.429688 0.546876 -0.960938 1.035157 -1.550781 1.390626 c -3.765626 2.296874 -11.136719 5.945312 -11.136719 5.945312 c -0.171875 0.085938 -0.242188 0.292969 -0.15625 0.46875 c 0.085937 0.171875 0.296875 0.242188 0.46875 0.15625 c 0 0 7.359375 -3.636719 11.191406 -5.972656 c 0.667969 -0.40625 1.253906 -0.949219 1.730469 -1.558594 c 0.292968 -0.371094 0.585937 -0.921875 0.816406 -1.394531 c 0.234375 -0.46875 0.402344 -0.859375 0.402344 -0.859375 l 0.003906 -0.003906 l 13.730469 -31.34375 c 0.078125 -0.175782 -0.003907 -0.382813 -0.179688 -0.460938 c -0.085937 -0.035156 -0.179687 -0.035156 -0.269531 -0.003906 z m 0 0" fill="url(#V)"/>
        </g>
        <g id="Y" transform="matrix(1 0 0 1 46.592 46.592)">
            <rect fill="none" height="221.184" width="221.184" x="-46.592" y="-46.592"/>
            <g clip-path="url(#an)">
                <rect fill="#ffffff" height="221.184" width="221.184" x="-46.592" y="-46.592"/>
            </g>
        </g>
        <mask id="Z">
            <use xlink:href="#Y"/>
        </mask>
        <mask id="aa">
            <use filter="url(#a)" xlink:href="#Y"/>
        </mask>
        <mask id="ab">
            <rect fill="#ffffff" height="221.184" width="221.184"/>
        </mask>
        <g id="ac" mask="url(#ab)">
            <use transform="matrix(1 0 0 1 38.592 30.592)" xlink:href="#X"/>
        </g>
        <g id="ad" transform="matrix(1 0 0 1 46.592 46.592)">
            <path d="m 15.917969 40.097656 h 96 c 4.417969 0 8 3.582032 8 8 v 60 c 0 4.417969 -3.582031 8 -8 8 h -96 c -4.417969 0 -8 -3.582031 -8 -8 v -60 c 0 -4.417968 3.582031 -8 8 -8 z m 0 0" fill="url(#g)"/>
            <path d="m 15.917969 28.097656 h 96 c 4.417969 0 8 3.582032 8 8 v 68 c 0 4.417969 -3.582031 8 -8 8 h -96 c -4.417969 0 -8 -3.582031 -8 -8 v -68 c 0 -4.417968 3.582031 -8 8 -8 z m 0 0" fill="url(#h)"/>
            <path d="m 102.011719 30.949219 c -7.171875 0 -12.988281 5.046875 -12.984375 11.269531 h -0.027344 v 0.78125 h 26 v -0.78125 c 0.003906 -6.222656 -5.8125 -11.269531 -12.988281 -11.269531 z m 0 0" fill="url(#j)"/>
            <path d="m 114.996094 43.234375 c 0 6.222656 -5.8125 11.265625 -12.984375 11.265625 s -12.984375 -5.042969 -12.984375 -11.265625 s 5.8125 -11.265625 12.984375 -11.265625 s 12.984375 5.042969 12.984375 11.265625 z m 0 0" fill="url(#k)"/>
            <path d="m 99.253906 70 c 0 20.972656 -19.53125 37.976562 -43.628906 37.976562 c -24.09375 0 -43.625 -17.003906 -43.625 -37.976562 s 19.53125 -37.976562 43.625 -37.976562 c 24.097656 0 43.628906 17.003906 43.628906 37.976562 z m 0 0" fill="url(#l)"/>
            <path d="m 98.007812 69.011719 c 0 20.425781 -19.027343 36.988281 -42.496093 36.988281 s -42.496094 -16.5625 -42.496094 -36.988281 c 0 -20.429688 19.027344 -36.992188 42.496094 -36.992188 s 42.496093 16.5625 42.496093 36.992188 z m 0 0" fill="#ececec"/>
            <path d="m 97 69 c 0 19.882812 -18.582031 36 -41.5 36 s -41.5 -16.117188 -41.5 -36 s 18.582031 -36 41.5 -36 s 41.5 16.117188 41.5 36 z m 0 0" fill="url(#m)"/>
            <path d="m 110.5 38.664062 c -0.582031 0 -1.148438 0.175782 -1.59375 0.5 h -0.90625 v 1.667969 c 0 1.195313 1.121094 2.167969 2.5 2.167969 s 2.5 -0.972656 2.5 -2.167969 v -1.667969 h -0.902344 c -0.449218 -0.324218 -1.015625 -0.5 -1.597656 -0.5 z m 0 0" fill="url(#n)"/>
            <path d="m 113 39.164062 c 0 1.199219 -1.121094 2.167969 -2.5 2.167969 s -2.5 -0.96875 -2.5 -2.167969 c 0 -1.199218 1.121094 -2.167968 2.5 -2.167968 s 2.5 0.96875 2.5 2.167968 z m 0 0" fill="url(#o)"/>
            <path d="m 17 90.070312 c -0.933594 0.003907 -1.835938 0.285157 -2.550781 0.804688 h -1.449219 v 2.664062 c 0 1.917969 1.792969 3.46875 4 3.46875 s 4 -1.550781 4 -3.46875 v -2.664062 h -1.441406 c -0.71875 -0.519531 -1.625 -0.804688 -2.558594 -0.804688 z m 0 0" fill="url(#p)"/>
            <path d="m 21 90.867188 c 0 1.917968 -1.789062 3.472656 -4 3.472656 s -4 -1.554688 -4 -3.472656 c 0 -1.914063 1.789062 -3.46875 4 -3.46875 s 4 1.554687 4 3.46875 z m 0 0" fill="url(#r)"/>
            <path d="m 102.5 38.503906 c -1.28125 0 -2.523438 0.390625 -3.507812 1.101563 h -1.992188 v 3.667969 c 0 2.632812 2.464844 4.769531 5.5 4.769531 s 5.5 -2.136719 5.5 -4.769531 v -3.667969 h -1.984375 c -0.988281 -0.710938 -2.230469 -1.101563 -3.515625 -1.101563 z m 0 0" fill="url(#n)"/>
            <path d="m 108 41.230469 c 0 2.632812 -2.460938 4.769531 -5.5 4.769531 s -5.5 -2.136719 -5.5 -4.769531 c 0 -2.636719 2.460938 -4.773438 5.5 -4.773438 s 5.5 2.136719 5.5 4.773438 z m 0 0" fill="#b3b3b3"/>
            <path d="m 70.875 69.015625 c 0 7.332031 -6.828125 13.273437 -15.25 13.273437 c -8.417969 0 -15.246094 -5.941406 -15.246094 -13.273437 s 6.828125 -13.273437 15.246094 -13.273437 c 8.421875 0 15.25 5.941406 15.25 13.273437 z m 0 0" fill="url(#s)"/>
            <path d="m 67.941406 69.015625 c 0 5.917969 -5.515625 10.71875 -12.316406 10.71875 c -6.796875 0 -12.3125 -4.800781 -12.3125 -10.71875 s 5.515625 -10.71875 12.3125 -10.71875 c 6.800781 0 12.316406 4.800781 12.316406 10.71875 z m 0 0" fill="url(#t)"/>
            <path d="m 55.625 66.800781 c -0.699219 0 -1.375 0.210938 -1.914062 0.601563 h -1.085938 v 2 c 0.003906 1.4375 1.34375 2.601562 3 2.601562 s 3 -1.164062 3 -2.601562 v -2 h -1.082031 c -0.535157 -0.390625 -1.214844 -0.601563 -1.917969 -0.601563 z m 0 0" fill="url(#u)"/>
            <path d="m 58.625 67.398438 c 0 1.4375 -1.339844 2.601562 -3 2.601562 c -1.65625 0 -3 -1.164062 -3 -2.601562 s 1.34375 -2.601563 3 -2.601563 c 1.660156 0 3 1.164063 3 2.601563 z m 0 0" fill="url(#v)"/>
            <path d="m 106.796875 64.796875 h 7.203125 c 1.105469 0 2 0.894531 2 2 v 35.203125 c 0 1.105469 -0.894531 2 -2 2 h -7.203125 c -1.101563 0 -2 -0.894531 -2 -2 v -35.203125 c 0 -1.105469 0.898437 -2 2 -2 z m 0 0" fill="url(#w)"/>
            <path d="m 106.796875 66.195312 h 7.203125 c 1.105469 0 2 0.894532 2 2 v 33.804688 c 0 1.105469 -0.894531 2 -2 2 h -7.203125 c -1.101563 0 -2 -0.894531 -2 -2 v -33.804688 c 0 -1.105468 0.898437 -2 2 -2 z m 0 0" fill="#f9f9f9"/>
            <path d="m 109 67.59375 h 2.800781 v 35.007812 h -2.800781 z m 0 0"/>
            <path d="m 106.199219 81.597656 h 8.402343 v 4.199219 h -8.402343 z m 0 0" fill="url(#x)"/>
            <path d="m 13 96.40625 h 14.953125 v 12.234375 h -14.953125 z m 0 0" fill="url(#y)"/>
            <path d="m 13 108.640625 h 14.953125 v 1.359375 h -14.953125 z m 0 0" fill="#808080"/>
            <path d="m 97.296875 30.671875 v 6.199219 l -2.808594 5.878906 v -6.242188 z m 0 0" fill="#e9e9ff" fill-rule="evenodd"/>
            <path d="m 110.230469 41.578125 l -2.71875 5.914063 l -13.023438 -4.742188 l 2.808594 -5.878906 z m 0 0" fill="#d7d7ff" fill-rule="evenodd"/>
            <path d="m 110.230469 35.378906 v 6.199219 l -12.933594 -4.707031 v -6.199219 z m 0 0" fill="#4d4d9f" fill-rule="evenodd"/>
            <path d="m 110.230469 35.378906 l -2.71875 5.871094 l -13.023438 -4.742188 l 2.808594 -5.835937 z m 0 0" fill="url(#z)" fill-rule="evenodd"/>
            <path d="m 110.230469 35.378906 v 6.199219 l -2.71875 5.914063 v -6.242188 z m 0 0" fill="#808080" fill-rule="evenodd"/>
            <path d="m 107.511719 41.25 v 6.242188 l -13.023438 -4.742188 v -6.242188 z m 0 0" fill="#deddda" fill-rule="evenodd"/>
            <path d="m 113.175781 32.183594 s 15.957031 17.378906 9.121094 15.101562 c -4.703125 -1.566406 -8.273437 -9.167968 -9.40625 -13.109375 c -0.515625 -1.792969 0.285156 -1.992187 0.285156 -1.992187 z m 0 0" fill="url(#A)"/>
            <path d="m 112.035156 33.035156 s -1.507812 -0.203125 -1.136718 1.425782 c 0.863281 3.828124 3.5 11.457031 5.699218 10.257812 c 3.132813 -1.707031 -4.5625 -11.683594 -4.5625 -11.683594 z m 0 0" fill="url(#C)"/>
            <path d="m 86.960938 13.089844 s -2.808594 3.164062 -1.546876 9.480468 c 1.25 6.265626 7.816407 14.515626 18.398438 14.085938 c 13.34375 -0.542969 11.972656 -5.933594 11.972656 -5.933594 l -15.21875 -19.78125 z m 0 0" fill="url(#D)"/>
            <path d="m 101.890625 11.933594 s -1.464844 -9.117188 -8.835937 -9.117188 c -6.269532 0 -7.40625 4.558594 -7.40625 7.976563 c 0 3.464843 2.847656 5.699219 6.550781 5.699219 c 2.851562 0 3.992187 -1.992188 5.699219 -3.417969 c 1.710937 -1.425781 3.992187 -1.140625 3.992187 -1.140625 z m 0 0" fill="url(#E)"/>
            <path d="m 101.492188 10.808594 c -5.910157 2.085937 -9.148438 13.8125 0.535156 19.121094 c 9.28125 5.089843 15.707031 4.816406 15.707031 4.816406 s -3.691406 -9.664063 -6.835937 -14.816406 c -3.992188 -6.53125 -9.40625 -9.121094 -9.40625 -9.121094 z m 0 0" fill="url(#F)"/>
            <path d="m 91.796875 9.441406 c 0 0.753906 -0.523437 1.363282 -1.175781 1.363282 c -0.648438 0 -1.175782 -0.609376 -1.175782 -1.363282 c 0 -0.75 0.527344 -1.359375 1.175782 -1.359375 c 0.652344 0 1.175781 0.609375 1.175781 1.359375 z m 0 0"/>
            <path d="m 85.679688 9.902344 s -1.5 0.644531 -2.144532 1.5 c -0.644531 0.859375 -0.757812 1.601562 -0.757812 1.601562 s 0.328125 0.441406 1.613281 0.328125 c 1.289063 -0.109375 1.765625 -0.171875 1.765625 -0.171875 s -0.050781 -0.46875 0.164062 -0.898437 c 0.214844 -0.429688 0.429688 -0.644531 0.429688 -0.644531 s -0.644531 -0.46875 -0.855469 -0.855469 c -0.214843 -0.386719 -0.214843 -0.859375 -0.214843 -0.859375 z m 0 0" fill="url(#G)"/>
            <path d="m 93.054688 2.816406 c -5.738282 0 -7.171876 3.816406 -7.375 7.085938 c 0.164062 -0.195313 2.878906 -3.382813 4.8125 -3.382813 c 1.992187 0 2.5625 1.425781 4.273437 1.710938 c 1.335937 0.222656 3.539063 -0.773438 4.710937 -2.03125 c -1.339843 -1.828125 -3.375 -3.382813 -6.421874 -3.382813 z m 0 0" fill="url(#H)"/>
            <path d="m 91.65625 9.007812 c 0 0.316407 -0.21875 0.570313 -0.492188 0.570313 c -0.269531 0 -0.492187 -0.253906 -0.492187 -0.570313 c 0 -0.316406 0.222656 -0.570312 0.492187 -0.570312 c 0.273438 0 0.492188 0.253906 0.492188 0.570312 z m 0 0" fill="url(#J)"/>
            <path d="m 100.457031 40.605469 c -0.371093 0.144531 -0.671875 0.429687 -0.832031 0.792969 l -13.734375 31.34375 v 0.007812 s -0.152344 0.347656 -0.363281 0.777344 c -0.210938 0.425781 -0.515625 0.949218 -0.613282 1.070312 c -0.351562 0.449219 -0.785156 0.84375 -1.242187 1.121094 c -3.660156 2.230469 -11.050781 5.898438 -11.050781 5.898438 c -0.738282 0.367187 -1.042969 1.265624 -0.675782 2.007812 c 0.367188 0.742188 1.265626 1.046875 2.007813 0.679688 c 0 0 7.34375 -3.625 11.28125 -6.023438 c 0.800781 -0.488281 1.484375 -1.121094 2.039063 -1.828125 c 0.414062 -0.527344 0.695312 -1.097656 0.941406 -1.597656 c 0.246094 -0.496094 0.421875 -0.90625 0.425781 -0.910157 l 0.003906 -0.007812 l 13.726563 -31.335938 c 0.332031 -0.757812 -0.011719 -1.640624 -0.769532 -1.976562 c -0.363281 -0.15625 -0.777343 -0.164062 -1.148437 -0.023438 z m 0 0" fill="url(#K)"/>
        </g>
        <g id="ae" filter="url(#e)" mask="url(#Z)">
            <rect height="221.184" width="221.184"/>
        </g>
        <g id="af" mask="url(#aa)">
            <use xlink:href="#ad"/>
        </g>
        <clipPath id="ag">
            <rect height="128" width="128"/>
        </clipPath>
        <clipPath id="ah">
            <rect height="128" width="128"/>
        </clipPath>
        <mask id="ai">
            <g filter="url(#d)">
                <g clip-path="url(#ah)" filter="url(#d)">
                    <g clip-path="url(#ag)">
                        <g filter="url(#f)" transform="matrix(1 0 0 1 -46.592 -46.592)">
                            <rect height="221.184" width="221.184"/>
                        </g>
                        <path d="m 73 81 l -7.554688 3.777344 l -1.445312 0.222656 v 2 l 2 2 l 5 -1 l 6 -3 v -2 l -1.734375 0.269531 z m 0 0" fill="#4d4d4d"/>
                        <path d="m 77 83 l -6 3 l -5 1 l -2 -2 l 1 -2 l 8 -4 z" fill="#666666"/>
                        <path d="m 81 92.027344 v 9.117187 c 0 1.226563 1.144531 2.21875 2.558594 2.21875 c 1.410156 0 2.554687 -0.992187 2.554687 -2.21875 v -9.117187 z m 0 0" fill="url(#T)"/>
                        <path d="m 86.113281 92.21875 c 0 1.222656 -1.144531 2.21875 -2.554687 2.21875 c -1.414063 0 -2.558594 -0.996094 -2.558594 -2.21875 c 0 -1.226562 1.144531 -2.21875 2.558594 -2.21875 c 1.410156 0 2.554687 0.992188 2.554687 2.21875 z m 0 0" fill="url(#U)"/>
                    </g>
                </g>
            </g>
        </mask>
        <mask id="aj">
            <g filter="url(#d)">
                <rect fill-opacity="0.8" height="184.32" width="184.32" x="-28.16" y="-28.16"/>
            </g>
        </mask>
        <linearGradient id="ak" gradientTransform="matrix(0 0.37 -0.98462 0 295.38501 -30.360001)" gradientUnits="userSpaceOnUse" x1="300" x2="428" y1="235" y2="235">
            <stop offset="0" stop-color="#f9f06b"/>
            <stop offset="1" stop-color="#f5c211"/>
        </linearGradient>
        <clipPath id="al">
            <rect height="128" width="128"/>
        </clipPath>
        <clipPath id="am">
            <rect height="128" width="128"/>
        </clipPath>
        <clipPath id="an">
            <path d="m 0 0 h 128 v 128 h -128 z m 0 0"/>
        </clipPath>
    </defs>
    <g filter="url(#c)" transform="matrix(1 0 0 1 -12.8 -12.8)">
        <rect height="153.6" width="153.6"/>
    </g>
    <path d="m 73 81 l -7.554688 3.777344 l -1.445312 0.222656 v 2 l 2 2 l 5 -1 l 6 -3 v -2 l -1.734375 0.269531 z m 0 0" fill="#4d4d4d"/>
    <path d="m 77 83 l -6 3 l -5 1 l -2 -2 l 1 -2 l 8 -4 z" fill="#666666"/>
    <path d="m 81 92.027344 v 9.117187 c 0 1.226563 1.144531 2.21875 2.558594 2.21875 c 1.410156 0 2.554687 -0.992187 2.554687 -2.21875 v -9.117187 z m 0 0" fill="url(#T)"/>
    <path d="m 86.113281 92.21875 c 0 1.222656 -1.144531 2.21875 -2.554687 2.21875 c -1.414063 0 -2.558594 -0.996094 -2.558594 -2.21875 c 0 -1.226562 1.144531 -2.21875 2.558594 -2.21875 c 1.410156 0 2.554687 0.992188 2.554687 2.21875 z m 0 0" fill="url(#U)"/>
    <g mask="url(#ai)">
        <g clip-path="url(#am)">
            <g mask="url(#aj)">
                <g clip-path="url(#al)">
                    <path d="m 128 80.640625 v 47.359375 h -128 v -47.359375 z m 0 0" fill="url(#ak)"/>
                    <path d="m 13.308594 80.640625 l 47.355468 47.359375 h 21.214844 l -47.359375 -47.359375 z m 42.421875 0 l 47.363281 47.359375 h 21.214844 l -47.363282 -47.359375 z m 42.429687 0 l 29.839844 29.839844 v -21.210938 l -8.628906 -8.628906 z m -98.160156 7.90625 v 21.214844 l 18.238281 18.238281 h 21.214844 z m 0 0"/>
                </g>
            </g>
        </g>
    </g>
</svg>
