<?xml version="1.0" encoding="UTF-8"?>
<svg height="128px" viewBox="0 0 128 128" width="128px" xmlns="http://www.w3.org/2000/svg" xmlns:xlink="http://www.w3.org/1999/xlink">
    <defs>
        <filter id="a" height="100%" width="100%" x="0%" y="0%">
            <feColorMatrix color-interpolation-filters="sRGB" values="0 0 0 0 1 0 0 0 0 1 0 0 0 0 1 0 0 0 -1 1"/>
        </filter>
        <filter id="b" height="100%" width="100%" x="0%" y="0%">
            <feImage height="153.6" result="source" width="153.6" xlink:href="#Q"/>
            <feImage height="153.6" result="destination" width="153.6" xlink:href="#R"/>
            <feBlend color-interpolation-filters="sRGB" in="source" in2="destination" mode="lighten"/>
        </filter>
        <filter id="c" height="100%" width="100%" x="0%" y="0%">
            <feImage height="153.6" result="source" width="153.6" xlink:href="#S"/>
            <feImage height="153.6" result="destination" width="153.6" xlink:href="#T"/>
            <feComposite color-interpolation-filters="sRGB" in="source" in2="destination" k1="0" k2="1" k3="1" k4="0" operator="arithmetic"/>
        </filter>
        <linearGradient id="d" gradientUnits="userSpaceOnUse">
            <stop offset="0" stop-color="#77767b"/>
            <stop offset="0.0500001" stop-color="#c0bfbc"/>
            <stop offset="0.099807" stop-color="#9a9996"/>
            <stop offset="0.900001" stop-color="#9a9996"/>
            <stop offset="0.950001" stop-color="#c0bfbc"/>
            <stop offset="1" stop-color="#77767b"/>
        </linearGradient>
        <linearGradient id="e" gradientTransform="matrix(0.25 0 0 0.250556 -14.148956 228.794015)" x1="88.595886" x2="536.595886" xlink:href="#d" y1="-449.394012" y2="-449.394012"/>
        <radialGradient id="f" cx="-370.648682" cy="181.100616" gradientTransform="matrix(0.0014416 0.968686 -0.749999 0.0008803 200.35968 398.322834)" gradientUnits="userSpaceOnUse" r="56.000004">
            <stop offset="0" stop-color="#f2f2ec"/>
            <stop offset="1" stop-color="#deddda"/>
        </radialGradient>
        <linearGradient id="g" gradientUnits="userSpaceOnUse">
            <stop offset="0" stop-color="#77767b"/>
            <stop offset="0.0500001" stop-color="#c0bfbc"/>
            <stop offset="0.223373" stop-color="#9a9996"/>
            <stop offset="0.76381" stop-color="#9a9996"/>
            <stop offset="0.950001" stop-color="#c0bfbc"/>
            <stop offset="1" stop-color="#77767b"/>
        </linearGradient>
        <linearGradient id="h" gradientTransform="matrix(1.499945 0 0 1.428571 -57.993699 -290.285744)" x1="107.999779" x2="116.000427" xlink:href="#g" y1="251.124771" y2="251.124771"/>
        <linearGradient id="i" x1="82" x2="106" xlink:href="#g" y1="49.810532" y2="50"/>
        <radialGradient id="j" cx="110.794197" cy="230.279572" gradientTransform="matrix(-0.00000103 -0.924133 0.924132 0 -118.80867 156.38858)" gradientUnits="userSpaceOnUse" r="12.98516">
            <stop offset="0" stop-color="#f9f9f9"/>
            <stop offset="1" stop-color="#c8c8c8"/>
        </radialGradient>
        <linearGradient id="k" gradientTransform="matrix(0.825183 0 0 0.948002 6.097809 -161.416389)" gradientUnits="userSpaceOnUse" x1="12" x2="99.253372" y1="242" y2="242">
            <stop offset="0" stop-color="#1f1f1f"/>
            <stop offset="0.5" stop-color="#7c7c7c"/>
            <stop offset="1" stop-color="#1f1f1f"/>
        </linearGradient>
        <linearGradient id="l" gradientTransform="matrix(0.819277 0 0 0.944445 6.530121 -161.611137)" gradientUnits="userSpaceOnUse" x1="55.5" x2="55.5" y1="277" y2="205">
            <stop offset="0" stop-color="#241f31"/>
            <stop offset="0.5" stop-color="#5e5c64"/>
        </linearGradient>
        <linearGradient id="m" gradientTransform="matrix(0.852519 0 0 0.979406 4.576965 -170.051842)" gradientUnits="userSpaceOnUse" x1="55.626953" x2="55.626953" y1="227.741898" y2="254.288589">
            <stop offset="0" stop-color="#333333"/>
            <stop offset="0.5" stop-color="#717171"/>
            <stop offset="1" stop-color="#333333"/>
        </linearGradient>
        <linearGradient id="n" gradientTransform="matrix(0.893388 0 0 1.026358 2.303574 -181.367813)" gradientUnits="userSpaceOnUse" x1="49.801144" x2="60.404984" y1="250" y2="230.297729">
            <stop offset="0" stop-color="#f8e45c"/>
            <stop offset="1" stop-color="#62a0ea"/>
        </linearGradient>
        <linearGradient id="o" x1="49" x2="55" xlink:href="#d" y1="66.000011" y2="66.000011"/>
        <linearGradient id="p" gradientUnits="userSpaceOnUse">
            <stop offset="0" stop-color="#b3b3b3"/>
            <stop offset="1" stop-color="#cdcdcd"/>
        </linearGradient>
        <linearGradient id="q" x1="51.999995" x2="51.999995" xlink:href="#p" y1="67" y2="61"/>
        <linearGradient id="r" gradientUnits="userSpaceOnUse" x1="93.98993" x2="93.99999775" y1="56.49999075" y2="51.44582975">
            <stop offset="0" stop-color="#989898"/>
            <stop offset="1" stop-color="#3d3d3d"/>
        </linearGradient>
        <linearGradient id="s" gradientUnits="userSpaceOnUse" x1="97.000003" x2="97.000003" y1="41" y2="48">
            <stop offset="0" stop-color="#474747"/>
            <stop offset="1" stop-color="#aaaaaa"/>
        </linearGradient>
        <linearGradient id="t" gradientTransform="matrix(1.363636 0 0 1.222223 -5.727273 -239.444595)" x1="18.5" x2="18.5" xlink:href="#p" y1="281" y2="272"/>
        <linearGradient id="u" gradientTransform="matrix(0.727273 0 0 0.449877 96.545451 -40.390959)" x1="18.5" x2="18.5" xlink:href="#p" y1="281" y2="272"/>
        <linearGradient id="v" gradientUnits="userSpaceOnUse" x1="114.885719" x2="120.498375" y1="43.30813" y2="58.742934">
            <stop offset="0" stop-color="#195eb0"/>
            <stop offset="1" stop-color="#62a0ea"/>
        </linearGradient>
        <linearGradient id="w" gradientUnits="userSpaceOnUse">
            <stop offset="0" stop-color="#134684"/>
            <stop offset="1" stop-color="#62a0ea"/>
        </linearGradient>
        <linearGradient id="x" x1="109.273063" x2="112.079391" xlink:href="#w" y1="44.711294" y2="58.742934"/>
        <linearGradient id="y" gradientUnits="userSpaceOnUse" x1="93.53582383777" x2="95.241423" y1="44.25045249669" y2="22.26067">
            <stop offset="0" stop-color="#f5c211"/>
            <stop offset="1" stop-color="#f8e45c"/>
        </linearGradient>
        <linearGradient id="z" x1="84.24604918393" x2="93.974697" xlink:href="#w" y1="21.08402520781" y2="6.806185"/>
        <radialGradient id="A" cx="248.710815" cy="374.609863" gradientTransform="matrix(0.826909 0.594725 -0.25608 0.356055 -14.489518 -247.810115)" r="37.280521" xlink:href="#w"/>
        <linearGradient id="B" gradientUnits="userSpaceOnUse" x1="74.983429" x2="74.983429" y1="16.937694" y2="13.078993">
            <stop offset="0" stop-color="#617086"/>
            <stop offset="1" stop-color="#7b8aa0"/>
        </linearGradient>
        <linearGradient id="C" gradientUnits="userSpaceOnUse" x1="86.84625304154" x2="83.86692193616" y1="17.49101592387" y2="4.146858932">
            <stop offset="0.5" stop-color="#f8e259"/>
            <stop offset="1" stop-color="#f8e45c"/>
        </linearGradient>
        <linearGradient id="D" gradientUnits="userSpaceOnUse">
            <stop offset="0" stop-color="#ffffff"/>
            <stop offset="1" stop-color="#ffffff" stop-opacity="0"/>
        </linearGradient>
        <linearGradient id="E" x1="84.18553814193" x2="82.97389199629" xlink:href="#D" y1="11.1387283903" y2="12.32440372425"/>
        <linearGradient id="F" x1="14.000015" x2="21.000015" xlink:href="#d" y1="88.000019" y2="88.000019"/>
        <linearGradient id="G" x1="17.500015" x2="17.500015" xlink:href="#p" y1="88.000004" y2="81.000004"/>
        <linearGradient id="H" x1="76.000015" x2="81.000015" xlink:href="#d" y1="98.500008" y2="98.500008"/>
        <linearGradient id="I" x1="78.500015" x2="78.500015" xlink:href="#p" y1="91.992821" y2="86.992821"/>
        <radialGradient id="J" cx="89.642632" cy="245.322403" gradientTransform="matrix(-1.162742 -1.831339 1.208355 -0.767346 -110.522537 438.294989)" gradientUnits="userSpaceOnUse" r="15.35467">
            <stop offset="0" stop-color="#c9c9c9"/>
            <stop offset="1" stop-color="#888888"/>
        </radialGradient>
        <radialGradient id="K" cx="85.892593" cy="241.373001" gradientTransform="matrix(0.852795 0.34615 -0.551499 1.358702 146.052353 -261.246171)" r="14.204772" xlink:href="#D"/>
        <clipPath id="L">
            <rect height="152" width="192"/>
        </clipPath>
        <g id="M">
            <rect fill="none" height="153.6" width="153.6"/>
            <rect fill="#ffffff" height="153.6" width="153.6"/>
        </g>
        <mask id="N">
            <use xlink:href="#M"/>
        </mask>
        <mask id="O">
            <use filter="url(#a)" xlink:href="#M"/>
        </mask>
        <mask id="P">
            <rect fill="#ffffff" height="153.6" width="153.6"/>
        </mask>
        <g id="Q" mask="url(#P)">
            <g clip-path="url(#L)" transform="matrix(1 0 0 1 4.8 -3.2)">
                <path d="m 100.574219 65.035156 c -0.089844 0.035156 -0.15625 0.101563 -0.195313 0.1875 l -13.730468 31.34375 s -0.164063 0.375 -0.390626 0.832032 c -0.226562 0.453124 -0.519531 0.996093 -0.738281 1.273437 c -0.429687 0.546875 -0.960937 1.03125 -1.546875 1.390625 c -3.769531 2.296875 -11.136718 5.945312 -11.136718 5.945312 c -0.175782 0.082032 -0.246094 0.292969 -0.160157 0.46875 c 0.085938 0.171876 0.296875 0.242188 0.46875 0.15625 c 0 0 7.359375 -3.636718 11.191407 -5.972656 c 0.667968 -0.40625 1.253906 -0.949218 1.734374 -1.558594 c 0.289063 -0.371093 0.582032 -0.921874 0.816407 -1.394531 c 0.230469 -0.472656 0.398437 -0.859375 0.402343 -0.859375 v -0.003906 l 13.730469 -31.34375 c 0.078125 -0.175781 -0.003906 -0.382812 -0.179687 -0.460938 c -0.085938 -0.035156 -0.179688 -0.039062 -0.265625 -0.003906 z m 0 0" fill="url(#K)"/>
            </g>
        </g>
        <g id="R" transform="matrix(1 0 0 1 12.8 12.8)">
            <path d="m 16 40.027344 h 96 c 4.417969 0 8 3.582031 8 8 v 60.167968 c 0 4.417969 -3.582031 8 -8 8 h -96 c -4.417969 0 -8 -3.582031 -8 -8 v -60.167968 c 0 -4.417969 3.582031 -8 8 -8 z m 0 0" fill="url(#e)"/>
            <path d="m 16 28 h 96 c 4.417969 0 8 3.582031 8 8 v 64.078125 c 0 4.417969 -3.582031 8 -8 8 h -96 c -4.417969 0 -8 -3.582031 -8 -8 v -64.078125 c 0 -4.417969 3.582031 -8 8 -8 z m 0 0" fill="url(#f)"/>
            <path d="m 106 64 h 8 c 1.105469 0 2 0.894531 2 2 v 36 c 0 1.105469 -0.894531 2 -2 2 h -8 c -1.105469 0 -2 -0.894531 -2 -2 v -36 c 0 -1.105469 0.894531 -2 2 -2 z m 0 0" fill="url(#h)"/>
            <path d="m 106 65 h 8 c 1.105469 0 2 0.894531 2 2 v 35 c 0 1.105469 -0.894531 2 -2 2 h -8 c -1.105469 0 -2 -0.894531 -2 -2 v -35 c 0 -1.105469 0.894531 -2 2 -2 z m 0 0" fill="#f9f9f9"/>
            <path d="m 109 67 h 2 v 35 h -2 z m 0 0"/>
            <path d="m 94 41 c -6.628906 0 -12 5.371094 -12 12 h 24 c 0 -6.628906 -5.371094 -12 -12 -12 z m 0 0" fill="url(#i)"/>
            <path d="m 106 54 c 0 6.628906 -5.371094 12 -12 12 s -12 -5.371094 -12 -12 s 5.371094 -12 12 -12 s 12 5.371094 12 12 z m 0 0" fill="url(#j)"/>
            <path d="m 88 68 c 0 19.882812 -16.117188 36 -36 36 s -36 -16.117188 -36 -36 s 16.117188 -36 36 -36 s 36 16.117188 36 36 z m 0 0" fill="url(#k)"/>
            <path d="m 87 67 c 0 19.328125 -15.671875 35 -35 35 s -35 -15.671875 -35 -35 s 15.671875 -35 35 -35 s 35 15.671875 35 35 z m 0 0" fill="#ececec"/>
            <path d="m 86 66 c 0 18.777344 -15.222656 34 -34 34 s -34 -15.222656 -34 -34 s 15.222656 -34 34 -34 s 34 15.222656 34 34 z m 0 0" fill="url(#l)"/>
            <path d="m 65 66 c 0 7.179688 -5.820312 13 -13 13 s -13 -5.820312 -13 -13 s 5.820312 -13 13 -13 s 13 5.820312 13 13 z m 0 0" fill="url(#m)"/>
            <path d="m 63 66 c 0 6.074219 -4.925781 11 -11 11 s -11 -4.925781 -11 -11 s 4.925781 -11 11 -11 s 11 4.925781 11 11 z m 0 0" fill="url(#n)"/>
            <path d="m 52 63 c -0.851562 0 -1.664062 0.363281 -2.230469 1 h -0.769531 v 2 c 0 1.65625 1.34375 3 3 3 s 3 -1.34375 3 -3 v -2 h -0.761719 c -0.570312 -0.636719 -1.382812 -1 -2.238281 -1 z m 0 0" fill="url(#o)"/>
            <path d="m 55 64 c 0 1.65625 -1.34375 3 -3 3 s -3 -1.34375 -3 -3 s 1.34375 -3 3 -3 s 3 1.34375 3 3 z m 0 0" fill="url(#q)"/>
            <path d="m 90.488281 49.5 v 3.5 c 0 1.933594 1.570313 3.5 3.5 3.5 c 1.933594 0 3.5 -1.566406 3.5 -3.5 v -3.5 z m 0 0" fill="url(#r)"/>
            <path d="m 102.980469 43.5 l -3 5 l -14 -5 l 3 -5 z m 0 0" fill="url(#s)" fill-rule="evenodd"/>
            <path d="m 102.980469 43.5 v 7 l -3 5 v -7 z m 0 0" fill="#808080" fill-rule="evenodd"/>
            <path d="m 100 48.5 v 7 l -14 -5 v -7 z m 0 0" fill="#deddda" fill-rule="evenodd"/>
            <path d="m 12 93 h 15 v 11 h -15 z m 0 0" fill="url(#t)"/>
            <path d="m 12 104 h 15 v 1 h -15 z m 0 0" fill="#808080"/>
            <path d="m 106 81.976562 h 8 v 4.046876 h -8 z m 0 0" fill="url(#u)"/>
            <path d="m 106 86.011719 h 8 v 1 h -8 z m 0 0" fill="#808080"/>
            <path d="m 110.675781 40.152344 s 19.644531 21.398437 11.226563 18.589844 c -5.785156 -1.925782 -10.183594 -11.285157 -11.578125 -16.136719 c -0.632813 -2.207031 0.351562 -2.453125 0.351562 -2.453125 z m 0 0" fill="url(#v)"/>
            <path d="m 109.273438 41.203125 s -1.855469 -0.25 -1.402344 1.753906 c 1.066406 4.710938 4.308594 14.105469 7.015625 12.628907 c 3.859375 -2.105469 -5.613281 -14.382813 -5.613281 -14.382813 z m 0 0" fill="url(#x)"/>
            <path d="m 78.402344 16.648438 s -3.457032 3.894531 -1.902344 11.667968 c 1.539062 7.714844 9.621094 17.871094 22.648438 17.34375 c 16.425781 -0.667968 14.738281 -7.308594 14.738281 -7.308594 l -18.734375 -24.347656 z m 0 0" fill="url(#y)"/>
            <path d="m 96.78125 15.226562 s -1.800781 -11.226562 -10.875 -11.226562 c -7.71875 0 -9.121094 5.613281 -9.121094 9.820312 c 0 4.265626 3.507813 7.019532 8.070313 7.019532 c 3.507812 0 4.910156 -2.457032 7.015625 -4.210938 c 2.105468 -1.753906 4.910156 -1.402344 4.910156 -1.402344 z m 0 0" fill="url(#z)"/>
            <path d="m 96.292969 13.84375 c -7.277344 2.5625 -11.261719 17 0.65625 23.535156 c 11.425781 6.265625 19.339843 5.929688 19.339843 5.929688 s -4.546874 -11.898438 -8.417968 -18.242188 c -4.914063 -8.039062 -11.578125 -11.222656 -11.578125 -11.222656 z m 0 0" fill="url(#A)"/>
            <path d="m 84.359375 12.160156 c 0 0.921875 -0.648437 1.671875 -1.449219 1.671875 c -0.800781 0 -1.449218 -0.75 -1.449218 -1.671875 c 0 -0.925781 0.648437 -1.675781 1.449218 -1.675781 c 0.800782 0 1.449219 0.75 1.449219 1.675781 z m 0 0"/>
            <path d="m 76.824219 12.726562 s -1.847657 0.789063 -2.636719 1.847657 c -0.792969 1.054687 -0.933594 1.964843 -0.933594 1.964843 s 0.402344 0.546876 1.988282 0.40625 c 1.582031 -0.136718 2.171874 -0.210937 2.171874 -0.210937 s -0.0625 -0.578125 0.203126 -1.105469 c 0.261718 -0.527344 0.527343 -0.792968 0.527343 -0.792968 s -0.792969 -0.578126 -1.054687 -1.054688 c -0.265625 -0.476562 -0.265625 -1.054688 -0.265625 -1.054688 z m 0 0" fill="url(#B)"/>
            <path d="m 85.90625 4 c -7.0625 0 -8.832031 4.699219 -9.082031 8.726562 c 0.207031 -0.246093 3.546875 -4.167968 5.925781 -4.167968 c 2.453125 0 3.15625 1.753906 5.261719 2.105468 c 1.644531 0.273438 4.355469 -0.949218 5.800781 -2.5 c -1.652344 -2.246093 -4.15625 -4.164062 -7.90625 -4.164062 z m 0 0" fill="url(#C)"/>
            <path d="m 84.1875 11.621094 c 0 0.390625 -0.273438 0.703125 -0.609375 0.703125 c -0.332031 0 -0.605469 -0.3125 -0.605469 -0.703125 c 0 -0.386719 0.273438 -0.699219 0.605469 -0.699219 c 0.335937 0 0.609375 0.3125 0.609375 0.699219 z m 0 0" fill="url(#E)"/>
            <path d="m 14 84.5 v 3.5 c 0 1.933594 1.566406 3.5 3.5 3.5 s 3.5 -1.566406 3.5 -3.5 v -3.5 z m 0 0" fill="url(#F)"/>
            <path d="m 21 84.5 c 0 1.933594 -1.566406 3.5 -3.5 3.5 s -3.5 -1.566406 -3.5 -3.5 s 1.566406 -3.5 3.5 -3.5 s 3.5 1.566406 3.5 3.5 z m 0 0" fill="url(#G)"/>
            <path d="m 76 89.492188 v 9.007812 c 0 1.378906 1.121094 2.5 2.5 2.5 s 2.5 -1.121094 2.5 -2.5 v -9.007812 z m 0 0" fill="url(#H)"/>
            <path d="m 81 89.492188 c 0 1.382812 -1.121094 2.5 -2.5 2.5 s -2.5 -1.117188 -2.5 -2.5 c 0 -1.378907 1.121094 -2.5 2.5 -2.5 s 2.5 1.121093 2.5 2.5 z m 0 0" fill="url(#I)"/>
            <path d="m 92.496094 48.484375 c -0.371094 0.144531 -0.667969 0.429687 -0.828125 0.796875 l -13.734375 31.34375 l -0.003906 0.003906 s -0.152344 0.351563 -0.363282 0.777344 c -0.210937 0.429688 -0.515625 0.949219 -0.613281 1.074219 c -0.351563 0.449219 -0.785156 0.84375 -1.238281 1.121093 c -3.664063 2.230469 -11.050782 5.894532 -11.050782 5.894532 c -0.742187 0.367187 -1.046874 1.269531 -0.679687 2.011718 c 0.367187 0.742188 1.269531 1.042969 2.011719 0.675782 c 0 0 7.339844 -3.621094 11.277344 -6.019532 c 0.800781 -0.488281 1.484374 -1.125 2.039062 -1.832031 c 0.414062 -0.527343 0.695312 -1.09375 0.945312 -1.59375 c 0.246094 -0.5 0.421876 -0.90625 0.421876 -0.910156 l 0.003906 -0.007813 l 13.730468 -31.335937 c 0.332032 -0.757813 -0.015624 -1.644531 -0.773437 -1.976563 c -0.363281 -0.160156 -0.777344 -0.167968 -1.144531 -0.023437 z m 0 0" fill="url(#J)"/>
        </g>
        <g id="S" filter="url(#b)" mask="url(#N)">
            <rect height="153.6" width="153.6"/>
        </g>
        <g id="T" mask="url(#O)">
            <use xlink:href="#R"/>
        </g>
    </defs>
    <g filter="url(#c)" transform="matrix(1 0 0 1 -12.8 -12.8)">
        <rect height="153.6" width="153.6"/>
    </g>
    <path d="m 65.039062 88.882812 l -7.554687 3.777344 l -1.445313 0.222656 v 2 l 2 2 l 5 -1 l 6 -3 v -2 l -1.730468 0.265626 z m 0 0" fill="#4d4d4d"/>
    <path d="m 69.039062 90.882812 l -6 3 l -5 1 l -2 -2 l 1 -2 l 8 -4 z" fill="#666666"/>
</svg>
