<?xml version="1.0" encoding="UTF-8"?>
<svg height="128px" viewBox="0 0 128 128" width="128px" xmlns="http://www.w3.org/2000/svg" xmlns:xlink="http://www.w3.org/1999/xlink">
    <linearGradient id="a" gradientUnits="userSpaceOnUse" x1="26.27402516408" x2="54.78106408004" y1="46.73454444496" y2="26.23212592618">
        <stop offset="0" stop-color="#4b5a05"/>
        <stop offset="1" stop-color="#9fc20e"/>
    </linearGradient>
    <linearGradient id="b" gradientUnits="userSpaceOnUse">
        <stop offset="0" stop-color="#6f8608"/>
        <stop offset="1" stop-color="#96b70b"/>
    </linearGradient>
    <linearGradient id="c" x1="78.01138665341" x2="89.37689907233" xlink:href="#b" y1="41.66587882261" y2="28.58224478188"/>
    <linearGradient id="d" x1="42.79852343426" x2="30.94758517763" xlink:href="#b" y1="79.36228544767" y2="101.04626355115"/>
    <linearGradient id="e" gradientTransform="matrix(0.812882 0 0 0.810828 -200.19597 -44.96324)" gradientUnits="userSpaceOnUse" x1="287.577667" x2="336.795441" y1="174.52327" y2="72.115555">
        <stop offset="0" stop-color="#63452c"/>
        <stop offset="1" stop-color="#b5835a"/>
    </linearGradient>
    <linearGradient id="f" gradientUnits="userSpaceOnUse">
        <stop offset="0" stop-color="#0e3462"/>
        <stop offset="1" stop-color="#62a0ea"/>
    </linearGradient>
    <linearGradient id="g" x1="69.67871024756" x2="61.44356809199" xlink:href="#f" y1="69.42148783664" y2="38.86873245107"/>
    <linearGradient id="h" gradientUnits="userSpaceOnUse" x1="97.07797064354" x2="98.21800104032" y1="33.56095980353" y2="27.25781197607">
        <stop offset="0" stop-color="#ecd33f"/>
        <stop offset="1" stop-color="#faf4d1"/>
    </linearGradient>
    <linearGradient id="i" gradientUnits="userSpaceOnUse" x1="70.75030088867" x2="62.87994443438" y1="87.08459547093" y2="66.19378258326">
        <stop offset="0" stop-color="#a98508"/>
        <stop offset="1" stop-color="#f3d93b"/>
    </linearGradient>
    <linearGradient id="j" gradientUnits="userSpaceOnUse" x1="120.89209299149" x2="119.89708505207" y1="41.59653775877" y2="38.14888884131">
        <stop offset="0" stop-color="#505050"/>
        <stop offset="1" stop-color="#8a8a8a"/>
    </linearGradient>
    <linearGradient id="k" gradientUnits="userSpaceOnUse" x1="122.87394062552" x2="122.09363943638" y1="38.25368948693" y2="34.59802004456">
        <stop offset="0" stop-color="#999999"/>
        <stop offset="1" stop-color="#b0b0b0"/>
    </linearGradient>
    <linearGradient id="l" gradientUnits="userSpaceOnUse" x1="354.411896" x2="355.493561" y1="-144.492737" y2="-153.372406">
        <stop offset="0" stop-color="#889ec3"/>
        <stop offset="1" stop-color="#8fa1bc" stop-opacity="0"/>
    </linearGradient>
    <linearGradient id="m" gradientUnits="userSpaceOnUse" x1="108.49734095813" x2="108.06005590477" y1="36.11610864181" y2="38.30814354506">
        <stop offset="0" stop-color="#f9f9f9" stop-opacity="0.631373"/>
        <stop offset="1" stop-color="#f9f9f9" stop-opacity="0"/>
    </linearGradient>
    <linearGradient id="n" x1="28.72089386753" x2="26.14882138235" xlink:href="#f" y1="79.20232730273" y2="75.71897689604"/>
    <linearGradient id="o" x1="33.80078562392" x2="25.72471246679" xlink:href="#f" y1="80.38845699143" y2="71.35485809249"/>
    <linearGradient id="p" x1="72.65957527118" x2="65.00683900847" xlink:href="#f" y1="72.68485220684" y2="46.95049049114"/>
    <linearGradient id="q" x1="0.28764804889" x2="25.83358356058" xlink:href="#b" y1="19.65962505529" y2="6.57599183065"/>
    <linearGradient id="r" gradientUnits="userSpaceOnUse" x1="49.37740808024" x2="61.2571355438" y1="18.83190945575" y2="5.74827541502">
        <stop offset="0" stop-color="#6f8608"/>
        <stop offset="1" stop-color="#b8e10e"/>
    </linearGradient>
    <linearGradient id="s" gradientUnits="userSpaceOnUse" x1="77.38109360718" x2="87.1860787281" y1="91.26539713533" y2="72.52288486245">
        <stop offset="0" stop-color="#6f8608"/>
        <stop offset="1" stop-color="#b2d90d"/>
    </linearGradient>
    <linearGradient id="t" gradientTransform="matrix(0.651063 0.492057 -0.492057 0.651063 -65.928671 -211.287138)" x1="391.489166" x2="393.797821" xlink:href="#b" y1="142.797241" y2="114.997772"/>
    <linearGradient id="u" gradientUnits="userSpaceOnUse" x1="64.73849814502" x2="83.2295812498" y1="127.18509093049" y2="94.94710806274">
        <stop offset="0" stop-color="#506106"/>
        <stop offset="1" stop-color="#a1c40c"/>
    </linearGradient>
    <path d="m 119.652344 64 c 0 30.734375 -24.917969 55.652344 -55.652344 55.652344 s -55.652344 -24.917969 -55.652344 -55.652344 s 24.917969 -55.652344 55.652344 -55.652344 s 55.652344 24.917969 55.652344 55.652344 z m 0 0" fill="#249963"/>
    <path d="m 102.175781 64.175781 c 0 20.988281 -17.011719 38 -38 38 c -20.984375 0 -38 -17.011719 -38 -38 c 0 -20.984375 17.015625 -38 38 -38 c 20.988281 0 38 17.015625 38 38 z m 0 0" fill="#2ec27e"/>
    <path d="m 111.5 64 c 0 26.234375 -21.265625 47.5 -47.5 47.5 s -47.5 -21.265625 -47.5 -47.5 s 21.265625 -47.5 47.5 -47.5 s 47.5 21.265625 47.5 47.5 z m 0 0" fill="#2ec27e"/>
    <path d="m 101.5 64 c 0 20.710938 -16.789062 37.5 -37.5 37.5 s -37.5 -16.789062 -37.5 -37.5 s 16.789062 -37.5 37.5 -37.5 s 37.5 16.789062 37.5 37.5 z m 0 0" fill="#33d17a"/>
    <path d="m 94 64 c 0 16.570312 -13.429688 30 -30 30 s -30 -13.429688 -30 -30 s 13.429688 -30 30 -30 s 30 13.429688 30 30 z m 0 0" fill="#57e389"/>
    <path d="m 87 64 c 0 12.703125 -10.296875 23 -23 23 s -23 -10.296875 -23 -23 s 10.296875 -23 23 -23 s 23 10.296875 23 23 z m 0 0" fill="#8ff0a4"/>
    <path d="m 81.160156 64 c 0 9.476562 -7.683594 17.160156 -17.160156 17.160156 s -17.160156 -7.683594 -17.160156 -17.160156 s 7.683594 -17.160156 17.160156 -17.160156 s 17.160156 7.683594 17.160156 17.160156 z m 0 0" fill="#ffa348"/>
    <path d="m 65.44923470047 64.00000375817 c 0 0.80078127122 -0.64843751082 1.44921943459 -1.44921943459 1.44921943459 c -0.80078127122 0 -1.44921878204 -0.64843816336 -1.44921878204 -1.44921943459 s 0.64843751082 -1.44921943459 1.44921878204 -1.44921943459 c 0.80078192377 0 1.44921943459 0.64843816336 1.44921943459 1.44921943459 z m 0 0" stroke="#000000" stroke-linecap="square" stroke-width="0.5179552125"/>
    <path d="m 26.273438 46.734375 s 3.382812 -14.359375 13.632812 -16.078125 c 12.050781 -2.023438 21.316406 1.59375 21.316406 1.59375 s -3.769531 8.707031 -15.800781 14.382812 c -9.210937 4.34375 -19.148437 0.101563 -19.148437 0.101563 z m 0 0" fill="url(#a)"/>
    <path d="m 78.011719 27.0625 s 3.605469 2.449219 6.007812 9.679688 c 2.402344 7.234374 3.882813 19.605468 3.882813 19.605468 s 8.804687 -7.820312 7.84375 -19.359375 c -0.960938 -11.539062 -17.734375 -9.925781 -17.734375 -9.925781 z m 0 0" fill="url(#c)"/>
    <path d="m 63.734375 89.011719 s -9.554687 -10.441407 -18.664063 -7.378907 c -9.105468 3.0625 -15.011718 12.132813 -13.820312 12.289063 c 1.1875 0.152344 8.050781 2.238281 19.003906 1.609375 c 8.058594 -0.460938 13.480469 -6.519531 13.480469 -6.519531 z m 0 0" fill="url(#d)"/>
    <path d="m 37.84375 16.847656 c -1.257812 0.699219 -2.488281 1.441406 -3.683594 2.234375 c -2.035156 3.574219 -4.289062 7.976563 -6.796875 15.574219 c -1.832031 5.554688 -2.390625 12.019531 -2.382812 17.9375 c -1.722657 -1.042969 -5.246094 -3.25 -9.070313 -6.070312 c -0.777344 -0.578126 -1.550781 -1.285157 -2.308594 -2.046876 c -0.308593 0.785157 -0.574218 1.589844 -0.84375 2.390626 c 4.722657 4.539062 10.34375 7.808593 12.285157 8.867187 c 0.175781 5.140625 0.707031 9.640625 1.128906 12.304687 c -8.816406 -1.292968 -15.046875 -1.980468 -16.21875 -2.105468 c 0.050781 1.507812 0.160156 3.003906 0.332031 4.476562 c 2.78125 0.410156 21.746094 3.25 37.546875 6.90625 c 2.765625 3.171875 2.972657 10.75 3.855469 18.996094 c 0.890625 8.316406 0.84375 17.339844 0.792969 20.625 c 0.949219 0.207031 1.910156 0.390625 2.878906 0.550781 c -0.0625 -2.085937 -0.292969 -10.089843 -0.203125 -18.761719 c 0.058594 -5.835937 -0.632812 -15.609374 -1.3125 -19.871093 c 3.976562 1.097656 7.5625 2.261719 10.355469 3.472656 c 14.1875 6.152344 26.972656 24.191406 29.140625 27.34375 c 2.960937 -1.894531 5.726562 -4.066406 8.257812 -6.484375 c -0.761718 -0.652344 -1.109375 -0.960938 -2.804687 -2.375 c 0.316406 -4.695312 1.195312 -12.152344 3.679687 -16.714844 c 3.921875 -7.203125 11.699219 -15.089844 15.835938 -19.027344 c 0.007812 -0.316406 0.027344 -0.628906 0.027344 -0.945312 c 0 -0.539062 -0.027344 -1.066406 -0.042969 -1.601562 c -5 4.40625 -15.738281 14.234374 -19.664063 20.746093 c -2.925781 4.855469 -3.894531 10.214844 -4.179687 13.964844 c -7.589844 -6.179687 -18.507813 -14.65625 -26.585938 -19.128906 c -7.335937 -4.058594 -23.859375 -7.304688 -37.535156 -9.4375 c -0.78125 -4.199219 -4.457031 -15.3125 0.050781 -32.925781 c 0.003906 -0.019532 0.011719 -0.039063 0.015625 -0.054688 c 5.34375 -0.09375 31.132813 -0.75 43.214844 -4.84375 c 12.882813 -4.367188 19.570313 -11.328125 20.179687 -11.980469 c -0.582031 -0.378906 -1.167968 -0.753906 -1.765624 -1.113281 c -0.714844 0.832031 -6.503907 7.289062 -19.1875 11.378906 c -12.339844 3.980469 -37.269532 4.0625 -41.65625 4.046875 c 2.308593 -6.457031 4.585937 -11.828125 6.664062 -16.328125 z m 0 0" fill="url(#e)"/>
    <path d="m 119.65226622192 63.99991566072 c 0 30.73435203598 -24.91795035695 55.65230239293 -55.65230239293 55.65230239293 s -55.65230239293 -24.91795035695 -55.65230239293 -55.65230239293 s 24.91795035695 -55.65230239293 55.65230239293 -55.65230239293 s 55.65230239293 24.91795035694 55.65230239293 55.65230239293 z m 0 0" fill="none" stroke="#155b3b" stroke-linecap="square" stroke-width="3.99999731"/>
    <path d="m 55.15625 55.882812 c -18.871094 12.085938 -33.710938 29.957032 -33.710938 29.957032 s 16.003907 -1.578125 23.386719 1.132812 c 7.386719 2.707032 12.984375 2.699219 25.917969 0.113282 c 12.03125 -2.40625 18.726562 -7.09375 24.769531 -13.367188 c 6.042969 -6.269531 8.105469 -15.480469 10.792969 -18.683594 c 3.007812 -3.59375 8.898438 -7.695312 10.769531 -10.082031 c 2.285157 -2.910156 4.722657 -8.875 4.722657 -8.875 s -3.046876 -0.917969 -7.949219 -4.257813 c -4.878907 -3.324218 -14.742188 -4.109374 -20.613281 0.996094 c -11.300782 9.832032 -23.949219 14.015625 -38.085938 23.066406 z m 0 0" fill="url(#g)"/>
    <path d="m 103.921875 29.15625 c -3.804687 0.027344 -7.730469 1.105469 -10.664063 3.652344 c 1.65625 0.496094 3.84375 0.972656 5.542969 0.683594 c 3.125 -0.53125 4.917969 -3.03125 9.402344 -2.808594 c 2.734375 0.140625 5.9375 1.558594 8.023437 2.648437 c -0.734374 -0.441406 -1.511718 -0.925781 -2.371093 -1.511719 c -2.4375 -1.660156 -6.125 -2.6875 -9.933594 -2.664062 z m 14.507813 5.429688 c 0.003906 0 0.023437 0.011718 0.023437 0.011718 c -0.007813 -0.003906 -0.015625 -0.011718 -0.023437 -0.011718 z m 0 0" fill="url(#h)"/>
    <path d="m 118.691406 42.488281 c -9.367187 2.625 -7.261718 7.511719 -13.167968 8.003907 c -2.675782 0.222656 -3.894532 -1.621094 -7.371094 -1.882813 c -3.476563 -0.265625 -7.695313 2.007813 -7.695313 2.007813 s 3.175781 1.019531 2.976563 3.863281 c -0.203125 2.839843 -3.488282 7.679687 -8.921875 11.21875 c -5.4375 3.535156 -33.882813 9.378906 -44.746094 12.683593 c -10.808594 3.289063 -18.207031 7.410157 -18.277344 7.449219 c 0 0 -0.003906 0.003907 -0.007812 0.007813 c 0.027343 0 1.210937 0.03125 2.824219 0.089844 c -1.753907 0.570312 -5.09375 1.652343 -5.09375 1.652343 l -11.085938 4.382813 s 2.464844 0.433594 8.917969 -0.621094 c 5.273437 -0.863281 21.445312 -1.832031 29.175781 -1.863281 c 8.253906 2.082031 27.164062 1.304687 36.746094 -4.179688 c 13.304687 -7.609375 19.976562 -22.582031 25.238281 -29.96875 c 2.410156 -3.378906 7.003906 -7.992187 8.878906 -10.378906 c 0.539063 -0.6875 1.085938 -1.554687 1.609375 -2.464844 z m 0 0" fill="url(#i)"/>
    <path d="m 118.453125 34.597656 s 3.242187 0.210938 4.578125 0.351563 c 1.332031 0.140625 2.574219 0.253906 3.140625 0.527343 c 0.5625 0.273438 1.734375 0.769532 1.613281 0.8125 c -0.117187 0.042969 -1.578125 2.222657 -3.019531 3.328126 c -1.441406 1.105468 -6.070313 2.871093 -6.070313 2.871093 s -0.207031 -1.976562 -1.191406 -2.335937 c -0.980468 -0.359375 -3 0.015625 -3 0.015625 s 3.535156 -2.125 3.964844 -3.492188 c 0.425781 -1.367187 -0.015625 -2.078125 -0.015625 -2.078125 z m 0 0" fill="url(#j)"/>
    <path d="m 118.453125 34.597656 s 0.441406 0.710938 0.015625 2.078125 c -0.429688 1.367188 -3.964844 3.492188 -3.964844 3.492188 s 3.433594 -1.144531 3.542969 -1.144531 c 0.113281 0 4.925781 -0.707032 6.140625 -1.074219 c 1.214844 -0.371094 3.597656 -1.660157 3.597656 -1.660157 v -0.019531 c -0.074218 -0.105469 -1.097656 -0.542969 -1.613281 -0.792969 c -0.566406 -0.273437 -1.808594 -0.382812 -3.140625 -0.527343 c -1.335938 -0.140625 -4.578125 -0.351563 -4.578125 -0.351563 z m 0 0" fill="url(#k)"/>
    <path d="m 357.829497 -148.930918 c -0.001163 1.355597 -1.286388 2.458198 -2.879544 2.458602 c -1.586409 0.001251 -2.876728 -1.101992 -2.871893 -2.460525 c -0.001912 -1.35938 1.286388 -2.458198 2.872797 -2.459449 c 1.593156 -0.000404 2.8804 1.099056 2.87864 2.461372 z m 0 0" fill="none" stroke="url(#l)" stroke-linecap="round" stroke-width="1.30045" transform="matrix(0.644715 0.500345 -0.523894 0.62573 -198.663502 -46.152277)"/>
    <path d="m 110.058594 39.695312 c -0.710938 0.847657 -2.117188 0.894532 -3.144532 0.097657 c -1.023437 -0.792969 -1.277343 -2.128907 -0.5625 -2.976563 c 0.710938 -0.851562 2.117188 -0.894531 3.140626 -0.101562 c 1.027343 0.796875 1.28125 2.128906 0.566406 2.980468 z m 0 0" fill="#442e2e"/>
    <path d="m 109.546875 39.269531 c -0.5 0.597657 -1.492187 0.628907 -2.214844 0.070313 c -0.71875 -0.5625 -0.898437 -1.5 -0.398437 -2.101563 c 0.503906 -0.597656 1.496094 -0.628906 2.214844 -0.070312 c 0.722656 0.5625 0.902343 1.5 0.398437 2.101562 z m 0 0" fill="#1a1a1a"/>
    <path d="m 107.964844 36.144531 c -0.648438 -0.023437 -1.238282 0.21875 -1.609375 0.664063 c -0.027344 0.035156 -0.050781 0.070312 -0.074219 0.105468 c 0.292969 0.445313 0.832031 0.976563 1.796875 1.21875 c 1.035156 0.257813 1.847656 0.199219 2.355469 0.097657 c -0.09375 -0.578125 -0.433594 -1.128907 -0.941406 -1.519531 c -0.445313 -0.347657 -0.988282 -0.546876 -1.527344 -0.566407 z m 0 0" fill="url(#m)"/>
    <path d="m 35.066406 73.917969 c -0.925781 -0.074219 -6.097656 2.34375 -11.0625 5.199219 c -4.964844 2.855468 -3.164062 2.328124 -0.023437 1.671874 c 3.136719 -0.652343 8.699219 -3.230468 10.210937 -4.390624 c 1.515625 -1.15625 0.875 -2.480469 0.875 -2.480469 z m 0 0" fill="url(#n)"/>
    <path d="m 36.972656 75.035156 s -4.941406 1.222656 -16.128906 7.910156 c -11.191406 6.6875 -20.84375 13.921876 -20.84375 13.921876 s 10.347656 -5.851563 21.3125 -8.996094 c 10.964844 -3.148438 26.652344 -14.03125 26.652344 -14.03125 z m 0 0" fill="url(#o)"/>
    <path d="m 86.738281 49.488281 c 4.160157 0.199219 7.277344 2.515625 7.335938 4.519531 c 0.132812 4.425782 -6.480469 13.671876 -15.746094 14.207032 c -12.800781 0.738281 -49.859375 9.386718 -50.78125 9.085937 c -0.917969 -0.300781 17.960937 -17.804687 29.441406 -22.875 c 7.929688 -3.503906 19.289063 -5.429687 29.75 -4.9375 z m 0 0" fill="url(#p)"/>
    <path d="m 28.617188 34.660156 s -8.207032 -2.097656 -15.25 -8.152344 c -7.042969 -6.054687 -8.070313 -10.886718 -8.070313 -10.886718 s 11.367187 -5.847656 18.964844 1.117187 c 9.253906 8.480469 4.355469 17.921875 4.355469 17.921875 z m 0 0" fill="url(#q)"/>
    <path d="m 62.222656 32.453125 s -6.886718 -3.472656 -10.152344 -11.214844 c -3.269531 -7.746093 -2.644531 -16.027343 -2.644531 -16.027343 s 8.503907 1.972656 12.460938 5.265624 c 3.960937 3.292969 4.859375 5.238282 5.730469 9.003907 c 0.867187 3.765625 -5.394532 12.972656 -5.394532 12.972656 z m 0 0" fill="url(#r)"/>
    <path d="m 98.261719 85.394531 s -3.347657 -9.351562 -11.074219 -12.871093 c -7.730469 -3.519532 -27.632812 0.839843 -27.632812 0.839843 s 5.199218 1.117188 7.566406 6.160157 c 2.371094 5.046874 8.90625 13.648437 18.074218 14.40625 c 9.164063 0.757812 13.066407 -8.535157 13.066407 -8.535157 z m 0 0" fill="url(#s)"/>
    <path d="m 109.832031 70.511719 s -0.550781 -9.105469 4.671875 -14.164063 c 6.007813 -5.820312 12.015625 -10.324218 12.015625 -10.324218 s 3.078125 10.804687 -2.621093 20.683593 c -5.414063 9.382813 -14.066407 3.804688 -14.066407 3.804688 z m 0 0" fill="url(#t)"/>
    <path d="m 53.515625 106.847656 s 11.707031 -5.695312 22.105469 0.074219 c 10.402344 5.773437 12.441406 20.097656 12.441406 20.097656 s -13.445312 -2.382812 -21.289062 -5.601562 c -10.507813 -4.316407 -13.257813 -14.570313 -13.257813 -14.570313 z m 0 0" fill="url(#u)"/>
</svg>
